<?xml version="1.0" encoding="iso-8859-1"?>
<!-- Generator: Adobe Illustrator 16.0.0, SVG Export Plug-In . SVG Version: 6.00 Build 0)  -->
<!DOCTYPE svg PUBLIC "-//W3C//DTD SVG 1.1//EN" "http://www.w3.org/Graphics/SVG/1.1/DTD/svg11.dtd">
<svg version="1.1" id="Layer_1" xmlns="http://www.w3.org/2000/svg" xmlns:xlink="http://www.w3.org/1999/xlink" x="0px" y="0px"
	 width="524.409px" height="708.661px" viewBox="0 0 524.409 708.661" style="enable-background:new 0 0 524.409 708.661;"
	 xml:space="preserve">
<g>
	<polygon style="fill:#FFFFFF;" points="0,0 0,708.661 524.409,708.661 524.409,0 0,0 	"/>
	<path d="M80.966,651c-0.16-0.5-0.2-1-0.2-1.521v-4.739c0-1.221,0.1-2.34-0.94-3.181c-0.82-0.68-2.18-0.92-3.22-0.92
		c-2.14,0-4.54,0.721-4.84,3.181l2.78,0.26c0-1,0.82-1.48,1.76-1.48c0.44,0,0.94,0.141,1.2,0.48c0.3,0.38,0.26,0.899,0.26,1.34v0.24
		c-1.24,0.12-2.86,0.2-4.02,0.64c-1.34,0.5-2.28,1.521-2.28,3.021c0,1.92,1.4,2.88,3.2,2.88c1.52,0,2.4-0.58,3.24-1.78
		c-0.02,0.521,0.02,1.061,0.14,1.58H80.966L80.966,651z M77.766,646.54c0,0.72,0.02,1.32-0.4,1.96c-0.34,0.52-0.88,0.84-1.48,0.84
		c-0.82,0-1.3-0.54-1.3-1.34c0-1.48,2.06-1.74,3.18-1.86V646.54L77.766,646.54z M117.546,645.3c0-0.6,0-1.22,0.3-1.76
		c0.26-0.5,0.74-0.82,1.32-0.82c1.48,0,1.56,2.101,1.56,3.141s-0.06,3.26-1.58,3.26c-0.52,0-1.04-0.32-1.32-0.76
		c-0.34-0.561-0.28-1.42-0.28-2.061V645.3L117.546,645.3z M114.606,640.84v13.58h2.94v-4.54h0.04c0.42,0.9,1.34,1.32,2.34,1.32
		c2.96,0,3.88-2.76,3.88-5.26c0-1.24-0.12-2.461-0.76-3.54c-0.68-1.16-1.64-1.761-3-1.761c-1.3,0-2.1,0.58-2.64,1.7h-0.04v-1.5
		H114.606L114.606,640.84z M136.08,644.54c0-0.98,0.06-2-0.56-2.8c-0.6-0.78-1.6-1.101-2.54-1.101c-1.1,0-2.26,0.58-2.64,1.601
		h-0.04v-4.96h-2.94V651h2.94v-5.48c0-0.6,0-1.239,0.26-1.779c0.24-0.5,0.86-0.76,1.4-0.76c1.28,0,1.18,1.659,1.18,2.539V651h2.94
		V644.54L136.08,644.54z M143.054,640.84h-2.94V651h2.94V640.84L143.054,640.84z M143.054,637.08h-2.94v2.84h2.94V637.08
		L143.054,637.08z M147.137,651h2.94v-13.72h-2.94V651L147.137,651z M158.471,640.64c-3.1,0-4.82,2.301-4.82,5.261
		c0,2.939,1.7,5.3,4.82,5.3c3,0,4.9-2.3,4.9-5.2C163.371,643,161.651,640.64,158.471,640.64L158.471,640.64z M158.491,642.58
		c0.68,0,1.16,0.26,1.4,0.92c0.28,0.76,0.32,1.72,0.32,2.52c0,1.221-0.08,3.221-1.74,3.221c-1.68,0-1.66-2.48-1.66-3.641
		C156.811,644.44,156.911,642.58,158.491,642.58L158.491,642.58z M195.691,644.76v2.2h20v-2.2H195.691L195.691,644.76z
		 M251.571,645.3c0-0.6,0-1.22,0.3-1.76c0.26-0.5,0.74-0.82,1.32-0.82c1.48,0,1.56,2.101,1.56,3.141s-0.06,3.26-1.58,3.26
		c-0.52,0-1.04-0.32-1.32-0.76c-0.34-0.561-0.28-1.42-0.28-2.061V645.3L251.571,645.3z M248.631,640.84v13.58h2.94v-4.54h0.04
		c0.42,0.9,1.34,1.32,2.34,1.32c2.96,0,3.88-2.76,3.88-5.26c0-1.24-0.12-2.461-0.76-3.54c-0.68-1.16-1.64-1.761-3-1.761
		c-1.3,0-2.1,0.58-2.64,1.7h-0.04v-1.5H248.631L248.631,640.84z M269.299,643.3c-0.7-1.899-2-2.66-4-2.66c-2.16,0-4.34,0.9-4.34,3.4
		c0,1.28,0.8,2.32,2,2.74c0.64,0.22,2.32,0.52,3.02,0.6c0.54,0.061,1.141,0.18,1.141,0.86c0,0.76-1.221,0.96-1.78,0.96
		c-0.94,0-2.04-0.32-2.24-1.36l-2.54,0.36c0.54,2.28,2.521,3,4.641,3c1.119,0,2.239-0.2,3.16-0.84
		c0.859-0.62,1.359-1.561,1.359-2.62c0-4.58-6.1-2.42-6.1-4.32c0-0.74,0.92-0.9,1.52-0.9c0.96,0,1.721,0.4,1.98,1.36L269.299,643.3
		L269.299,643.3z M281.237,640.84h-2.2l-1.86,6.04l-1.939-6.04h-3.181l3.7,10.16c-0.26,0.96-0.64,1.26-1.62,1.26l-1.479-0.14v2.3
		l1.439,0.12c2.88,0,3.28-1.88,4.04-4.18L281.237,640.84L281.237,640.84z M292.617,644.54c-0.2-2.38-2.08-3.9-4.44-3.9
		c-3.2,0-5.08,2.261-5.08,5.38c0,3,1.82,5.181,4.9,5.181c2.479,0,4.38-1.5,4.62-4.021l-2.801-0.16
		c-0.1,0.94-0.619,1.761-1.659,1.761c-1.681,0-1.7-1.761-1.7-3c0-1.3,0.2-2.9,1.82-2.9c1.06,0,1.539,0.9,1.539,1.82L292.617,644.54
		L292.617,644.54z M304.54,644.54c0-0.98,0.06-2-0.561-2.8c-0.6-0.78-1.6-1.101-2.54-1.101c-1.1,0-2.26,0.58-2.64,1.601h-0.04v-4.96
		h-2.939V651h2.939v-5.48c0-0.6,0-1.239,0.26-1.779c0.24-0.5,0.86-0.76,1.4-0.76c1.28,0,1.18,1.659,1.18,2.539V651h2.94V644.54
		L304.54,644.54z M312.436,640.64c-3.1,0-4.819,2.301-4.819,5.261c0,2.939,1.7,5.3,4.819,5.3c3,0,4.9-2.3,4.9-5.2
		C317.336,643,315.616,640.64,312.436,640.64L312.436,640.64z M312.456,642.58c0.68,0,1.16,0.26,1.399,0.92
		c0.28,0.76,0.32,1.72,0.32,2.52c0,1.221-0.08,3.221-1.74,3.221c-1.68,0-1.66-2.48-1.66-3.641
		C310.775,644.44,310.876,642.58,312.456,642.58L312.456,642.58z M349.656,644.76v2.2h20v-2.2H349.656L349.656,644.76z M402.536,651
		h2.939v-13.72h-2.939V651L402.536,651z M418.58,651c-0.16-0.5-0.2-1-0.2-1.521v-4.739c0-1.221,0.1-2.34-0.94-3.181
		c-0.819-0.68-2.18-0.92-3.22-0.92c-2.14,0-4.54,0.721-4.84,3.181l2.78,0.26c0-1,0.819-1.48,1.76-1.48c0.439,0,0.939,0.141,1.2,0.48
		c0.3,0.38,0.26,0.899,0.26,1.34v0.24c-1.24,0.12-2.86,0.2-4.021,0.64c-1.34,0.5-2.279,1.521-2.279,3.021
		c0,1.92,1.399,2.88,3.2,2.88c1.52,0,2.399-0.58,3.239-1.78c-0.02,0.521,0.021,1.061,0.141,1.58H418.58L418.58,651z M415.38,646.54
		c0,0.72,0.021,1.32-0.4,1.96c-0.34,0.52-0.88,0.84-1.479,0.84c-0.82,0-1.3-0.54-1.3-1.34c0-1.48,2.06-1.74,3.18-1.86V646.54
		L415.38,646.54z M422.29,640.84V651h2.939v-5.46c0-0.64,0.04-1.22,0.341-1.8c0.239-0.46,0.72-0.76,1.239-0.76
		c1.48,0,1.341,1.52,1.341,2.56V651h2.939v-6.28c0-0.92,0-2.2-0.56-2.96c-0.601-0.819-1.54-1.12-2.5-1.12
		c-1.48,0-2.32,0.62-2.921,1.92h-0.039v-1.72H422.29L422.29,640.84z M439.455,642.26c0.92,0,1.76,0.48,1.76,1.5
		c0,1.04-0.8,1.561-1.76,1.561c-0.98,0-1.62-0.54-1.62-1.54C437.835,642.82,438.515,642.26,439.455,642.26L439.455,642.26z
		 M441.375,651.1c0.42,0.04,1.08,0.16,1.08,0.7c0,1.04-2.04,0.98-2.76,0.98c-0.641,0-1.561-0.021-2.2-0.2
		c-0.42-0.12-0.74-0.34-0.74-0.82c0-0.399,0.28-0.68,0.64-0.819l1.58,0.06L441.375,651.1L441.375,651.1z M439.635,646.94
		c1.94,0,4.521-0.7,4.521-3.101c0-0.859-0.24-1.36-0.801-1.979c0.08-0.62,0.62-0.881,1.181-0.881c0.26,0,0.52,0.061,0.779,0.101
		v-1.9l-0.819-0.08c-1.521,0-2.101,0.44-2.3,1.98c-0.881-0.3-1.78-0.44-2.7-0.44c-1.98,0-4.66,0.721-4.66,3.181
		c0,1.22,0.7,2.06,1.8,2.479c-1.02,0.42-2.04,1-2.04,2.26c0,0.9,0.521,1.44,1.3,1.82c-0.92,0.2-1.76,0.8-1.76,1.84
		c0,2.3,3.62,2.36,5.24,2.36c1.2,0,2.64-0.08,3.74-0.54c1.159-0.48,2.14-1.4,2.14-2.76c0-2.221-2-2.601-3.78-2.7l-1.279-0.061
		c-0.58-0.02-1.66-0.06-2.181-0.199c-0.38-0.12-0.58-0.36-0.58-0.78c0-0.34,0.221-0.58,0.5-0.74L439.635,646.94L439.635,646.94z
		 M456.953,651v-10.16h-2.94v5.46c0,0.521,0.04,1.101-0.16,1.561c-0.26,0.6-0.819,0.979-1.479,0.979c-1.04,0-1.12-0.78-1.12-1.6
		v-6.4h-2.94v6.4c0,0.979-0.06,1.939,0.5,2.819c0.58,0.92,1.46,1.141,2.48,1.141c1.38,0,2.42-0.66,2.9-1.94h0.039V651H456.953
		L456.953,651z M470.017,651c-0.16-0.5-0.2-1-0.2-1.521v-4.739c0-1.221,0.101-2.34-0.939-3.181c-0.82-0.68-2.18-0.92-3.22-0.92
		c-2.141,0-4.54,0.721-4.841,3.181l2.78,0.26c0-1,0.82-1.48,1.76-1.48c0.44,0,0.94,0.141,1.2,0.48c0.3,0.38,0.26,0.899,0.26,1.34
		v0.24c-1.239,0.12-2.859,0.2-4.02,0.64c-1.34,0.5-2.28,1.521-2.28,3.021c0,1.92,1.4,2.88,3.2,2.88c1.521,0,2.4-0.58,3.24-1.78
		c-0.021,0.521,0.02,1.061,0.14,1.58H470.017L470.017,651z M466.816,646.54c0,0.72,0.021,1.32-0.399,1.96
		c-0.34,0.52-0.88,0.84-1.48,0.84c-0.819,0-1.3-0.54-1.3-1.34c0-1.48,2.061-1.74,3.18-1.86V646.54L466.816,646.54z M478.141,642.26
		c0.92,0,1.76,0.48,1.76,1.5c0,1.04-0.8,1.561-1.76,1.561c-0.979,0-1.62-0.54-1.62-1.54
		C476.521,642.82,477.201,642.26,478.141,642.26L478.141,642.26z M480.061,651.1c0.42,0.04,1.08,0.16,1.08,0.7
		c0,1.04-2.04,0.98-2.76,0.98c-0.64,0-1.56-0.021-2.2-0.2c-0.42-0.12-0.739-0.34-0.739-0.82c0-0.399,0.279-0.68,0.64-0.819
		l1.58,0.06L480.061,651.1L480.061,651.1z M478.321,646.94c1.939,0,4.52-0.7,4.52-3.101c0-0.859-0.24-1.36-0.8-1.979
		c0.08-0.62,0.62-0.881,1.18-0.881c0.26,0,0.521,0.061,0.78,0.101v-1.9l-0.82-0.08c-1.52,0-2.1,0.44-2.3,1.98
		c-0.88-0.3-1.78-0.44-2.7-0.44c-1.979,0-4.66,0.721-4.66,3.181c0,1.22,0.7,2.06,1.801,2.479c-1.021,0.42-2.04,1-2.04,2.26
		c0,0.9,0.52,1.44,1.3,1.82c-0.92,0.2-1.76,0.8-1.76,1.84c0,2.3,3.619,2.36,5.239,2.36c1.2,0,2.641-0.08,3.74-0.54
		c1.16-0.48,2.14-1.4,2.14-2.76c0-2.221-2-2.601-3.779-2.7l-1.28-0.061c-0.58-0.02-1.66-0.06-2.18-0.199
		c-0.38-0.12-0.58-0.36-0.58-0.78c0-0.34,0.22-0.58,0.5-0.74L478.321,646.94L478.321,646.94z M495.463,646.42
		c0.02-1.38-0.2-2.82-1.04-3.979c-0.84-1.16-2.3-1.801-3.72-1.801c-3.16,0-4.94,2.42-4.94,5.42c0,3.021,1.98,5.141,5.021,5.141
		c3.439,0,4.62-3,4.62-3.5l-2.721-0.2c0,0.94-0.899,1.6-1.8,1.6c-1.28,0-1.96-0.979-1.96-2.18l0.021-0.5H495.463L495.463,646.42z
		 M488.923,644.68c0.1-1.16,0.6-2.12,1.9-2.12c1.279,0,1.64,1.021,1.699,2.12H488.923L488.923,644.68z"/>
	<path d="M72.046,70.84V81h2.94v-3.88c0-1.8,0.28-3.62,2.52-3.5v-2.94l-0.5-0.04c-1.28-0.1-1.88,1.02-2.18,2.1h-0.04v-1.9H72.046
		L72.046,70.84z M89.222,76.42c0.02-1.38-0.2-2.82-1.04-3.98c-0.84-1.16-2.3-1.8-3.72-1.8c-3.16,0-4.94,2.42-4.94,5.42
		c0,3.02,1.98,5.14,5.02,5.14c3.44,0,4.62-3,4.62-3.5l-2.72-0.2c0,0.94-0.9,1.6-1.8,1.6c-1.28,0-1.96-0.98-1.96-2.18l0.02-0.5
		H89.222L89.222,76.42z M82.683,74.68c0.1-1.16,0.6-2.12,1.9-2.12c1.28,0,1.64,1.02,1.7,2.12H82.683L82.683,74.68z M100.922,81
		c-0.16-0.5-0.2-1-0.2-1.52v-4.74c0-1.22,0.1-2.34-0.939-3.18c-0.82-0.68-2.18-0.92-3.22-0.92c-2.14,0-4.54,0.72-4.84,3.18
		l2.78,0.26c0-1,0.82-1.48,1.76-1.48c0.44,0,0.94,0.14,1.2,0.48c0.3,0.38,0.26,0.9,0.26,1.34v0.24c-1.24,0.12-2.86,0.2-4.02,0.64
		c-1.34,0.5-2.28,1.52-2.28,3.02c0,1.92,1.4,2.88,3.2,2.88c1.52,0,2.4-0.58,3.24-1.78c-0.02,0.52,0.02,1.06,0.14,1.58H100.922
		L100.922,81z M97.722,76.54c0,0.72,0.02,1.32-0.4,1.96c-0.34,0.52-0.88,0.84-1.48,0.84c-0.82,0-1.3-0.54-1.3-1.34
		c0-1.48,2.06-1.74,3.18-1.86V76.54L97.722,76.54z M103.253,69.571l2.227-1.189v4.514h-2.426v1.444h6.47v-1.444h-2.215v-6.553
		h-1.352c-0.594,0.885-1.702,1.293-2.704,1.597V69.571L103.253,69.571z M120.001,81V67.28h-2.94v4.64c-0.64-0.94-1.4-1.28-2.54-1.28
		c-2.96,0-3.72,2.98-3.72,5.4c0,2.36,0.8,5.16,3.66,5.16c1.3,0,2.14-0.7,2.7-1.78h0.04V81H120.001L120.001,81z M117.061,76.76
		c0,0.5-0.02,1.04-0.26,1.5c-0.24,0.46-0.74,0.82-1.28,0.82c-1.46,0-1.62-1.86-1.62-2.96c0-1.22,0.06-3.42,1.74-3.42
		c1.34,0,1.42,1.68,1.42,2.66V76.76L117.061,76.76z M174.298,75.28c0-1.08,0.2-2.62,1.62-2.62c1.62,0,1.62,2.12,1.62,3.26
		c0,1.1,0,3.22-1.66,3.22c-0.54,0-0.96-0.26-1.24-0.7c-0.32-0.5-0.34-1.14-0.34-1.7V75.28L174.298,75.28z M171.318,81h1.6
		c0.18-0.54,0.3-1.12,0.66-1.56c0.74,1.22,1.44,1.76,2.9,1.76c3.06,0,4.12-2.62,4.12-5.28c0-2.4-0.88-5.28-3.78-5.28
		c-1.14,0-1.98,0.48-2.48,1.48h-0.08v-4.84h-2.94V81L171.318,81z M192.198,76.42c0.02-1.38-0.2-2.82-1.04-3.98
		c-0.84-1.16-2.3-1.8-3.72-1.8c-3.16,0-4.94,2.42-4.94,5.42c0,3.02,1.98,5.14,5.02,5.14c3.44,0,4.62-3,4.62-3.5l-2.72-0.2
		c0,0.94-0.9,1.6-1.8,1.6c-1.28,0-1.96-0.98-1.96-2.18l0.02-0.5H192.198L192.198,76.42z M185.658,74.68c0.1-1.16,0.6-2.12,1.9-2.12
		c1.28,0,1.64,1.02,1.7,2.12H185.658L185.658,74.68z M195.558,73.16v4.48c0,1,0,2.22,0.82,2.9c0.66,0.54,1.78,0.66,2.62,0.66
		c0.54,0,1.08-0.1,1.64-0.18l0.2-0.04v-2.22l-0.92,0.04c-1.42,0.06-1.42-0.42-1.42-1.6v-4.04h2.18v-2.34h-2.18v-3.18l-2.56,0.2
		l-0.26,2.98h-1.78v2.34H195.558L195.558,73.16z M208.996,72.743h-3.834l0.256-0.151c0.781-0.479,1.574-0.968,2.262-1.563
		c0.745-0.642,1.2-1.306,1.2-2.321c0-0.758-0.327-1.411-0.921-1.877c-0.594-0.478-1.223-0.605-1.981-0.605
		c-1.749,0-2.787,0.943-3.125,2.634l1.656,0.373c0.081-0.816,0.454-1.54,1.376-1.54c0.606,0,1.084,0.432,1.084,1.05
		c0,0.782-0.606,1.306-1.143,1.785l-2.378,1.819l-0.595,0.443v1.549h6.003L208.996,72.743L208.996,72.743z M224.636,70.84h-2.32
		l-1.7,6.24h-0.04l-1.46-6.24h-2.7l-1.54,6.22h-0.04l-1.62-6.22h-3.14l3.14,10.16h2.52l1.58-6.52h0.04l1.58,6.52h2.64L224.636,70.84
		L224.636,70.84z M235.576,76.42c0.02-1.38-0.2-2.82-1.04-3.98c-0.84-1.16-2.3-1.8-3.72-1.8c-3.16,0-4.94,2.42-4.94,5.42
		c0,3.02,1.98,5.14,5.02,5.14c3.44,0,4.62-3,4.62-3.5l-2.72-0.2c0,0.94-0.9,1.6-1.8,1.6c-1.28,0-1.96-0.98-1.96-2.18l0.02-0.5
		H235.576L235.576,76.42z M229.036,74.68c0.1-1.16,0.6-2.12,1.9-2.12c1.28,0,1.64,1.02,1.7,2.12H229.036L229.036,74.68z
		 M247.376,76.42c0.02-1.38-0.2-2.82-1.04-3.98s-2.3-1.8-3.72-1.8c-3.16,0-4.94,2.42-4.94,5.42c0,3.02,1.98,5.14,5.02,5.14
		c3.44,0,4.62-3,4.62-3.5l-2.72-0.2c0,0.94-0.9,1.6-1.8,1.6c-1.28,0-1.96-0.98-1.96-2.18l0.02-0.5H247.376L247.376,76.42z
		 M240.836,74.68c0.1-1.16,0.6-2.12,1.9-2.12c1.28,0,1.64,1.02,1.7,2.12H240.836L240.836,74.68z M249.976,70.84V81h2.94v-5.46
		c0-0.64,0.04-1.22,0.34-1.8c0.24-0.46,0.72-0.76,1.24-0.76c1.48,0,1.34,1.52,1.34,2.56V81h2.94v-6.28c0-0.92,0-2.2-0.56-2.96
		c-0.6-0.82-1.54-1.12-2.5-1.12c-1.48,0-2.32,0.62-2.92,1.92h-0.04v-1.72H249.976L249.976,70.84z M310.732,73.16v4.48
		c0,1,0,2.22,0.82,2.9c0.66,0.54,1.78,0.66,2.62,0.66c0.54,0,1.08-0.1,1.64-0.18l0.2-0.04v-2.22l-0.92,0.04
		c-1.42,0.06-1.42-0.42-1.42-1.6v-4.04h2.18v-2.34h-2.18v-3.18l-2.56,0.2l-0.261,2.98h-1.779v2.34H310.732L310.732,73.16z
		 M324.066,66.342h-5.596l-0.14,1.654h4.057c-0.863,0.805-1.48,1.854-1.959,2.928c-0.478,1.084-0.769,2.239-0.746,3.416h2.146
		l-0.023-0.593c0-0.98,0.269-2.426,0.664-3.336c0.408-0.944,0.921-1.877,1.598-2.647V66.342L324.066,66.342z M334.911,74.54
		c0-0.98,0.06-2-0.561-2.8c-0.6-0.78-1.6-1.1-2.54-1.1c-1.1,0-2.26,0.58-2.64,1.6h-0.04v-4.96h-2.939V81h2.939v-5.48
		c0-0.6,0-1.24,0.26-1.78c0.24-0.5,0.86-0.76,1.4-0.76c1.28,0,1.18,1.66,1.18,2.54V81h2.94V74.54L334.911,74.54z M339.307,69.514
		v1.397h0.373c0.351,0,0.945-0.035,1.271,0.082c0.408,0.152,0.606,0.548,0.606,0.969c0,0.711-0.595,1.062-1.235,1.062
		c-0.793,0-1.307-0.478-1.436-1.249l-1.702,0.245c0.117,0.747,0.49,1.365,1.085,1.819c0.629,0.489,1.317,0.618,2.099,0.618
		c0.77,0,1.516-0.128,2.145-0.583c0.606-0.419,0.944-1.083,0.944-1.819c0-1.027-0.653-1.691-1.608-1.889v-0.023
		c0.805-0.233,1.375-0.862,1.375-1.738c0-1.562-1.503-2.179-2.855-2.179c-1.388,0-2.612,0.733-2.938,2.133l1.656,0.269
		c0.14-0.619,0.536-1.039,1.201-1.039c0.279,0,0.57,0.07,0.781,0.269c0.186,0.175,0.325,0.432,0.325,0.7
		c0,0.303-0.163,0.606-0.407,0.782c-0.257,0.175-0.664,0.175-0.968,0.175H339.307L339.307,69.514z M354.729,76.42
		c0.021-1.38-0.199-2.82-1.04-3.98c-0.84-1.16-2.3-1.8-3.72-1.8c-3.16,0-4.939,2.42-4.939,5.42c0,3.02,1.979,5.14,5.02,5.14
		c3.44,0,4.62-3,4.62-3.5l-2.72-0.2c0,0.94-0.9,1.6-1.8,1.6c-1.28,0-1.961-0.98-1.961-2.18l0.021-0.5H354.729L354.729,76.42z
		 M348.189,74.68c0.101-1.16,0.601-2.12,1.9-2.12c1.28,0,1.64,1.02,1.7,2.12H348.189L348.189,74.68z M357.998,71.146l2.191-3.371
		v3.371H357.998L357.998,71.146z M361.949,71.146v-4.804h-2.133l-3.229,4.804v1.363h3.498v1.831h1.864v-1.831h1.119v-1.363H361.949
		L361.949,71.146z M372.849,73.3c-0.7-1.9-2-2.66-4-2.66c-2.16,0-4.34,0.9-4.34,3.4c0,1.28,0.8,2.32,2,2.74
		c0.64,0.22,2.32,0.52,3.021,0.6c0.539,0.06,1.14,0.18,1.14,0.86c0,0.76-1.22,0.96-1.78,0.96c-0.939,0-2.04-0.32-2.24-1.36
		l-2.539,0.36c0.539,2.28,2.52,3,4.64,3c1.12,0,2.24-0.2,3.16-0.84c0.859-0.62,1.359-1.56,1.359-2.62c0-4.58-6.1-2.42-6.1-4.32
		c0-0.74,0.92-0.9,1.52-0.9c0.96,0,1.721,0.4,1.98,1.36L372.849,73.3L372.849,73.3z M381.38,68.358
		c-0.292-1.376-1.375-2.133-2.763-2.133c-1.144,0-1.972,0.396-2.601,1.362c-0.489,0.759-0.711,1.891-0.711,2.787
		c0,2.123,0.886,4.081,3.288,4.081c0.793,0,1.516-0.222,2.086-0.769c0.501-0.5,0.816-1.212,0.816-1.913
		c0-1.446-1.153-2.459-2.553-2.459c-0.688,0-1.435,0.279-1.75,0.92h-0.023v-0.268c0-0.956,0.199-2.402,1.447-2.402
		c0.699,0,1.05,0.606,1.154,1.225L381.38,68.358L381.38,68.358z M378.465,73.128c-0.747,0-1.213-0.56-1.213-1.283
		c0-0.665,0.536-1.237,1.213-1.237c0.689,0,1.19,0.525,1.19,1.202C379.655,72.533,379.234,73.128,378.465,73.128L378.465,73.128z
		 M392.688,76.42c0.021-1.38-0.199-2.82-1.04-3.98c-0.84-1.16-2.3-1.8-3.72-1.8c-3.16,0-4.939,2.42-4.939,5.42
		c0,3.02,1.979,5.14,5.02,5.14c3.44,0,4.62-3,4.62-3.5l-2.72-0.2c0,0.94-0.9,1.6-1.801,1.6c-1.279,0-1.96-0.98-1.96-2.18l0.021-0.5
		H392.688L392.688,76.42z M386.147,74.68c0.101-1.16,0.601-2.12,1.9-2.12c1.28,0,1.64,1.02,1.7,2.12H386.147L386.147,74.68z
		 M443.585,81h2.939V67.28h-2.939V81L443.585,81z M452.724,70.84h-2.939V81h2.939V70.84L452.724,70.84z M452.724,67.08h-2.939v2.84
		h2.939V67.08L452.724,67.08z M461.052,67.984l0.198-1.643h-5.036l-0.315,4.535l1.527,0.256c0.209-0.385,0.711-0.618,1.131-0.618
		c0.725,0,1.284,0.537,1.284,1.26c0,0.723-0.572,1.202-1.284,1.202c-0.688,0-1.201-0.362-1.341-1.05l-1.748,0.257
		c0.351,1.574,1.62,2.273,3.147,2.273c0.841,0,1.68-0.198,2.297-0.792c0.536-0.524,0.804-1.259,0.804-2.005
		s-0.209-1.353-0.745-1.877c-0.501-0.466-1.13-0.711-1.818-0.711c-0.665,0-1.261,0.187-1.727,0.688l0.128-1.773H461.052
		L461.052,67.984z M463.463,70.84V81h2.94v-5.46c0-0.64,0.04-1.22,0.34-1.8c0.239-0.46,0.72-0.76,1.239-0.76
		c1.48,0,1.341,1.52,1.341,2.56V81h2.939v-6.28c0-0.92,0-2.2-0.56-2.96c-0.601-0.82-1.54-1.12-2.5-1.12c-1.48,0-2.32,0.62-2.92,1.92
		h-0.04v-1.72H463.463L463.463,70.84z M484.463,76.42c0.02-1.38-0.2-2.82-1.04-3.98s-2.3-1.8-3.72-1.8c-3.16,0-4.94,2.42-4.94,5.42
		c0,3.02,1.98,5.14,5.021,5.14c3.439,0,4.62-3,4.62-3.5l-2.721-0.2c0,0.94-0.899,1.6-1.8,1.6c-1.28,0-1.96-0.98-1.96-2.18l0.021-0.5
		H484.463L484.463,76.42z M477.923,74.68c0.1-1.16,0.6-2.12,1.9-2.12c1.279,0,1.64,1.02,1.699,2.12H477.923L477.923,74.68z
		 M495.003,73.3c-0.7-1.9-2-2.66-4-2.66c-2.16,0-4.34,0.9-4.34,3.4c0,1.28,0.8,2.32,2,2.74c0.64,0.22,2.319,0.52,3.02,0.6
		c0.54,0.06,1.141,0.18,1.141,0.86c0,0.76-1.221,0.96-1.78,0.96c-0.94,0-2.04-0.32-2.24-1.36l-2.54,0.36c0.54,2.28,2.521,3,4.641,3
		c1.119,0,2.239-0.2,3.159-0.84c0.86-0.62,1.36-1.56,1.36-2.62c0-4.58-6.1-2.42-6.1-4.32c0-0.74,0.92-0.9,1.52-0.9
		c0.96,0,1.72,0.4,1.98,1.36L495.003,73.3L495.003,73.3z"/>
	<polygon points="309.023,83.323 309.023,84.619 317.592,84.619 317.592,83.323 309.023,83.323 	"/>
	<polygon points="325.224,83.323 325.224,84.619 336.375,84.619 336.375,83.323 325.224,83.323 	"/>
	<polygon points="344.664,83.323 344.664,84.619 355.814,84.619 355.814,83.323 344.664,83.323 	"/>
	<polygon points="363.816,83.323 363.816,84.619 373.968,84.619 373.968,83.323 363.816,83.323 	"/>
	<polygon points="448.92,83.323 448.92,84.619 453.816,84.619 453.816,83.323 448.92,83.323 	"/>
	<polygon points="486.288,83.323 486.288,84.619 495.504,84.619 495.504,83.323 486.288,83.323 	"/>
</g>
</svg>
