<?xml version="1.0" encoding="iso-8859-1"?>
<!-- Generator: Adobe Illustrator 16.0.0, SVG Export Plug-In . SVG Version: 6.00 Build 0)  -->
<!DOCTYPE svg PUBLIC "-//W3C//DTD SVG 1.1//EN" "http://www.w3.org/Graphics/SVG/1.1/DTD/svg11.dtd">
<svg version="1.1" id="Layer_1" xmlns="http://www.w3.org/2000/svg" xmlns:xlink="http://www.w3.org/1999/xlink" x="0px" y="0px"
	 width="524.409px" height="708px" viewBox="0 0 524.409 708" style="enable-background:new 0 0 524.409 708;" xml:space="preserve"
	>
<g>
	<g>
		<defs>
			<rect id="SVGID_1_" width="524.409" height="708.661"/>
		</defs>
		<clipPath id="SVGID_2_">
			<use xlink:href="#SVGID_1_"  style="overflow:visible;"/>
		</clipPath>
		<polygon style="clip-path:url(#SVGID_2_);fill:#FFFFFF;" points="0,-0.331 0,708.331 524.409,708.331 524.409,-0.331 0,-0.331 		
			"/>
		<polygon style="clip-path:url(#SVGID_2_);fill:#FFFFFF;" points="-481.89,0 -481.89,708 42.52,708 42.52,0 -481.89,0 		"/>
	</g>
	<polygon style="fill:#FFFFFF;" points="0,0 0,708 524.409,708 524.409,0 0,0 	"/>
	<path d="M180.617,433.847v7.152h2.714v-4.297c0-0.533,0.056-1.023,0.715-1.023c0.603,0,0.631,0.574,0.631,1.022v4.298h2.714v-3.975
		c0-0.575-0.028-1.304,0.757-1.304c0.645,0,0.589,0.519,0.589,0.98v4.298h2.714v-4.69c0-0.756,0-1.455-0.518-1.986
		c-0.419-0.435-1.062-0.615-1.664-0.615c-0.939,0-1.654,0.306-2.144,1.104c-0.433-0.77-1.133-1.104-2.014-1.104
		c-0.841,0-1.556,0.376-1.948,1.104h-0.028v-0.964H180.617L180.617,433.847z M201.08,440.999v-7.152h-2.77v4.115
		c0,0.266-0.014,0.519-0.14,0.756c-0.126,0.252-0.393,0.406-0.673,0.406c-0.631,0-0.617-0.49-0.617-0.952v-4.325h-2.77v4.941
		c0,0.673,0.056,1.303,0.56,1.807c0.433,0.405,1.007,0.544,1.595,0.544c0.923,0,1.876-0.39,2.171-1.313h0.028v1.174H201.08
		L201.08,440.999z M206.721,431.396h-2.771v9.603h2.771V431.396L206.721,431.396z M209.937,435.665v2.703
		c0,0.77-0.014,1.457,0.531,2.045c0.546,0.587,1.259,0.824,2.001,0.726l1.638-0.209v-2.002c-0.266,0.07-0.532,0.126-0.798,0.126
		c-0.658,0-0.602-0.405-0.602-0.924v-2.465h1.4v-1.818h-1.428v-2.366l-2.407,0.085l-0.209,2.281h-1.162v1.818H209.937
		L209.937,435.665z M219.425,433.847h-2.77v7.152h2.77V433.847L219.425,433.847z M219.425,431.257h-2.77v1.902h2.77V431.257
		L219.425,431.257z M224.968,436.506c0-0.28-0.014-0.504,0.168-0.728c0.154-0.184,0.378-0.295,0.616-0.295
		c0.882,0,0.868,1.413,0.868,2.002c0,0.405-0.028,0.909-0.14,1.302c-0.112,0.378-0.364,0.588-0.756,0.588
		c-0.672,0-0.756-0.658-0.756-1.162V436.506L224.968,436.506z M222.184,433.847v9.406h2.771v-3.022
		c0.434,0.631,1.106,0.908,1.848,0.908c0.994,0,1.736-0.529,2.198-1.384c0.378-0.701,0.504-1.611,0.504-2.409
		c0-1.681-0.672-3.639-2.688-3.639c-0.952,0-1.736,0.294-2.03,1.161h-0.028v-1.021H222.184L222.184,433.847z M234.702,431.396h-2.77
		v9.603h2.77V431.396L234.702,431.396z M242.224,438.438c-0.112,0.617-0.462,0.869-1.091,0.869c-0.84,0-1.12-0.561-1.078-1.332
		h4.787v-0.377c0-2.353-1.456-3.891-3.835-3.891c-1.022,0-2.114,0.349-2.842,1.104c-0.672,0.686-1.049,1.737-1.049,2.702
		c0,1.022,0.405,2.003,1.175,2.688c0.812,0.713,1.834,0.937,2.884,0.937c1.693,0,3.233-0.797,3.667-2.533L242.224,438.438
		L242.224,438.438z M240.041,436.577c-0.028-0.659,0.266-1.234,0.994-1.234c0.783,0,1.007,0.533,1.007,1.234H240.041
		L240.041,436.577z M252.347,438.215c0.518,2.085,2.31,2.924,4.325,2.924c1.988,0,4.284-0.923,4.284-3.231
		c0-1.052-0.49-1.947-1.428-2.451c-0.84-0.435-1.806-0.588-2.716-0.771c-0.364-0.084-1.063-0.183-1.063-0.687
		s0.559-0.616,0.951-0.616c0.742,0,1.274,0.252,1.554,0.966l2.436-0.741c-0.588-1.665-2.198-2.351-3.864-2.351
		c-0.951,0-1.973,0.183-2.757,0.728c-0.77,0.546-1.232,1.469-1.232,2.406c0,2.283,2.142,2.773,3.947,3.123
		c0.434,0.084,1.176,0.197,1.176,0.785c0,0.532-0.756,0.588-1.134,0.588c-0.853,0-1.497-0.308-1.749-1.163L252.347,438.215
		L252.347,438.215z M266.958,433.707c-2.24,0-3.934,1.482-3.934,3.779c0,2.171,1.749,3.652,3.934,3.652
		c2.184,0,3.933-1.481,3.933-3.652C270.891,435.189,269.198,433.707,266.958,433.707L266.958,433.707z M266.958,435.455
		c0.953,0,0.967,1.247,0.967,1.933c0,1.919-0.463,2.06-0.967,2.06s-0.967-0.141-0.967-2.06
		C265.991,436.702,266.005,435.455,266.958,435.455L266.958,435.455z M280.145,440.999v-7.152h-2.77v4.115
		c0,0.266-0.014,0.519-0.141,0.756c-0.127,0.252-0.393,0.406-0.673,0.406c-0.631,0-0.616-0.49-0.616-0.952v-4.325h-2.771v4.941
		c0,0.673,0.056,1.303,0.56,1.807c0.434,0.405,1.008,0.544,1.595,0.544c0.924,0,1.877-0.39,2.172-1.313h0.028v1.174H280.145
		L280.145,440.999z M285.307,435.315v-1.469h-2.365v7.152h2.771v-3.107c0-0.42,0-0.882,0.196-1.231
		c0.224-0.406,0.686-0.49,1.134-0.49c0.182,0,0.364,0.028,0.532,0.07v-2.505l-0.378-0.028c-1.106-0.084-1.624,0.614-1.862,1.608
		H285.307L285.307,435.315z M294.076,438.116c-0.07,0.519-0.294,1.064-0.896,1.064c-0.91,0-0.924-1.093-0.924-1.765
		c0-0.63,0-1.793,0.882-1.793c0.616,0,0.729,0.56,0.826,1.051l0.014,0.07l2.45-0.21c-0.21-1.792-1.609-2.827-3.374-2.827
		c-2.197,0-3.68,1.58-3.68,3.737c0,1.022,0.336,1.988,1.062,2.716c0.757,0.741,1.596,0.979,2.632,0.979
		c1.819,0,3.136-0.979,3.388-2.827L294.076,438.116L294.076,438.116z M303.476,438.438c-0.111,0.617-0.462,0.869-1.092,0.869
		c-0.839,0-1.119-0.561-1.077-1.332h4.787v-0.377c0-2.353-1.456-3.891-3.836-3.891c-1.021,0-2.113,0.349-2.841,1.104
		c-0.672,0.686-1.05,1.737-1.05,2.702c0,1.022,0.405,2.003,1.176,2.688c0.812,0.713,1.834,0.937,2.883,0.937
		c1.694,0,3.234-0.797,3.668-2.533L303.476,438.438L303.476,438.438z M301.293,436.577c-0.028-0.659,0.266-1.234,0.993-1.234
		c0.784,0,1.008,0.533,1.008,1.234H301.293L301.293,436.577z M307.991,438.971c0.531,1.651,2.001,2.168,3.597,2.168
		c1.61,0,3.695-0.559,3.695-2.531c0-0.771-0.351-1.401-1.008-1.821c-0.574-0.351-1.302-0.448-1.945-0.532
		c-0.336-0.043-0.896-0.085-1.204-0.169c-0.183-0.042-0.42-0.14-0.42-0.364c0-0.308,0.672-0.378,0.896-0.378
		c0.49,0,1.036,0.141,1.246,0.63l2.113-0.405c-0.477-1.344-1.889-1.86-3.233-1.86c-0.798,0-1.596,0.112-2.295,0.545
		c-0.672,0.42-1.105,1.063-1.105,1.875c0,1.905,1.776,2.199,3.274,2.409c0.252,0.028,1.204,0.099,1.204,0.463
		c0,0.42-0.784,0.448-1.063,0.448c-0.603,0-1.372-0.084-1.526-0.771L307.991,438.971L307.991,438.971z"/>
	<path d="M187.881,386.999c-0.21-0.502-0.224-1.034-0.224-1.567v-2.506c0-1.022,0.112-1.945-0.825-2.604
		c-0.7-0.503-1.777-0.615-2.617-0.615c-1.61,0-3.304,0.461-3.724,2.238l2.548,0.237c0.084-0.602,0.546-0.798,1.092-0.798
		c0.672,0,0.84,0.252,0.84,0.896v0.056c-0.938,0.056-1.904,0.168-2.814,0.449c-0.994,0.308-1.876,1.063-1.876,2.198
		c0,1.429,1.162,2.154,2.492,2.154c0.98,0,1.778-0.306,2.338-1.132c0,0.336,0.028,0.672,0.098,0.992H187.881L187.881,386.999z
		 M184.971,383.795c0,0.784-0.014,1.666-1.064,1.666c-0.434,0-0.728-0.196-0.728-0.658c0-0.868,1.12-1.078,1.792-1.147V383.795
		L184.971,383.795z M201.153,383.332c-0.042,0.799-0.392,1.597-1.302,1.597c-1.33,0-1.386-1.639-1.386-2.604
		c0-0.91,0.056-2.913,1.358-2.913c0.994,0,1.302,1.021,1.274,1.835l2.744-0.141c-0.196-2.394-1.596-3.849-4.046-3.849
		c-3.023,0-4.352,2.294-4.352,5.067c0,2.73,1.511,4.814,4.394,4.814c2.212,0,3.822-1.427,4.004-3.639L201.153,383.332
		L201.153,383.332z M209.871,379.707c-2.24,0-3.933,1.482-3.933,3.779c0,2.171,1.749,3.652,3.933,3.652
		c2.184,0,3.933-1.481,3.933-3.652C213.804,381.189,212.111,379.707,209.871,379.707L209.871,379.707z M209.871,381.455
		c0.953,0,0.967,1.247,0.967,1.933c0,1.919-0.462,2.06-0.967,2.06c-0.504,0-0.967-0.141-0.967-2.06
		C208.904,382.702,208.918,381.455,209.871,381.455L209.871,381.455z M216.113,379.847v7.152h2.77v-4.129
		c0-0.589,0.071-1.247,0.841-1.247c0.603,0,0.603,0.602,0.603,1.036v4.34h2.77v-4.41c0-0.742,0-1.553-0.447-2.141
		c-0.42-0.546-1.189-0.741-1.861-0.741c-0.868,0-1.695,0.334-2.032,1.146h-0.028v-1.006H216.113L216.113,379.847z M230.115,384.116
		c-0.07,0.519-0.294,1.064-0.896,1.064c-0.91,0-0.924-1.093-0.924-1.765c0-0.63,0-1.793,0.882-1.793c0.616,0,0.728,0.56,0.826,1.051
		l0.014,0.07l2.45-0.21c-0.21-1.792-1.61-2.827-3.374-2.827c-2.197,0-3.68,1.58-3.68,3.737c0,1.022,0.336,1.988,1.064,2.716
		c0.755,0.741,1.595,0.979,2.63,0.979c1.82,0,3.136-0.979,3.388-2.827L230.115,384.116L230.115,384.116z M237.596,377.396h-2.771
		v9.603h2.771V377.396L237.596,377.396z M247.279,386.999v-7.152h-2.77v4.115c0,0.266-0.014,0.519-0.14,0.756
		c-0.126,0.252-0.394,0.406-0.673,0.406c-0.631,0-0.617-0.49-0.617-0.952v-4.325h-2.771v4.941c0,0.673,0.056,1.303,0.561,1.807
		c0.433,0.405,1.007,0.544,1.595,0.544c0.924,0,1.877-0.39,2.171-1.313h0.028v1.174H247.279L247.279,386.999z M249.64,384.971
		c0.532,1.651,2.001,2.168,3.597,2.168c1.61,0,3.695-0.559,3.695-2.531c0-0.771-0.35-1.401-1.008-1.821
		c-0.574-0.351-1.301-0.448-1.945-0.532c-0.336-0.043-0.896-0.085-1.204-0.169c-0.182-0.042-0.42-0.14-0.42-0.364
		c0-0.308,0.672-0.378,0.896-0.378c0.49,0,1.036,0.141,1.246,0.63l2.113-0.405c-0.476-1.344-1.889-1.86-3.233-1.86
		c-0.798,0-1.596,0.112-2.296,0.545c-0.671,0.42-1.105,1.063-1.105,1.875c0,1.905,1.777,2.199,3.275,2.409
		c0.252,0.028,1.204,0.099,1.204,0.463c0,0.42-0.784,0.448-1.064,0.448c-0.602,0-1.372-0.084-1.526-0.771L249.64,384.971
		L249.64,384.971z M261.971,379.847H259.2v7.152h2.771V379.847L261.971,379.847z M261.971,377.257H259.2v1.902h2.771V377.257
		L261.971,377.257z M268.318,379.707c-2.241,0-3.935,1.482-3.935,3.779c0,2.171,1.749,3.652,3.935,3.652
		c2.184,0,3.933-1.481,3.933-3.652C272.251,381.189,270.558,379.707,268.318,379.707L268.318,379.707z M268.318,381.455
		c0.951,0,0.966,1.247,0.966,1.933c0,1.919-0.462,2.06-0.966,2.06c-0.506,0-0.968-0.141-0.968-2.06
		C267.351,382.702,267.365,381.455,268.318,381.455L268.318,381.455z M274.559,379.847v7.152h2.771v-4.129
		c0-0.589,0.069-1.247,0.841-1.247c0.602,0,0.602,0.602,0.602,1.036v4.34h2.771v-4.41c0-0.742,0-1.553-0.448-2.141
		c-0.42-0.546-1.188-0.741-1.861-0.741c-0.867,0-1.694,0.334-2.03,1.146h-0.028v-1.006H274.559L274.559,379.847z"/>
	<path d="M211.887,323.573h-1.606l-0.28,1.668h1.606L211.887,323.573L211.887,323.573z M211.47,326.048h-1.606L208.702,333h1.606
		L211.47,326.048L211.47,326.048z M216.667,323.669h-1.607L213.502,333h1.606L216.667,323.669L216.667,323.669z M221.46,323.669
		h-1.607L218.295,333h1.606L221.46,323.669L221.46,323.669z M227.793,330.676c-0.374,0.861-0.921,1.292-1.641,1.292
		c-0.464,0-0.823-0.16-1.076-0.479c-0.253-0.319-0.38-0.74-0.38-1.264c0-0.151,0.016-0.324,0.048-0.52h4.779
		c0.013-0.196,0.02-0.378,0.02-0.547c0-1.016-0.238-1.818-0.714-2.406c-0.477-0.588-1.179-0.882-2.109-0.882
		c-1.035,0-1.881,0.408-2.54,1.224c-0.658,0.816-0.987,1.816-0.987,3.001c0,0.929,0.26,1.675,0.782,2.235
		c0.522,0.561,1.239,0.841,2.15,0.841c1.385,0,2.397-0.711,3.035-2.133L227.793,330.676L227.793,330.676z M224.908,328.714
		c0.269-1.176,0.875-1.764,1.819-1.764c0.911,0,1.367,0.588,1.367,1.764H224.908L224.908,328.714z M231.449,332.962
		c-0.192,0.217-0.287,0.512-0.287,0.886c0,1.089,1.023,1.633,3.069,1.633c1.385,0,2.355-0.235,2.909-0.707
		c0.553-0.472,0.83-0.995,0.83-1.569c0-0.337-0.106-0.653-0.318-0.947s-0.506-0.508-0.882-0.642
		c-0.375-0.135-0.967-0.202-1.773-0.202h-0.828c-0.451,0-0.749-0.056-0.895-0.167c-0.146-0.112-0.219-0.266-0.219-0.462
		c0-0.355,0.207-0.638,0.622-0.847c0.501,0.132,0.953,0.198,1.354,0.198c0.948,0,1.677-0.212,2.187-0.636
		c0.511-0.424,0.766-0.962,0.766-1.613c0-0.748-0.356-1.299-1.067-1.655c0.133-0.364,0.319-0.587,0.561-0.669
		c0.241-0.083,0.485-0.124,0.731-0.124c0.096,0,0.267,0.012,0.513,0.035l0.014-1.19c-0.173-0.023-0.328-0.034-0.465-0.034
		c-0.501,0-0.912,0.119-1.231,0.355c-0.319,0.237-0.59,0.695-0.813,1.374c-0.232-0.068-0.52-0.102-0.861-0.102
		c-0.971,0-1.731,0.201-2.28,0.602s-0.824,0.957-0.824,1.667c0,0.575,0.262,1.051,0.786,1.429c-0.551,0.274-0.917,0.539-1.097,0.797
		c-0.18,0.257-0.27,0.557-0.27,0.899c0,0.446,0.196,0.804,0.588,1.073C231.914,332.54,231.64,332.746,231.449,332.962
		L231.449,332.962z M233.862,328.167c0-0.392,0.127-0.708,0.383-0.947c0.255-0.239,0.605-0.359,1.052-0.359
		c0.752,0,1.128,0.344,1.128,1.033c0,0.405-0.123,0.728-0.369,0.967c-0.246,0.239-0.59,0.359-1.032,0.359
		C234.249,329.22,233.862,328.869,233.862,328.167L233.862,328.167L233.862,328.167z M234.621,332.815c0.838,0,1.36,0.034,1.565,0.1
		c0.205,0.066,0.308,0.235,0.308,0.509c0,0.702-0.654,1.053-1.962,1.053c-0.675,0-1.181-0.1-1.518-0.298
		c-0.337-0.198-0.506-0.45-0.506-0.755c0-0.242,0.151-0.486,0.451-0.732C233.192,332.774,233.746,332.815,234.621,332.815
		L234.621,332.815L234.621,332.815z M243.44,323.573h-1.606l-0.281,1.668h1.607L243.44,323.573L243.44,323.573z M243.023,326.048
		h-1.606L240.254,333h1.607L243.023,326.048L243.023,326.048z M246.415,331.817c0.41,0.875,1.091,1.313,2.044,1.313
		c1.016,0,1.812-0.487,2.389-1.46c0.576-0.973,0.864-1.999,0.864-3.079c0-0.83-0.185-1.506-0.557-2.03
		c-0.371-0.524-0.869-0.787-1.493-0.787c-0.816,0-1.521,0.488-2.113,1.463l0.595-3.568h-1.531L245.054,333h0.704L246.415,331.817
		L246.415,331.817z M247.481,331.452c-0.264-0.258-0.396-0.612-0.396-1.063c0-0.784,0.185-1.534,0.557-2.249
		c0.371-0.716,0.844-1.074,1.418-1.074c0.734,0,1.101,0.525,1.101,1.573c0,0.729-0.158,1.444-0.472,2.146
		c-0.314,0.702-0.752,1.053-1.312,1.053C248.044,331.838,247.745,331.709,247.481,331.452L247.481,331.452z M257.037,323.573h-1.606
		l-0.281,1.668h1.607L257.037,323.573L257.037,323.573z M256.62,326.048h-1.606L253.852,333h1.606L256.62,326.048L256.62,326.048z
		 M261.817,323.669h-1.607L258.652,333h1.606L261.817,323.669L261.817,323.669z M266.63,323.573h-1.607l-0.279,1.668h1.606
		L266.63,323.573L266.63,323.573z M266.213,326.048h-1.607L263.443,333h1.607L266.213,326.048L266.213,326.048z M271.787,331.749
		c-0.196,0.032-0.362,0.048-0.499,0.048c-0.656,0-0.984-0.221-0.984-0.663c0-0.11,0.031-0.356,0.095-0.738l0.521-3.097h1.504
		l0.205-1.251h-1.497l0.328-1.969l-1.396,0.096l-0.417,1.873h-1.045l-0.212,1.251h1.032l-0.527,3.076
		c-0.104,0.62-0.156,1.037-0.156,1.251c0,0.415,0.148,0.767,0.447,1.056c0.299,0.29,0.77,0.434,1.412,0.434
		c0.191,0,0.518-0.034,0.978-0.102L271.787,331.749L271.787,331.749z M274.581,335.529c0.538,0,0.977-0.086,1.315-0.259
		c0.34-0.174,0.6-0.388,0.776-0.643c0.178-0.255,0.433-0.716,0.766-1.381l3.568-7.198h-1.34l-2.296,4.785l-1.053-4.785h-1.642
		l1.702,6.644l-0.259,0.554c-0.174,0.369-0.366,0.621-0.578,0.755c-0.212,0.135-0.48,0.202-0.803,0.202
		c-0.348,0-0.652-0.02-0.916-0.061l-0.069,1.326C274.051,335.509,274.326,335.529,274.581,335.529L274.581,335.529L274.581,335.529z
		 M290.363,323.573h-1.607l-0.28,1.668h1.607L290.363,323.573L290.363,323.573z M289.946,326.048h-1.607L287.177,333h1.607
		L289.946,326.048L289.946,326.048z M291.479,331.312c0.483,1.226,1.517,1.838,3.098,1.838c0.988,0,1.734-0.221,2.238-0.663
		s0.756-0.991,0.756-1.647c0-0.387-0.104-0.73-0.312-1.029c-0.207-0.298-0.49-0.529-0.847-0.69
		c-0.358-0.162-0.906-0.352-1.645-0.571c-0.324-0.091-0.539-0.194-0.646-0.308c-0.108-0.114-0.161-0.257-0.161-0.43
		c0-0.247,0.109-0.442,0.328-0.588s0.484-0.219,0.8-0.219c0.702,0,1.205,0.303,1.511,0.909l1.319-0.424
		c-0.552-1.094-1.509-1.64-2.871-1.64c-0.839,0-1.488,0.224-1.948,0.673c-0.461,0.449-0.69,0.976-0.69,1.582
		c0,0.388,0.103,0.732,0.308,1.033c0.205,0.3,0.458,0.524,0.759,0.67c0.3,0.146,0.764,0.305,1.388,0.478
		c0.388,0.11,0.662,0.221,0.823,0.335c0.162,0.114,0.243,0.269,0.243,0.465c0,0.264-0.12,0.482-0.358,0.653
		c-0.24,0.171-0.567,0.256-0.981,0.256c-0.83,0-1.379-0.346-1.648-1.039L291.479,331.312L291.479,331.312z M307.965,323.669h-1.605
		L304.8,333h1.606L307.965,323.669L307.965,323.669z M314.298,330.676c-0.373,0.861-0.92,1.292-1.64,1.292
		c-0.465,0-0.824-0.16-1.077-0.479c-0.253-0.319-0.379-0.74-0.379-1.264c0-0.151,0.016-0.324,0.048-0.52h4.777
		c0.015-0.196,0.021-0.378,0.021-0.547c0-1.016-0.238-1.818-0.714-2.406c-0.477-0.588-1.179-0.882-2.109-0.882
		c-1.034,0-1.881,0.408-2.539,1.224c-0.658,0.816-0.987,1.816-0.987,3.001c0,0.929,0.261,1.675,0.781,2.235
		c0.522,0.561,1.239,0.841,2.15,0.841c1.386,0,2.397-0.711,3.036-2.133L314.298,330.676L314.298,330.676z M311.414,328.714
		c0.268-1.176,0.875-1.764,1.817-1.764c0.911,0,1.367,0.588,1.367,1.764H311.414L311.414,328.714z M317.954,332.962
		c-0.191,0.217-0.287,0.512-0.287,0.886c0,1.089,1.022,1.633,3.069,1.633c1.386,0,2.354-0.235,2.908-0.707
		c0.555-0.472,0.83-0.995,0.83-1.569c0-0.337-0.104-0.653-0.316-0.947s-0.506-0.508-0.883-0.642
		c-0.375-0.135-0.967-0.202-1.773-0.202h-0.827c-0.451,0-0.75-0.056-0.896-0.167c-0.146-0.112-0.22-0.266-0.22-0.462
		c0-0.355,0.208-0.638,0.623-0.847c0.501,0.132,0.952,0.198,1.354,0.198c0.948,0,1.677-0.212,2.188-0.636s0.766-0.962,0.766-1.613
		c0-0.748-0.355-1.299-1.066-1.655c0.132-0.364,0.319-0.587,0.56-0.669c0.242-0.083,0.486-0.124,0.732-0.124
		c0.095,0,0.266,0.012,0.512,0.035l0.015-1.19c-0.173-0.023-0.328-0.034-0.466-0.034c-0.5,0-0.91,0.119-1.229,0.355
		c-0.319,0.237-0.59,0.695-0.814,1.374c-0.231-0.068-0.519-0.102-0.86-0.102c-0.971,0-1.731,0.201-2.28,0.602
		s-0.824,0.957-0.824,1.667c0,0.575,0.263,1.051,0.787,1.429c-0.552,0.274-0.918,0.539-1.098,0.797
		c-0.181,0.257-0.271,0.557-0.271,0.899c0,0.446,0.196,0.804,0.588,1.073C318.419,332.54,318.145,332.746,317.954,332.962
		L317.954,332.962z M320.367,328.167c0-0.392,0.128-0.708,0.383-0.947c0.255-0.239,0.605-0.359,1.053-0.359
		c0.752,0,1.128,0.344,1.128,1.033c0,0.405-0.123,0.728-0.37,0.967c-0.246,0.239-0.59,0.359-1.031,0.359
		C320.754,329.22,320.367,328.869,320.367,328.167L320.367,328.167L320.367,328.167z M321.126,332.815c0.838,0,1.36,0.034,1.564,0.1
		c0.205,0.066,0.309,0.235,0.309,0.509c0,0.702-0.654,1.053-1.962,1.053c-0.676,0-1.181-0.1-1.519-0.298
		c-0.337-0.198-0.505-0.45-0.505-0.755c0-0.242,0.15-0.486,0.451-0.732C319.697,332.774,320.251,332.815,321.126,332.815
		L321.126,332.815L321.126,332.815z M329.945,323.573h-1.606l-0.28,1.668h1.606L329.945,323.573L329.945,323.573z M329.528,326.048
		h-1.606L326.76,333h1.606L329.528,326.048L329.528,326.048z M332.92,331.817c0.41,0.875,1.091,1.313,2.044,1.313
		c1.016,0,1.812-0.487,2.389-1.46c0.576-0.973,0.865-1.999,0.865-3.079c0-0.83-0.186-1.506-0.557-2.03
		c-0.372-0.524-0.87-0.787-1.494-0.787c-0.816,0-1.521,0.488-2.112,1.463l0.594-3.568h-1.53L331.56,333h0.704L332.92,331.817
		L332.92,331.817z M333.986,331.452c-0.265-0.258-0.396-0.612-0.396-1.063c0-0.784,0.186-1.534,0.557-2.249
		c0.371-0.716,0.845-1.074,1.418-1.074c0.734,0,1.102,0.525,1.102,1.573c0,0.729-0.157,1.444-0.473,2.146
		c-0.313,0.702-0.752,1.053-1.312,1.053C334.549,331.838,334.251,331.709,333.986,331.452L333.986,331.452z M343.542,323.573h-1.606
		l-0.279,1.668h1.605L343.542,323.573L343.542,323.573z M343.125,326.048h-1.606L340.356,333h1.606L343.125,326.048L343.125,326.048
		z M348.322,323.669h-1.607L345.157,333h1.605L348.322,323.669L348.322,323.669z M353.135,323.573h-1.605l-0.28,1.668h1.605
		L353.135,323.573L353.135,323.573z M352.718,326.048h-1.606L349.95,333h1.605L352.718,326.048L352.718,326.048z M358.292,331.749
		c-0.196,0.032-0.362,0.048-0.499,0.048c-0.656,0-0.984-0.221-0.984-0.663c0-0.11,0.032-0.356,0.097-0.738l0.519-3.097h1.504
		l0.205-1.251h-1.497l0.328-1.969l-1.394,0.096l-0.417,1.873h-1.047l-0.212,1.251h1.032l-0.526,3.076
		c-0.104,0.62-0.157,1.037-0.157,1.251c0,0.415,0.149,0.767,0.447,1.056c0.3,0.29,0.77,0.434,1.412,0.434
		c0.191,0,0.518-0.034,0.978-0.102L358.292,331.749L358.292,331.749z M361.087,335.529c0.537,0,0.976-0.086,1.315-0.259
		c0.34-0.174,0.599-0.388,0.776-0.643c0.177-0.255,0.433-0.716,0.765-1.381l3.569-7.198h-1.34l-2.297,4.785l-1.053-4.785h-1.642
		l1.703,6.644l-0.26,0.554c-0.173,0.369-0.366,0.621-0.578,0.755c-0.212,0.135-0.479,0.202-0.803,0.202
		c-0.347,0-0.652-0.02-0.916-0.061l-0.068,1.326C360.556,335.509,360.831,335.529,361.087,335.529L361.087,335.529L361.087,335.529z
		"/>
	<path d="M215.886,305.669h-1.531l-0.594,3.527c-0.306-0.92-0.937-1.381-1.894-1.381c-0.893,0-1.629,0.441-2.208,1.323
		c-0.579,0.882-0.868,1.938-0.868,3.169c0,0.902,0.19,1.603,0.571,2.102c0.38,0.499,0.882,0.748,1.507,0.748
		c0.907,0,1.641-0.531,2.201-1.593L212.831,315h1.49L215.886,305.669L215.886,305.669z M210.356,312.416
		c0-0.838,0.151-1.601,0.451-2.287c0.301-0.685,0.748-1.028,1.34-1.028c0.388,0,0.699,0.15,0.933,0.451
		c0.235,0.301,0.352,0.695,0.352,1.182c0,0.789-0.175,1.515-0.526,2.178s-0.823,0.994-1.415,0.994
		C210.734,313.906,210.356,313.41,210.356,312.416L210.356,312.416L210.356,312.416z M222.219,312.676
		c-0.374,0.861-0.921,1.292-1.641,1.292c-0.465,0-0.824-0.16-1.077-0.479c-0.253-0.319-0.379-0.74-0.379-1.264
		c0-0.151,0.016-0.324,0.048-0.52h4.778c0.014-0.196,0.021-0.378,0.021-0.547c0-1.016-0.239-1.818-0.715-2.406
		s-1.179-0.882-2.109-0.882c-1.034,0-1.881,0.408-2.539,1.224c-0.659,0.816-0.988,1.816-0.988,3.001
		c0,0.929,0.261,1.675,0.783,2.235c0.521,0.561,1.238,0.841,2.15,0.841c1.385,0,2.397-0.711,3.035-2.133L222.219,312.676
		L222.219,312.676z M219.334,310.714c0.269-1.176,0.875-1.764,1.818-1.764c0.912,0,1.367,0.588,1.367,1.764H219.334L219.334,310.714
		z M225.758,313.312c0.483,1.226,1.515,1.838,3.097,1.838c0.988,0,1.735-0.221,2.238-0.663c0.504-0.442,0.756-0.991,0.756-1.647
		c0-0.387-0.104-0.73-0.311-1.029c-0.208-0.298-0.49-0.529-0.848-0.69c-0.358-0.162-0.906-0.352-1.644-0.571
		c-0.324-0.091-0.539-0.194-0.646-0.308c-0.107-0.114-0.161-0.257-0.161-0.43c0-0.247,0.11-0.442,0.328-0.588
		c0.219-0.146,0.486-0.219,0.8-0.219c0.702,0,1.206,0.303,1.511,0.909l1.319-0.424c-0.551-1.094-1.508-1.64-2.871-1.64
		c-0.838,0-1.488,0.224-1.948,0.673c-0.46,0.449-0.69,0.976-0.69,1.582c0,0.388,0.102,0.732,0.307,1.033
		c0.205,0.3,0.458,0.524,0.759,0.67s0.763,0.305,1.388,0.478c0.387,0.11,0.662,0.221,0.823,0.335
		c0.162,0.114,0.243,0.269,0.243,0.465c0,0.264-0.12,0.482-0.359,0.653c-0.239,0.171-0.566,0.256-0.981,0.256
		c-0.829,0-1.378-0.346-1.647-1.039L225.758,313.312L225.758,313.312z M237.357,305.573h-1.606l-0.281,1.668h1.607L237.357,305.573
		L237.357,305.573z M236.94,308.048h-1.606L234.171,315h1.607L236.94,308.048L236.94,308.048z M238.734,314.962
		c-0.192,0.217-0.287,0.512-0.287,0.886c0,1.089,1.023,1.633,3.069,1.633c1.385,0,2.355-0.235,2.909-0.707
		c0.554-0.472,0.83-0.995,0.83-1.569c0-0.337-0.106-0.653-0.317-0.947c-0.212-0.294-0.506-0.508-0.882-0.642
		c-0.376-0.135-0.968-0.202-1.774-0.202h-0.827c-0.452,0-0.75-0.056-0.896-0.167c-0.146-0.112-0.219-0.266-0.219-0.462
		c0-0.355,0.208-0.638,0.622-0.847c0.502,0.132,0.953,0.198,1.354,0.198c0.948,0,1.677-0.212,2.187-0.636
		c0.511-0.424,0.766-0.962,0.766-1.613c0-0.748-0.355-1.299-1.066-1.655c0.132-0.364,0.319-0.587,0.56-0.669
		c0.242-0.083,0.486-0.124,0.732-0.124c0.095,0,0.266,0.012,0.512,0.035l0.014-1.19c-0.173-0.023-0.328-0.034-0.465-0.034
		c-0.501,0-0.911,0.119-1.23,0.355c-0.319,0.237-0.591,0.695-0.814,1.374c-0.232-0.068-0.519-0.102-0.861-0.102
		c-0.971,0-1.731,0.201-2.28,0.602c-0.549,0.401-0.824,0.957-0.824,1.667c0,0.575,0.262,1.051,0.786,1.429
		c-0.551,0.274-0.917,0.539-1.097,0.797c-0.18,0.257-0.27,0.557-0.27,0.899c0,0.446,0.196,0.804,0.588,1.073
		C239.199,314.54,238.925,314.746,238.734,314.962L238.734,314.962z M241.147,310.167c0-0.392,0.128-0.708,0.383-0.947
		c0.255-0.239,0.606-0.359,1.053-0.359c0.751,0,1.127,0.344,1.127,1.033c0,0.405-0.123,0.728-0.369,0.967
		c-0.246,0.239-0.59,0.359-1.032,0.359C241.534,311.22,241.147,310.869,241.147,310.167L241.147,310.167L241.147,310.167z
		 M241.906,314.815c0.838,0,1.36,0.034,1.565,0.1s0.308,0.235,0.308,0.509c0,0.702-0.654,1.053-1.962,1.053
		c-0.675,0-1.18-0.1-1.518-0.298c-0.337-0.198-0.506-0.45-0.506-0.755c0-0.242,0.151-0.486,0.452-0.732
		C240.477,314.774,241.031,314.815,241.906,314.815L241.906,314.815L241.906,314.815z M253.87,310.967
		c0.091-0.529,0.136-0.914,0.136-1.155c0-0.616-0.185-1.095-0.557-1.439c-0.371-0.344-0.81-0.517-1.316-0.517
		c-0.351,0-0.711,0.1-1.08,0.298c-0.369,0.198-0.77,0.703-1.203,1.514l0.274-1.62h-1.422L247.54,315h1.531l0.526-3.131
		c0.146-0.898,0.397-1.582,0.752-2.054c0.356-0.472,0.766-0.708,1.231-0.708c0.291,0,0.509,0.088,0.652,0.264
		c0.144,0.175,0.216,0.39,0.216,0.646c0,0.223-0.025,0.492-0.075,0.806L251.662,315h1.531L253.87,310.967L253.87,310.967z
		 M264.545,305.573h-1.607l-0.28,1.668h1.606L264.545,305.573L264.545,305.573z M264.128,308.048h-1.607L261.359,315h1.607
		L264.128,308.048L264.128,308.048z M265.661,313.312c0.482,1.226,1.515,1.838,3.097,1.838c0.989,0,1.735-0.221,2.239-0.663
		c0.503-0.442,0.755-0.991,0.755-1.647c0-0.387-0.104-0.73-0.312-1.029c-0.206-0.298-0.489-0.529-0.848-0.69
		c-0.358-0.162-0.905-0.352-1.644-0.571c-0.323-0.091-0.539-0.194-0.646-0.308c-0.106-0.114-0.16-0.257-0.16-0.43
		c0-0.247,0.109-0.442,0.328-0.588c0.218-0.146,0.485-0.219,0.8-0.219c0.701,0,1.205,0.303,1.511,0.909l1.319-0.424
		c-0.552-1.094-1.509-1.64-2.871-1.64c-0.839,0-1.487,0.224-1.948,0.673c-0.46,0.449-0.69,0.976-0.69,1.582
		c0,0.388,0.103,0.732,0.307,1.033c0.206,0.3,0.458,0.524,0.76,0.67c0.301,0.146,0.764,0.305,1.388,0.478
		c0.387,0.11,0.662,0.221,0.824,0.335c0.161,0.114,0.242,0.269,0.242,0.465c0,0.264-0.119,0.482-0.359,0.653
		c-0.239,0.171-0.566,0.256-0.98,0.256c-0.83,0-1.379-0.346-1.647-1.039L265.661,313.312L265.661,313.312z M284.724,314.597
		c0-0.338,0.116-1.133,0.35-2.386c0.218-1.19,0.327-1.923,0.327-2.201c0-0.652-0.251-1.174-0.752-1.566
		c-0.502-0.392-1.185-0.588-2.051-0.588c-1.454,0-2.468,0.566-3.042,1.696l1.367,0.43c0.337-0.642,0.873-0.963,1.607-0.963
		c0.382,0,0.701,0.095,0.96,0.287c0.257,0.191,0.386,0.474,0.386,0.847c0,0.123-0.017,0.29-0.048,0.499
		c-0.255-0.018-0.479-0.027-0.67-0.027c-1.481,0-2.569,0.23-3.265,0.69c-0.694,0.461-1.042,1.081-1.042,1.86
		c0,0.565,0.195,1.04,0.584,1.425c0.391,0.385,0.896,0.578,1.515,0.578c0.515,0,0.986-0.15,1.415-0.448s0.757-0.708,0.984-1.227
		c-0.082,0.465-0.123,0.864-0.123,1.196c0,0.078,0.004,0.178,0.014,0.301h1.511C284.732,314.854,284.724,314.72,284.724,314.597
		L284.724,314.597L284.724,314.597z M282.851,313.356c-0.396,0.408-0.827,0.612-1.292,0.612c-0.324,0-0.579-0.088-0.766-0.263
		c-0.188-0.176-0.28-0.403-0.28-0.681c0-0.483,0.232-0.85,0.697-1.1c0.465-0.251,1.292-0.408,2.481-0.472
		C283.528,312.313,283.247,312.948,282.851,313.356L282.851,313.356z M289.711,312.341c0.127-0.775,0.286-1.332,0.475-1.672
		c0.189-0.339,0.451-0.609,0.786-0.81c0.335-0.2,0.691-0.3,1.07-0.3c0.077,0,0.19,0.004,0.342,0.013l0.198-1.709
		c-0.082-0.004-0.145-0.007-0.186-0.007c-1.007,0-1.809,0.695-2.405,2.085l0.313-1.893h-1.408L287.734,315h1.531L289.711,312.341
		L289.711,312.341z M297.822,313.749c-0.196,0.032-0.362,0.048-0.499,0.048c-0.656,0-0.984-0.221-0.984-0.663
		c0-0.11,0.032-0.356,0.096-0.738l0.52-3.097h1.504l0.205-1.251h-1.497l0.328-1.969l-1.395,0.096l-0.417,1.873h-1.046l-0.212,1.251
		h1.032l-0.526,3.076c-0.104,0.62-0.157,1.037-0.157,1.251c0,0.415,0.149,0.767,0.447,1.056c0.299,0.29,0.77,0.434,1.412,0.434
		c0.191,0,0.517-0.034,0.979-0.102L297.822,313.749L297.822,313.749z"/>
	<path d="M210.431,295.77c0.342,0.952,0.989,1.428,1.942,1.428c0.884,0,1.6-0.462,2.15-1.387c0.549-0.926,0.823-1.946,0.823-3.063
		c0-0.898-0.202-1.611-0.608-2.14c-0.406-0.528-0.934-0.793-1.586-0.793c-0.866,0-1.586,0.556-2.16,1.668l0.239-1.435h-1.367
		l-1.572,9.379h1.531L210.431,295.77L210.431,295.77z M211.118,295.513c-0.266-0.289-0.399-0.723-0.399-1.302
		c0-0.788,0.185-1.51,0.557-2.164c0.371-0.654,0.832-0.981,1.384-0.981c0.729,0,1.094,0.6,1.094,1.798
		c0,0.711-0.145,1.403-0.434,2.075c-0.29,0.672-0.701,1.008-1.234,1.008C211.707,295.947,211.385,295.803,211.118,295.513
		L211.118,295.513z M222.245,294.676c-0.374,0.861-0.921,1.292-1.641,1.292c-0.465,0-0.824-0.16-1.077-0.479
		c-0.253-0.319-0.379-0.74-0.379-1.264c0-0.151,0.016-0.324,0.048-0.52h4.778c0.014-0.196,0.021-0.378,0.021-0.547
		c0-1.016-0.239-1.818-0.715-2.406s-1.179-0.882-2.109-0.882c-1.034,0-1.881,0.408-2.539,1.224
		c-0.659,0.816-0.988,1.816-0.988,3.001c0,0.929,0.261,1.675,0.783,2.235c0.522,0.561,1.238,0.841,2.15,0.841
		c1.385,0,2.396-0.711,3.035-2.133L222.245,294.676L222.245,294.676z M219.36,292.714c0.269-1.176,0.875-1.764,1.818-1.764
		c0.912,0,1.367,0.588,1.367,1.764H219.36L219.36,292.714z M228.113,294.341c0.128-0.775,0.286-1.332,0.475-1.672
		c0.189-0.339,0.451-0.609,0.786-0.81c0.335-0.2,0.692-0.3,1.07-0.3c0.078,0,0.192,0.004,0.342,0.013l0.198-1.709
		c-0.082-0.004-0.143-0.007-0.184-0.007c-1.008,0-1.81,0.695-2.407,2.085l0.315-1.893H227.3L226.138,297h1.531L228.113,294.341
		L228.113,294.341z M237.016,294.478c-0.354,0.916-0.875,1.374-1.558,1.374c-0.351,0-0.654-0.127-0.91-0.38
		c-0.255-0.253-0.382-0.682-0.382-1.288c0-0.798,0.168-1.502,0.505-2.113c0.338-0.61,0.775-0.916,1.313-0.916
		c0.725,0,1.178,0.456,1.36,1.367l1.299-0.252c-0.123-0.775-0.427-1.373-0.913-1.795c-0.485-0.421-1.09-0.632-1.814-0.632
		c-0.957,0-1.753,0.415-2.386,1.244c-0.634,0.829-0.95,1.805-0.95,2.926c0,0.993,0.257,1.765,0.772,2.314
		c0.515,0.549,1.18,0.823,1.996,0.823c1.313,0,2.297-0.738,2.953-2.214L237.016,294.478L237.016,294.478z M245.305,294.676
		c-0.374,0.861-0.92,1.292-1.641,1.292c-0.464,0-0.823-0.16-1.076-0.479c-0.253-0.319-0.38-0.74-0.38-1.264
		c0-0.151,0.016-0.324,0.048-0.52h4.779c0.013-0.196,0.02-0.378,0.02-0.547c0-1.016-0.238-1.818-0.714-2.406
		c-0.477-0.588-1.179-0.882-2.109-0.882c-1.035,0-1.881,0.408-2.54,1.224c-0.658,0.816-0.987,1.816-0.987,3.001
		c0,0.929,0.26,1.675,0.782,2.235c0.522,0.561,1.239,0.841,2.15,0.841c1.385,0,2.397-0.711,3.035-2.133L245.305,294.676
		L245.305,294.676z M242.42,292.714c0.269-1.176,0.875-1.764,1.819-1.764c0.911,0,1.367,0.588,1.367,1.764H242.42L242.42,292.714z
		 M250.925,295.77c0.342,0.952,0.989,1.428,1.941,1.428c0.884,0,1.601-0.462,2.15-1.387c0.549-0.926,0.824-1.946,0.824-3.063
		c0-0.898-0.203-1.611-0.609-2.14c-0.405-0.528-0.934-0.793-1.586-0.793c-0.865,0-1.585,0.556-2.16,1.668l0.24-1.435h-1.368
		l-1.572,9.379h1.531L250.925,295.77L250.925,295.77z M251.612,295.513c-0.267-0.289-0.4-0.723-0.4-1.302
		c0-0.788,0.186-1.51,0.557-2.164c0.371-0.654,0.833-0.981,1.384-0.981c0.729,0,1.094,0.6,1.094,1.798
		c0,0.711-0.145,1.403-0.434,2.075s-0.701,1.008-1.234,1.008C252.201,295.947,251.878,295.803,251.612,295.513L251.612,295.513z
		 M261.441,295.749c-0.196,0.032-0.363,0.048-0.499,0.048c-0.656,0-0.985-0.221-0.985-0.663c0-0.11,0.032-0.356,0.096-0.738
		l0.52-3.097h1.504l0.205-1.251h-1.497l0.328-1.969l-1.395,0.096l-0.417,1.873h-1.046l-0.212,1.251h1.033l-0.527,3.076
		c-0.105,0.62-0.157,1.037-0.157,1.251c0,0.415,0.149,0.767,0.448,1.056c0.298,0.29,0.769,0.434,1.411,0.434
		c0.192,0,0.518-0.034,0.978-0.102L261.441,295.749L261.441,295.749z M266.924,287.573h-1.605l-0.28,1.668h1.605L266.924,287.573
		L266.924,287.573z M266.507,290.048H264.9L263.739,297h1.605L266.507,290.048L266.507,290.048z M274.112,295.899
		c0.619-0.852,0.93-1.781,0.93-2.789c0-0.979-0.26-1.76-0.779-2.341s-1.213-0.872-2.078-0.872c-1.053,0-1.904,0.405-2.557,1.214
		s-0.979,1.767-0.979,2.874c0,0.684,0.128,1.273,0.381,1.767c0.253,0.495,0.618,0.856,1.1,1.084s0.979,0.342,1.494,0.342
		C272.663,297.178,273.492,296.752,274.112,295.899L274.112,295.899z M270.633,295.517c-0.273-0.274-0.41-0.7-0.41-1.279
		c0-0.683,0.142-1.369,0.423-2.057c0.283-0.688,0.75-1.033,1.402-1.033c0.929,0,1.394,0.602,1.394,1.805
		c0,0.702-0.146,1.373-0.437,2.013c-0.292,0.641-0.748,0.961-1.367,0.961C271.241,295.927,270.906,295.79,270.633,295.517
		L270.633,295.517z M283.512,292.967c0.091-0.529,0.137-0.914,0.137-1.155c0-0.616-0.186-1.095-0.557-1.439
		c-0.372-0.344-0.81-0.517-1.316-0.517c-0.351,0-0.711,0.1-1.079,0.298c-0.369,0.198-0.771,0.703-1.203,1.514l0.272-1.62h-1.422
		L277.182,297h1.532l0.526-3.131c0.146-0.898,0.396-1.582,0.752-2.054c0.354-0.472,0.765-0.708,1.229-0.708
		c0.292,0,0.51,0.088,0.653,0.264c0.144,0.175,0.215,0.39,0.215,0.646c0,0.223-0.025,0.492-0.075,0.806L281.304,297h1.532
		L283.512,292.967L283.512,292.967z M296.744,296.597c0-0.338,0.115-1.133,0.349-2.386c0.218-1.19,0.328-1.923,0.328-2.201
		c0-0.652-0.251-1.174-0.752-1.566c-0.502-0.392-1.185-0.588-2.051-0.588c-1.454,0-2.468,0.566-3.042,1.696l1.367,0.43
		c0.337-0.642,0.872-0.963,1.606-0.963c0.382,0,0.703,0.095,0.96,0.287c0.258,0.191,0.386,0.474,0.386,0.847
		c0,0.123-0.016,0.29-0.048,0.499c-0.255-0.018-0.478-0.027-0.669-0.027c-1.481,0-2.569,0.23-3.265,0.69
		c-0.695,0.461-1.042,1.081-1.042,1.86c0,0.565,0.194,1.04,0.584,1.425c0.39,0.385,0.895,0.578,1.515,0.578
		c0.516,0,0.986-0.15,1.415-0.448c0.428-0.298,0.756-0.708,0.984-1.227c-0.082,0.465-0.123,0.864-0.123,1.196
		c0,0.078,0.004,0.178,0.014,0.301h1.51C296.753,296.854,296.744,296.72,296.744,296.597L296.744,296.597L296.744,296.597z
		 M294.871,295.356c-0.397,0.408-0.827,0.612-1.292,0.612c-0.324,0-0.579-0.088-0.767-0.263c-0.187-0.176-0.279-0.403-0.279-0.681
		c0-0.483,0.231-0.85,0.696-1.1c0.466-0.251,1.292-0.408,2.482-0.472C295.548,294.313,295.267,294.948,294.871,295.356
		L294.871,295.356z M306.085,292.967c0.091-0.529,0.137-0.914,0.137-1.155c0-0.616-0.186-1.095-0.557-1.439
		c-0.372-0.344-0.811-0.517-1.316-0.517c-0.351,0-0.711,0.1-1.08,0.298c-0.368,0.198-0.77,0.703-1.203,1.514l0.273-1.62h-1.422
		L299.755,297h1.531l0.526-3.131c0.146-0.898,0.396-1.582,0.752-2.054s0.766-0.708,1.23-0.708c0.292,0,0.51,0.088,0.653,0.264
		c0.144,0.175,0.215,0.39,0.215,0.646c0,0.223-0.025,0.492-0.075,0.806L303.877,297h1.532L306.085,292.967L306.085,292.967z
		 M315.789,287.669h-1.531l-0.595,3.527c-0.306-0.92-0.937-1.381-1.894-1.381c-0.893,0-1.629,0.441-2.208,1.323
		c-0.579,0.882-0.868,1.938-0.868,3.169c0,0.902,0.19,1.603,0.57,2.102c0.381,0.499,0.883,0.748,1.508,0.748
		c0.907,0,1.641-0.531,2.201-1.593L312.734,297h1.489L315.789,287.669L315.789,287.669z M310.259,294.416
		c0-0.838,0.15-1.601,0.451-2.287c0.301-0.685,0.748-1.028,1.34-1.028c0.387,0,0.698,0.15,0.933,0.451
		c0.235,0.301,0.353,0.695,0.353,1.182c0,0.789-0.175,1.515-0.526,2.178c-0.351,0.663-0.822,0.994-1.415,0.994
		C310.637,295.906,310.259,295.41,310.259,294.416L310.259,294.416L310.259,294.416z M325.773,287.669h-1.729L322.486,297h1.729
		L325.773,287.669L325.773,287.669z M333.844,292.967c0.091-0.529,0.137-0.914,0.137-1.155c0-0.616-0.186-1.095-0.557-1.439
		c-0.372-0.344-0.81-0.517-1.316-0.517c-0.351,0-0.711,0.1-1.079,0.298c-0.369,0.198-0.771,0.703-1.203,1.514l0.272-1.62h-1.422
		L327.514,297h1.531l0.527-3.131c0.146-0.898,0.396-1.582,0.752-2.054c0.354-0.472,0.765-0.708,1.229-0.708
		c0.292,0,0.51,0.088,0.653,0.264c0.144,0.175,0.215,0.39,0.215,0.646c0,0.223-0.025,0.492-0.075,0.806L331.636,297h1.532
		L333.844,292.967L333.844,292.967z M339.797,295.749c-0.196,0.032-0.362,0.048-0.499,0.048c-0.656,0-0.984-0.221-0.984-0.663
		c0-0.11,0.032-0.356,0.097-0.738l0.519-3.097h1.504l0.205-1.251h-1.497l0.328-1.969l-1.394,0.096l-0.417,1.873h-1.046l-0.212,1.251
		h1.031l-0.525,3.076c-0.105,0.62-0.157,1.037-0.157,1.251c0,0.415,0.148,0.767,0.447,1.056c0.299,0.29,0.769,0.434,1.411,0.434
		c0.191,0,0.518-0.034,0.978-0.102L339.797,295.749L339.797,295.749z M346.818,294.676c-0.373,0.861-0.92,1.292-1.64,1.292
		c-0.465,0-0.824-0.16-1.077-0.479c-0.253-0.319-0.38-0.74-0.38-1.264c0-0.151,0.017-0.324,0.048-0.52h4.779
		c0.013-0.196,0.02-0.378,0.02-0.547c0-1.016-0.237-1.818-0.714-2.406c-0.476-0.588-1.179-0.882-2.108-0.882
		c-1.035,0-1.881,0.408-2.54,1.224c-0.658,0.816-0.987,1.816-0.987,3.001c0,0.929,0.26,1.675,0.782,2.235
		c0.521,0.561,1.239,0.841,2.149,0.841c1.387,0,2.397-0.711,3.035-2.133L346.818,294.676L346.818,294.676z M343.934,292.714
		c0.27-1.176,0.875-1.764,1.819-1.764c0.911,0,1.367,0.588,1.367,1.764H343.934L343.934,292.714z M352.688,294.341
		c0.127-0.775,0.286-1.332,0.476-1.672c0.188-0.339,0.451-0.609,0.786-0.81c0.335-0.2,0.69-0.3,1.069-0.3
		c0.077,0,0.191,0.004,0.343,0.013l0.197-1.709c-0.082-0.004-0.144-0.007-0.185-0.007c-1.007,0-1.81,0.695-2.406,2.085l0.314-1.893
		h-1.408L350.712,297h1.531L352.688,294.341L352.688,294.341z M358.628,295.77c0.342,0.952,0.989,1.428,1.94,1.428
		c0.885,0,1.602-0.462,2.15-1.387c0.549-0.926,0.824-1.946,0.824-3.063c0-0.898-0.203-1.611-0.609-2.14
		c-0.404-0.528-0.934-0.793-1.586-0.793c-0.865,0-1.585,0.556-2.16,1.668l0.24-1.435h-1.368l-1.571,9.379h1.53L358.628,295.77
		L358.628,295.77z M359.314,295.513c-0.267-0.289-0.399-0.723-0.399-1.302c0-0.788,0.186-1.51,0.557-2.164
		c0.371-0.654,0.833-0.981,1.384-0.981c0.729,0,1.095,0.6,1.095,1.798c0,0.711-0.146,1.403-0.435,2.075s-0.701,1.008-1.233,1.008
		C359.904,295.947,359.581,295.803,359.314,295.513L359.314,295.513z M367.654,294.341c0.127-0.775,0.285-1.332,0.475-1.672
		c0.189-0.339,0.451-0.609,0.786-0.81c0.335-0.2,0.69-0.3,1.069-0.3c0.077,0,0.191,0.004,0.342,0.013l0.199-1.709
		c-0.082-0.004-0.145-0.007-0.186-0.007c-1.007,0-1.809,0.695-2.406,2.085l0.314-1.893h-1.408L365.678,297h1.531L367.654,294.341
		L367.654,294.341z M376.7,294.676c-0.374,0.861-0.921,1.292-1.642,1.292c-0.465,0-0.822-0.16-1.076-0.479
		c-0.253-0.319-0.38-0.74-0.38-1.264c0-0.151,0.017-0.324,0.048-0.52h4.778c0.015-0.196,0.021-0.378,0.021-0.547
		c0-1.016-0.238-1.818-0.714-2.406c-0.478-0.588-1.181-0.882-2.109-0.882c-1.035,0-1.881,0.408-2.54,1.224
		c-0.658,0.816-0.988,1.816-0.988,3.001c0,0.929,0.261,1.675,0.783,2.235c0.522,0.561,1.238,0.841,2.15,0.841
		c1.385,0,2.396-0.711,3.034-2.133L376.7,294.676L376.7,294.676z M373.814,292.714c0.27-1.176,0.875-1.764,1.819-1.764
		c0.911,0,1.367,0.588,1.367,1.764H373.814L373.814,292.714z M384.062,295.749c-0.195,0.032-0.362,0.048-0.499,0.048
		c-0.656,0-0.984-0.221-0.984-0.663c0-0.11,0.031-0.356,0.096-0.738l0.52-3.097h1.504l0.205-1.251h-1.497l0.327-1.969l-1.394,0.096
		l-0.417,1.873h-1.046l-0.212,1.251h1.032l-0.526,3.076c-0.105,0.62-0.157,1.037-0.157,1.251c0,0.415,0.149,0.767,0.447,1.056
		c0.299,0.29,0.769,0.434,1.412,0.434c0.19,0,0.517-0.034,0.978-0.102L384.062,295.749L384.062,295.749z M392.228,296.597
		c0-0.338,0.116-1.133,0.349-2.386c0.219-1.19,0.328-1.923,0.328-2.201c0-0.652-0.25-1.174-0.751-1.566
		c-0.503-0.392-1.186-0.588-2.052-0.588c-1.454,0-2.468,0.566-3.042,1.696l1.367,0.43c0.337-0.642,0.873-0.963,1.606-0.963
		c0.383,0,0.703,0.095,0.961,0.287c0.257,0.191,0.386,0.474,0.386,0.847c0,0.123-0.016,0.29-0.048,0.499
		c-0.255-0.018-0.479-0.027-0.67-0.027c-1.481,0-2.569,0.23-3.265,0.69c-0.694,0.461-1.042,1.081-1.042,1.86
		c0,0.565,0.194,1.04,0.584,1.425c0.391,0.385,0.895,0.578,1.515,0.578c0.515,0,0.986-0.15,1.415-0.448s0.757-0.708,0.984-1.227
		c-0.082,0.465-0.123,0.864-0.123,1.196c0,0.078,0.004,0.178,0.014,0.301h1.511C392.237,296.854,392.228,296.72,392.228,296.597
		L392.228,296.597L392.228,296.597z M390.354,295.356c-0.396,0.408-0.826,0.612-1.292,0.612c-0.323,0-0.578-0.088-0.766-0.263
		c-0.188-0.176-0.28-0.403-0.28-0.681c0-0.483,0.232-0.85,0.697-1.1c0.465-0.251,1.292-0.408,2.481-0.472
		C391.031,294.313,390.751,294.948,390.354,295.356L390.354,295.356z M398.717,295.749c-0.196,0.032-0.362,0.048-0.499,0.048
		c-0.656,0-0.983-0.221-0.983-0.663c0-0.11,0.031-0.356,0.096-0.738l0.519-3.097h1.504l0.205-1.251h-1.497l0.328-1.969l-1.394,0.096
		l-0.417,1.873h-1.046l-0.212,1.251h1.031l-0.525,3.076c-0.105,0.62-0.157,1.037-0.157,1.251c0,0.415,0.149,0.767,0.447,1.056
		c0.299,0.29,0.769,0.434,1.412,0.434c0.19,0,0.517-0.034,0.977-0.102L398.717,295.749L398.717,295.749z M404.201,287.573h-1.607
		l-0.28,1.668h1.607L404.201,287.573L404.201,287.573z M403.784,290.048h-1.607L401.015,297h1.607L403.784,290.048L403.784,290.048z
		 M411.389,295.899c0.62-0.852,0.93-1.781,0.93-2.789c0-0.979-0.26-1.76-0.779-2.341s-1.212-0.872-2.078-0.872
		c-1.053,0-1.905,0.405-2.557,1.214s-0.978,1.767-0.978,2.874c0,0.684,0.126,1.273,0.379,1.767c0.253,0.495,0.62,0.856,1.102,1.084
		c0.48,0.228,0.978,0.342,1.493,0.342C409.939,297.178,410.769,296.752,411.389,295.899L411.389,295.899z M407.909,295.517
		c-0.273-0.274-0.41-0.7-0.41-1.279c0-0.683,0.141-1.369,0.424-2.057s0.75-1.033,1.401-1.033c0.93,0,1.395,0.602,1.395,1.805
		c0,0.702-0.146,1.373-0.438,2.013c-0.291,0.641-0.747,0.961-1.367,0.961C408.518,295.927,408.183,295.79,407.909,295.517
		L407.909,295.517z M420.789,292.967c0.091-0.529,0.137-0.914,0.137-1.155c0-0.616-0.186-1.095-0.557-1.439
		c-0.372-0.344-0.812-0.517-1.316-0.517c-0.351,0-0.711,0.1-1.08,0.298c-0.37,0.198-0.771,0.703-1.204,1.514l0.274-1.62h-1.422
		L414.459,297h1.531l0.525-3.131c0.146-0.898,0.397-1.582,0.752-2.054c0.356-0.472,0.767-0.708,1.231-0.708
		c0.291,0,0.509,0.088,0.653,0.264c0.143,0.175,0.215,0.39,0.215,0.646c0,0.223-0.025,0.492-0.075,0.806L418.581,297h1.53
		L420.789,292.967L420.789,292.967z"/>
	<path d="M181.051,273.665v2.703c0,0.77-0.014,1.457,0.532,2.045c0.545,0.587,1.259,0.824,2,0.726l1.638-0.209v-2.002
		c-0.266,0.07-0.532,0.126-0.798,0.126c-0.658,0-0.602-0.406-0.602-0.924v-2.465h1.4v-1.818h-1.428v-2.366l-2.406,0.084l-0.21,2.282
		h-1.162v1.818H181.051L181.051,273.665z M194.721,278.999v-4.479c0-0.728,0-1.415-0.405-2.031
		c-0.392-0.587-1.134-0.782-1.833-0.782c-0.84,0-1.485,0.334-2.018,0.978v-3.288h-2.77v9.602h2.77v-4.297
		c-0.014-0.238,0-0.49,0.155-0.686c0.154-0.224,0.392-0.35,0.658-0.35c0.575,0,0.673,0.406,0.673,0.882v4.451H194.721
		L194.721,278.999z M202.135,276.438c-0.112,0.617-0.462,0.869-1.092,0.869c-0.84,0-1.12-0.561-1.078-1.332h4.787v-0.377
		c0-2.353-1.455-3.891-3.835-3.891c-1.022,0-2.113,0.349-2.841,1.105c-0.672,0.685-1.05,1.737-1.05,2.702
		c0,1.022,0.406,2.003,1.176,2.688c0.812,0.713,1.833,0.937,2.883,0.937c1.694,0,3.233-0.797,3.667-2.533L202.135,276.438
		L202.135,276.438z M199.951,274.577c-0.028-0.659,0.266-1.234,0.994-1.234c0.784,0,1.008,0.533,1.008,1.234H199.951
		L199.951,274.577z M219.97,278.999c-0.21-0.502-0.224-1.034-0.224-1.567v-2.506c0-1.023,0.112-1.946-0.826-2.604
		c-0.699-0.503-1.776-0.615-2.616-0.615c-1.61,0-3.304,0.461-3.724,2.238l2.548,0.238c0.084-0.602,0.546-0.798,1.092-0.798
		c0.672,0,0.84,0.252,0.84,0.896v0.056c-0.938,0.056-1.904,0.168-2.814,0.449c-0.994,0.308-1.876,1.064-1.876,2.198
		c0,1.429,1.162,2.155,2.492,2.155c0.98,0,1.778-0.306,2.338-1.132c0,0.336,0.028,0.672,0.098,0.992H219.97L219.97,278.999z
		 M217.06,275.795c0,0.784-0.014,1.666-1.064,1.666c-0.434,0-0.728-0.196-0.728-0.658c0-0.868,1.12-1.078,1.792-1.148V275.795
		L217.06,275.795z M224.706,273.315v-1.468h-2.364v7.152h2.77v-3.107c0-0.42,0-0.882,0.196-1.232c0.224-0.406,0.687-0.49,1.134-0.49
		c0.182,0,0.364,0.028,0.532,0.07v-2.505l-0.378-0.028c-1.106-0.084-1.624,0.614-1.862,1.608H224.706L224.706,273.315z
		 M229.725,273.665v2.703c0,0.77-0.014,1.457,0.532,2.045c0.545,0.587,1.259,0.824,2.001,0.726l1.637-0.209v-2.002
		c-0.266,0.07-0.532,0.126-0.798,0.126c-0.658,0-0.602-0.406-0.602-0.924v-2.465h1.4v-1.818h-1.428v-2.366l-2.406,0.084l-0.21,2.282
		h-1.162v1.818H229.725L229.725,273.665z M245.488,271.707c-2.24,0-3.933,1.482-3.933,3.779c0,2.171,1.749,3.653,3.933,3.653
		s3.933-1.482,3.933-3.653C249.421,273.189,247.728,271.707,245.488,271.707L245.488,271.707z M245.488,273.455
		c0.953,0,0.967,1.247,0.967,1.933c0,1.919-0.463,2.059-0.967,2.059s-0.967-0.14-0.967-2.059
		C244.521,274.702,244.535,273.455,245.488,273.455L245.488,273.455z M254.838,273.847h1.736v-1.762h-1.764
		c-0.07-0.673,0.126-1.066,0.812-1.01l1.26,0.112v-1.748l-2.058-0.182c-0.826,0-1.693,0.112-2.239,0.783
		c-0.476,0.588-0.518,1.245-0.518,1.947v0.098h-1.008v1.762h1.008v5.152h2.771V273.847L254.838,273.847z M263.883,276.971
		c0.532,1.651,2.002,2.168,3.597,2.168c1.61,0,3.695-0.559,3.695-2.532c0-0.771-0.35-1.401-1.007-1.821
		c-0.574-0.35-1.302-0.448-1.946-0.532c-0.336-0.043-0.896-0.085-1.204-0.169c-0.182-0.042-0.42-0.14-0.42-0.364
		c0-0.308,0.672-0.378,0.896-0.378c0.49,0,1.036,0.14,1.246,0.63l2.112-0.406c-0.475-1.343-1.889-1.86-3.232-1.86
		c-0.798,0-1.596,0.112-2.295,0.545c-0.673,0.42-1.106,1.063-1.106,1.875c0,1.905,1.778,2.199,3.275,2.409
		c0.252,0.028,1.204,0.099,1.204,0.463c0,0.42-0.784,0.448-1.064,0.448c-0.602,0-1.371-0.084-1.524-0.77L263.883,276.971
		L263.883,276.971z M278.118,276.438c-0.111,0.617-0.461,0.869-1.091,0.869c-0.841,0-1.12-0.561-1.078-1.332h4.787v-0.377
		c0-2.353-1.456-3.891-3.836-3.891c-1.021,0-2.113,0.349-2.842,1.105c-0.671,0.685-1.049,1.737-1.049,2.702
		c0,1.022,0.406,2.003,1.175,2.688c0.812,0.713,1.834,0.937,2.884,0.937c1.693,0,3.233-0.797,3.668-2.533L278.118,276.438
		L278.118,276.438z M275.935,274.577c-0.027-0.659,0.267-1.234,0.994-1.234c0.784,0,1.007,0.533,1.007,1.234H275.935
		L275.935,274.577z M285.963,269.397h-2.77v9.602h2.77V269.397L285.963,269.397z M291.959,273.847h1.736v-1.762h-1.765
		c-0.069-0.673,0.126-1.066,0.812-1.01l1.26,0.112v-1.748l-2.058-0.182c-0.825,0-1.693,0.112-2.238,0.783
		c-0.477,0.588-0.519,1.245-0.519,1.947v0.098h-1.008v1.762h1.008v5.152h2.771V273.847L291.959,273.847z M298.846,274.045h-3.554
		v2.21h3.554V274.045L298.846,274.045z M303.627,273.315v-1.468h-2.364v7.152h2.771v-3.107c0-0.42,0-0.882,0.195-1.232
		c0.225-0.406,0.687-0.49,1.135-0.49c0.182,0,0.363,0.028,0.531,0.07v-2.505l-0.378-0.028c-1.105-0.084-1.624,0.614-1.861,1.608
		H303.627L303.627,273.315z M312.803,276.438c-0.111,0.617-0.462,0.869-1.092,0.869c-0.84,0-1.12-0.561-1.078-1.332h4.787v-0.377
		c0-2.353-1.455-3.891-3.835-3.891c-1.022,0-2.113,0.349-2.841,1.105c-0.672,0.685-1.051,1.737-1.051,2.702
		c0,1.022,0.406,2.003,1.177,2.688c0.812,0.713,1.833,0.937,2.883,0.937c1.694,0,3.233-0.797,3.667-2.533L312.803,276.438
		L312.803,276.438z M310.619,274.577c-0.028-0.659,0.266-1.234,0.994-1.234c0.783,0,1.008,0.533,1.008,1.234H310.619
		L310.619,274.577z M320.907,273.847h1.735v-1.762h-1.764c-0.07-0.673,0.126-1.066,0.812-1.01l1.26,0.112v-1.748l-2.059-0.182
		c-0.826,0-1.692,0.112-2.238,0.783c-0.477,0.588-0.518,1.245-0.518,1.947v0.098h-1.008v1.762h1.008v5.152h2.771V273.847
		L320.907,273.847z M327.625,269.397h-2.771v9.602h2.771V269.397L327.625,269.397z M335.147,276.438
		c-0.111,0.617-0.462,0.869-1.092,0.869c-0.84,0-1.12-0.561-1.078-1.332h4.787v-0.377c0-2.353-1.455-3.891-3.835-3.891
		c-1.021,0-2.113,0.349-2.841,1.105c-0.672,0.685-1.05,1.737-1.05,2.702c0,1.022,0.406,2.003,1.176,2.688
		c0.812,0.713,1.833,0.937,2.883,0.937c1.694,0,3.233-0.797,3.667-2.533L335.147,276.438L335.147,276.438z M332.964,274.577
		c-0.028-0.659,0.266-1.234,0.994-1.234c0.784,0,1.008,0.533,1.008,1.234H332.964L332.964,274.577z M347.331,278.999l-2.547-3.905
		l2.085-3.247h-2.31l-0.784,1.342l-0.084,0.154l-0.125,0.225l-0.154-0.253l-0.07-0.154l-0.728-1.314h-3.136l2.198,3.359
		l-2.506,3.793h2.282l1.398-2.281l1.316,2.281H347.331L347.331,278.999z M352.068,271.847h-2.77v7.152h2.77V271.847L352.068,271.847
		z M352.068,269.257h-2.77v1.902h2.77V269.257L352.068,269.257z M361.551,271.847h-2.002l-1.008,3.023l-0.251,0.756l-1.232-3.779
		h-2.896l2.673,7.152h2.099L361.551,271.847L361.551,271.847z M366.316,271.847h-2.771v7.152h2.771V271.847L366.316,271.847z
		 M366.316,269.257h-2.771v1.902h2.771V269.257L366.316,269.257z M369.56,273.665v2.703c0,0.77-0.014,1.457,0.532,2.045
		c0.546,0.587,1.259,0.824,2.001,0.726l1.638-0.209v-2.002c-0.266,0.07-0.531,0.126-0.798,0.126c-0.657,0-0.602-0.406-0.602-0.924
		v-2.465h1.399v-1.818h-1.428v-2.366l-2.407,0.084l-0.21,2.282h-1.162v1.818H369.56L369.56,273.665z M383.039,271.847h-2.043
		l-1.246,3.807l-1.176-3.807h-3.01l2.506,6.468c0.069,0.196,0.182,0.434,0.182,0.644c0,0.56-0.84,0.546-1.218,0.546l-1.007-0.084
		v1.986l0.237,0.014l1.175,0.056c1.597,0,2.311-0.559,2.843-2.042L383.039,271.847L383.039,271.847z"/>
	<path d="M214.444,224.597c0-0.338,0.116-1.133,0.349-2.386c0.218-1.19,0.328-1.923,0.328-2.201c0-0.652-0.251-1.174-0.752-1.566
		c-0.501-0.392-1.186-0.588-2.051-0.588c-1.454,0-2.468,0.566-3.042,1.696l1.367,0.43c0.338-0.642,0.873-0.963,1.607-0.963
		c0.383,0,0.703,0.095,0.96,0.287c0.258,0.191,0.386,0.474,0.386,0.847c0,0.123-0.016,0.29-0.047,0.499
		c-0.256-0.018-0.479-0.027-0.67-0.027c-1.481,0-2.57,0.23-3.264,0.69c-0.696,0.461-1.043,1.081-1.043,1.86
		c0,0.565,0.195,1.04,0.585,1.425c0.389,0.385,0.894,0.578,1.514,0.578c0.515,0,0.986-0.15,1.415-0.448
		c0.428-0.298,0.756-0.708,0.984-1.227c-0.082,0.465-0.123,0.864-0.123,1.196c0,0.078,0.005,0.178,0.014,0.301h1.51
		C214.453,224.854,214.444,224.72,214.444,224.597L214.444,224.597L214.444,224.597z M212.571,223.356
		c-0.396,0.408-0.827,0.612-1.292,0.612c-0.324,0-0.579-0.088-0.766-0.263c-0.186-0.176-0.28-0.403-0.28-0.681
		c0-0.483,0.233-0.849,0.697-1.1c0.465-0.251,1.292-0.408,2.482-0.472C213.248,222.313,212.968,222.948,212.571,223.356
		L212.571,223.356z M217.004,223.312c0.483,1.226,1.515,1.838,3.096,1.838c0.989,0,1.736-0.221,2.239-0.663
		c0.504-0.442,0.756-0.991,0.756-1.647c0-0.387-0.104-0.73-0.311-1.029c-0.208-0.298-0.49-0.529-0.848-0.69
		c-0.358-0.162-0.906-0.352-1.644-0.571c-0.324-0.091-0.539-0.194-0.646-0.308c-0.107-0.114-0.161-0.257-0.161-0.43
		c0-0.247,0.11-0.442,0.328-0.588c0.219-0.146,0.486-0.219,0.8-0.219c0.702,0,1.205,0.303,1.511,0.909l1.319-0.424
		c-0.551-1.094-1.508-1.64-2.871-1.64c-0.838,0-1.488,0.224-1.948,0.673c-0.461,0.449-0.691,0.976-0.691,1.582
		c0,0.388,0.104,0.732,0.308,1.033c0.205,0.3,0.458,0.524,0.759,0.67c0.301,0.146,0.763,0.305,1.388,0.478
		c0.387,0.11,0.661,0.221,0.823,0.335c0.162,0.114,0.243,0.269,0.243,0.465c0,0.264-0.12,0.482-0.359,0.653
		c-0.239,0.171-0.566,0.256-0.981,0.256c-0.829,0-1.379-0.346-1.647-1.039L217.004,223.312L217.004,223.312z M232.785,221.042h3.35
		l0.232-1.388h-3.349l0.423-2.522h4.027l0.246-1.463h-5.742L230.413,225h1.709L232.785,221.042L232.785,221.042z M241.807,215.573
		h-1.606l-0.28,1.668h1.606L241.807,215.573L241.807,215.573z M241.39,218.048h-1.606L238.622,225h1.606L241.39,218.048
		L241.39,218.048z M243.184,224.962c-0.191,0.217-0.287,0.512-0.287,0.886c0,1.089,1.023,1.633,3.07,1.633
		c1.385,0,2.355-0.235,2.908-0.707c0.554-0.472,0.831-0.995,0.831-1.569c0-0.337-0.106-0.653-0.318-0.947s-0.506-0.508-0.882-0.642
		c-0.376-0.135-0.967-0.202-1.774-0.202h-0.827c-0.451,0-0.75-0.056-0.896-0.167c-0.145-0.112-0.218-0.266-0.218-0.462
		c0-0.355,0.207-0.638,0.622-0.847c0.501,0.132,0.952,0.198,1.353,0.198c0.948,0,1.677-0.212,2.188-0.636
		c0.51-0.424,0.765-0.962,0.765-1.613c0-0.748-0.355-1.299-1.066-1.655c0.132-0.364,0.319-0.587,0.561-0.669
		c0.241-0.083,0.485-0.124,0.731-0.124c0.096,0,0.267,0.012,0.513,0.035l0.013-1.19c-0.173-0.023-0.328-0.034-0.464-0.034
		c-0.502,0-0.912,0.119-1.231,0.355c-0.319,0.237-0.59,0.695-0.813,1.374c-0.233-0.068-0.52-0.102-0.862-0.102
		c-0.97,0-1.729,0.201-2.279,0.602c-0.55,0.401-0.824,0.957-0.824,1.667c0,0.575,0.262,1.051,0.786,1.429
		c-0.552,0.274-0.917,0.539-1.097,0.797c-0.18,0.257-0.27,0.557-0.27,0.899c0,0.446,0.196,0.804,0.588,1.073
		C243.649,224.54,243.376,224.746,243.184,224.962L243.184,224.962z M245.597,220.167c0-0.392,0.128-0.708,0.383-0.947
		c0.255-0.239,0.606-0.359,1.053-0.359c0.752,0,1.128,0.344,1.128,1.033c0,0.405-0.123,0.728-0.369,0.967
		c-0.246,0.239-0.591,0.359-1.033,0.359C245.985,221.22,245.597,220.869,245.597,220.167L245.597,220.167L245.597,220.167z
		 M246.356,224.815c0.839,0,1.361,0.034,1.566,0.1s0.307,0.235,0.307,0.509c0,0.702-0.654,1.053-1.962,1.053
		c-0.674,0-1.18-0.1-1.517-0.298c-0.338-0.198-0.506-0.45-0.506-0.755c0-0.242,0.15-0.486,0.451-0.732
		C244.927,224.774,245.481,224.815,246.356,224.815L246.356,224.815L246.356,224.815z M258.481,218.048h-1.532l-0.492,2.939
		c-0.114,0.675-0.239,1.186-0.376,1.535c-0.137,0.349-0.369,0.653-0.697,0.913c-0.328,0.259-0.649,0.389-0.964,0.389
		c-0.228,0-0.412-0.066-0.554-0.198c-0.141-0.132-0.212-0.31-0.212-0.533c0-0.091,0.032-0.335,0.096-0.732l0.725-4.313h-1.531
		l-0.67,4.006c-0.119,0.697-0.178,1.157-0.178,1.381c0,0.428,0.146,0.818,0.437,1.169c0.292,0.35,0.711,0.526,1.258,0.526
		c0.985,0,1.771-0.549,2.359-1.648L255.897,225h1.422L258.481,218.048L258.481,218.048z M262.492,222.341
		c0.127-0.775,0.286-1.332,0.475-1.672c0.189-0.339,0.451-0.609,0.786-0.81c0.335-0.2,0.69-0.3,1.07-0.3
		c0.076,0,0.19,0.004,0.342,0.013l0.198-1.709c-0.082-0.004-0.145-0.007-0.186-0.007c-1.007,0-1.809,0.695-2.406,2.085l0.314-1.893
		h-1.408L260.516,225h1.531L262.492,222.341L262.492,222.341z M272.614,224.597c0-0.338,0.115-1.133,0.348-2.386
		c0.219-1.19,0.329-1.923,0.329-2.201c0-0.652-0.251-1.174-0.752-1.566c-0.502-0.392-1.186-0.588-2.051-0.588
		c-1.454,0-2.469,0.566-3.042,1.696l1.366,0.43c0.337-0.642,0.873-0.963,1.607-0.963c0.382,0,0.702,0.095,0.96,0.287
		c0.257,0.191,0.386,0.474,0.386,0.847c0,0.123-0.016,0.29-0.048,0.499c-0.255-0.018-0.478-0.027-0.67-0.027
		c-1.481,0-2.569,0.23-3.264,0.69c-0.695,0.461-1.042,1.081-1.042,1.86c0,0.565,0.194,1.04,0.584,1.425
		c0.39,0.385,0.895,0.578,1.514,0.578c0.515,0,0.987-0.15,1.415-0.448c0.429-0.298,0.757-0.708,0.985-1.227
		c-0.082,0.465-0.123,0.864-0.123,1.196c0,0.078,0.004,0.178,0.013,0.301h1.511C272.623,224.854,272.614,224.72,272.614,224.597
		L272.614,224.597L272.614,224.597z M270.741,223.356c-0.397,0.408-0.827,0.612-1.292,0.612c-0.324,0-0.579-0.088-0.767-0.263
		c-0.187-0.176-0.28-0.403-0.28-0.681c0-0.483,0.232-0.849,0.697-1.1s1.292-0.408,2.482-0.472
		C271.418,222.313,271.137,222.948,270.741,223.356L270.741,223.356z M279.104,223.749c-0.195,0.032-0.362,0.048-0.5,0.048
		c-0.655,0-0.983-0.221-0.983-0.663c0-0.11,0.032-0.356,0.096-0.738l0.519-3.097h1.505l0.204-1.251h-1.496l0.327-1.969l-1.394,0.096
		l-0.417,1.873h-1.046l-0.212,1.251h1.032l-0.526,3.076c-0.105,0.62-0.157,1.037-0.157,1.251c0,0.415,0.149,0.767,0.447,1.056
		c0.299,0.29,0.769,0.434,1.412,0.434c0.19,0,0.517-0.034,0.978-0.102L279.104,223.749L279.104,223.749z M284.587,215.573h-1.606
		l-0.28,1.668h1.606L284.587,215.573L284.587,215.573z M284.17,218.048h-1.606L281.4,225h1.607L284.17,218.048L284.17,218.048z
		 M292.698,218.048h-1.354l-2.262,4.867l-0.923-4.867h-1.675L287.96,225h1.429L292.698,218.048L292.698,218.048z M298.545,222.676
		c-0.374,0.861-0.921,1.292-1.641,1.292c-0.465,0-0.823-0.16-1.076-0.479c-0.253-0.319-0.38-0.74-0.38-1.264
		c0-0.151,0.016-0.324,0.048-0.52h4.779c0.013-0.196,0.02-0.378,0.02-0.547c0-1.016-0.238-1.818-0.714-2.406
		c-0.478-0.588-1.181-0.882-2.109-0.882c-1.035,0-1.881,0.408-2.54,1.224c-0.658,0.816-0.988,1.816-0.988,3.001
		c0,0.929,0.262,1.675,0.783,2.235c0.522,0.561,1.239,0.841,2.15,0.841c1.385,0,2.396-0.711,3.035-2.133L298.545,222.676
		L298.545,222.676z M295.66,220.714c0.269-1.176,0.875-1.764,1.818-1.764c0.911,0,1.367,0.588,1.367,1.764H295.66L295.66,220.714z
		 M302.084,223.312c0.482,1.226,1.516,1.838,3.097,1.838c0.989,0,1.735-0.221,2.239-0.663c0.503-0.442,0.755-0.991,0.755-1.647
		c0-0.387-0.103-0.73-0.311-1.029c-0.207-0.298-0.49-0.529-0.848-0.69c-0.357-0.162-0.905-0.352-1.645-0.571
		c-0.323-0.091-0.538-0.194-0.646-0.308c-0.107-0.114-0.16-0.257-0.16-0.43c0-0.247,0.108-0.442,0.327-0.588
		c0.22-0.146,0.485-0.219,0.8-0.219c0.702,0,1.205,0.303,1.512,0.909l1.318-0.424c-0.552-1.094-1.509-1.64-2.87-1.64
		c-0.84,0-1.488,0.224-1.948,0.673c-0.461,0.449-0.691,0.976-0.691,1.582c0,0.388,0.104,0.732,0.309,1.033
		c0.205,0.3,0.458,0.524,0.759,0.67c0.3,0.146,0.763,0.305,1.387,0.478c0.387,0.11,0.662,0.221,0.824,0.335
		c0.162,0.114,0.243,0.269,0.243,0.465c0,0.264-0.12,0.482-0.359,0.653c-0.24,0.171-0.566,0.256-0.98,0.256
		c-0.83,0-1.379-0.346-1.648-1.039L302.084,223.312L302.084,223.312z"/>
	<path d="M214.444,206.597c0-0.338,0.116-1.133,0.349-2.386c0.218-1.19,0.328-1.923,0.328-2.201c0-0.652-0.251-1.174-0.752-1.566
		c-0.501-0.392-1.186-0.588-2.051-0.588c-1.454,0-2.468,0.566-3.042,1.696l1.367,0.43c0.338-0.642,0.873-0.963,1.607-0.963
		c0.383,0,0.703,0.095,0.96,0.287c0.258,0.191,0.386,0.474,0.386,0.847c0,0.123-0.016,0.29-0.047,0.499
		c-0.256-0.018-0.479-0.027-0.67-0.027c-1.481,0-2.57,0.23-3.264,0.69c-0.696,0.461-1.043,1.081-1.043,1.86
		c0,0.565,0.195,1.04,0.585,1.425c0.389,0.385,0.894,0.578,1.514,0.578c0.515,0,0.986-0.15,1.415-0.448
		c0.428-0.298,0.756-0.708,0.984-1.227c-0.082,0.465-0.123,0.864-0.123,1.196c0,0.078,0.005,0.178,0.014,0.301h1.51
		C214.453,206.854,214.444,206.72,214.444,206.597L214.444,206.597L214.444,206.597z M212.571,205.356
		c-0.396,0.408-0.827,0.612-1.292,0.612c-0.324,0-0.579-0.088-0.766-0.263c-0.186-0.176-0.28-0.403-0.28-0.681
		c0-0.483,0.233-0.849,0.697-1.1c0.465-0.251,1.292-0.408,2.482-0.472C213.248,204.313,212.968,204.948,212.571,205.356
		L212.571,205.356z M217.004,205.312c0.483,1.226,1.515,1.838,3.096,1.838c0.989,0,1.736-0.221,2.239-0.663
		c0.504-0.442,0.756-0.991,0.756-1.647c0-0.387-0.104-0.73-0.311-1.029c-0.208-0.298-0.49-0.529-0.848-0.69
		c-0.358-0.162-0.906-0.352-1.644-0.571c-0.324-0.091-0.539-0.194-0.646-0.308c-0.107-0.114-0.161-0.257-0.161-0.43
		c0-0.247,0.11-0.442,0.328-0.588c0.219-0.146,0.486-0.219,0.8-0.219c0.702,0,1.205,0.303,1.511,0.909l1.319-0.424
		c-0.551-1.094-1.508-1.64-2.871-1.64c-0.838,0-1.488,0.224-1.948,0.673c-0.461,0.449-0.691,0.976-0.691,1.582
		c0,0.388,0.104,0.732,0.308,1.033c0.205,0.3,0.458,0.524,0.759,0.67c0.301,0.146,0.763,0.305,1.388,0.478
		c0.387,0.11,0.661,0.221,0.823,0.335c0.162,0.114,0.243,0.269,0.243,0.465c0,0.264-0.12,0.482-0.359,0.653
		c-0.239,0.171-0.566,0.256-0.981,0.256c-0.829,0-1.379-0.346-1.647-1.039L217.004,205.312L217.004,205.312z M237.413,197.669h-6.46
		l-0.246,1.463h2.372L231.76,207h1.716l1.319-7.868h2.372L237.413,197.669L237.413,197.669z M243.235,206.597
		c0-0.338,0.116-1.133,0.348-2.386c0.219-1.19,0.329-1.923,0.329-2.201c0-0.652-0.251-1.174-0.752-1.566
		c-0.502-0.392-1.185-0.588-2.051-0.588c-1.454,0-2.468,0.566-3.042,1.696l1.367,0.43c0.337-0.642,0.873-0.963,1.606-0.963
		c0.383,0,0.703,0.095,0.961,0.287c0.257,0.191,0.386,0.474,0.386,0.847c0,0.123-0.016,0.29-0.048,0.499
		c-0.255-0.018-0.478-0.027-0.67-0.027c-1.481,0-2.569,0.23-3.264,0.69c-0.695,0.461-1.042,1.081-1.042,1.86
		c0,0.565,0.195,1.04,0.584,1.425c0.39,0.385,0.895,0.578,1.514,0.578c0.515,0,0.987-0.15,1.415-0.448
		c0.429-0.298,0.757-0.708,0.985-1.227c-0.082,0.465-0.123,0.864-0.123,1.196c0,0.078,0.004,0.178,0.013,0.301h1.511
		C243.244,206.854,243.235,206.72,243.235,206.597L243.235,206.597L243.235,206.597z M241.362,205.356
		c-0.397,0.408-0.827,0.612-1.292,0.612c-0.324,0-0.579-0.088-0.766-0.263c-0.187-0.176-0.28-0.403-0.28-0.681
		c0-0.483,0.232-0.849,0.697-1.1c0.465-0.251,1.292-0.408,2.482-0.472C242.039,204.313,241.758,204.948,241.362,205.356
		L241.362,205.356z M252.891,200.048h-1.532l-0.492,2.939c-0.114,0.675-0.239,1.186-0.376,1.535
		c-0.136,0.349-0.369,0.653-0.697,0.913c-0.328,0.259-0.649,0.389-0.964,0.389c-0.228,0-0.412-0.066-0.554-0.198
		c-0.141-0.132-0.212-0.31-0.212-0.533c0-0.091,0.032-0.335,0.096-0.732l0.725-4.313h-1.531l-0.67,4.006
		c-0.119,0.697-0.178,1.157-0.178,1.381c0,0.428,0.146,0.818,0.437,1.169c0.292,0.35,0.711,0.526,1.258,0.526
		c0.985,0,1.771-0.549,2.359-1.648L250.307,207h1.422L252.891,200.048L252.891,200.048z M258.459,205.749
		c-0.196,0.032-0.362,0.048-0.499,0.048c-0.656,0-0.984-0.221-0.984-0.663c0-0.11,0.032-0.356,0.095-0.738l0.52-3.097h1.504
		l0.205-1.251h-1.497l0.328-1.969l-1.394,0.096l-0.417,1.873h-1.046l-0.212,1.251h1.032l-0.526,3.076
		c-0.105,0.62-0.158,1.037-0.158,1.251c0,0.415,0.15,0.767,0.448,1.056c0.299,0.29,0.769,0.434,1.412,0.434
		c0.191,0,0.517-0.034,0.977-0.102L258.459,205.749L258.459,205.749z M266.349,205.899c0.62-0.852,0.931-1.781,0.931-2.789
		c0-0.979-0.261-1.76-0.78-2.341s-1.212-0.872-2.078-0.872c-1.053,0-1.905,0.405-2.556,1.214c-0.652,0.809-0.978,1.767-0.978,2.874
		c0,0.684,0.127,1.273,0.379,1.767c0.253,0.495,0.62,0.856,1.101,1.084s0.979,0.342,1.495,0.342
		C264.899,207.178,265.729,206.752,266.349,205.899L266.349,205.899z M262.869,205.517c-0.273-0.274-0.41-0.7-0.41-1.279
		c0-0.683,0.142-1.369,0.424-2.057c0.283-0.688,0.75-1.033,1.402-1.033c0.929,0,1.394,0.602,1.394,1.805
		c0,0.702-0.146,1.373-0.437,2.013c-0.292,0.641-0.748,0.961-1.368,0.961C263.478,205.927,263.143,205.79,262.869,205.517
		L262.869,205.517z M272.584,197.669h-1.606L269.419,207h1.605L272.584,197.669L272.584,197.669z M279.785,205.899
		c0.62-0.852,0.93-1.781,0.93-2.789c0-0.979-0.26-1.76-0.779-2.341s-1.212-0.872-2.078-0.872c-1.053,0-1.904,0.405-2.557,1.214
		s-0.977,1.767-0.977,2.874c0,0.684,0.126,1.273,0.379,1.767c0.253,0.495,0.62,0.856,1.101,1.084s0.979,0.342,1.493,0.342
		C278.336,207.178,279.166,206.752,279.785,205.899L279.785,205.899z M276.306,205.517c-0.272-0.274-0.41-0.7-0.41-1.279
		c0-0.683,0.142-1.369,0.425-2.057c0.281-0.688,0.748-1.033,1.4-1.033c0.93,0,1.396,0.602,1.396,1.805
		c0,0.702-0.146,1.373-0.438,2.013c-0.292,0.641-0.747,0.961-1.367,0.961C276.914,205.927,276.579,205.79,276.306,205.517
		L276.306,205.517z M282.662,206.962c-0.192,0.217-0.288,0.512-0.288,0.886c0,1.089,1.022,1.633,3.069,1.633
		c1.386,0,2.355-0.235,2.908-0.707c0.555-0.472,0.831-0.995,0.831-1.569c0-0.337-0.105-0.653-0.317-0.947
		c-0.213-0.294-0.506-0.508-0.883-0.642c-0.376-0.135-0.967-0.202-1.773-0.202h-0.827c-0.451,0-0.749-0.056-0.896-0.167
		c-0.146-0.112-0.219-0.266-0.219-0.462c0-0.355,0.207-0.638,0.622-0.847c0.501,0.132,0.952,0.198,1.354,0.198
		c0.947,0,1.677-0.212,2.187-0.636s0.767-0.962,0.767-1.613c0-0.748-0.356-1.299-1.067-1.655c0.132-0.364,0.319-0.587,0.562-0.669
		c0.24-0.083,0.484-0.124,0.73-0.124c0.096,0,0.267,0.012,0.513,0.035l0.015-1.19c-0.174-0.023-0.328-0.034-0.465-0.034
		c-0.503,0-0.912,0.119-1.231,0.355c-0.319,0.237-0.59,0.695-0.813,1.374c-0.232-0.068-0.52-0.102-0.86-0.102
		c-0.972,0-1.731,0.201-2.28,0.602s-0.824,0.957-0.824,1.667c0,0.575,0.262,1.051,0.786,1.429c-0.551,0.274-0.917,0.539-1.097,0.797
		c-0.18,0.257-0.271,0.557-0.271,0.899c0,0.446,0.196,0.804,0.588,1.073C283.126,206.54,282.853,206.746,282.662,206.962
		L282.662,206.962z M285.075,202.167c0-0.392,0.127-0.708,0.382-0.947c0.256-0.239,0.605-0.359,1.053-0.359
		c0.752,0,1.128,0.344,1.128,1.033c0,0.405-0.123,0.728-0.369,0.967c-0.246,0.239-0.59,0.359-1.031,0.359
		C285.462,203.22,285.075,202.869,285.075,202.167L285.075,202.167L285.075,202.167z M285.833,206.815c0.839,0,1.36,0.034,1.565,0.1
		s0.308,0.235,0.308,0.509c0,0.702-0.654,1.053-1.961,1.053c-0.675,0-1.182-0.1-1.519-0.298c-0.337-0.198-0.506-0.45-0.506-0.755
		c0-0.242,0.15-0.486,0.451-0.732C284.405,206.774,284.958,206.815,285.833,206.815L285.833,206.815L285.833,206.815z
		 M294.652,197.573h-1.606l-0.28,1.668h1.606L294.652,197.573L294.652,197.573z M294.236,200.048h-1.607L291.467,207h1.607
		L294.236,200.048L294.236,200.048z M300.973,204.676c-0.374,0.861-0.921,1.292-1.641,1.292c-0.465,0-0.824-0.16-1.077-0.479
		c-0.253-0.319-0.379-0.74-0.379-1.264c0-0.151,0.016-0.324,0.048-0.52h4.778c0.014-0.196,0.021-0.378,0.021-0.547
		c0-1.016-0.238-1.818-0.715-2.406c-0.476-0.588-1.179-0.882-2.109-0.882c-1.033,0-1.881,0.408-2.539,1.224
		c-0.658,0.816-0.987,1.816-0.987,3.001c0,0.929,0.261,1.675,0.783,2.235c0.521,0.561,1.237,0.841,2.149,0.841
		c1.385,0,2.397-0.711,3.035-2.133L300.973,204.676L300.973,204.676z M298.088,202.714c0.269-1.176,0.875-1.764,1.818-1.764
		c0.912,0,1.366,0.588,1.366,1.764H298.088L298.088,202.714z M304.512,205.312c0.483,1.226,1.516,1.838,3.098,1.838
		c0.988,0,1.734-0.221,2.238-0.663c0.503-0.442,0.755-0.991,0.755-1.647c0-0.387-0.104-0.73-0.311-1.029
		c-0.208-0.298-0.49-0.529-0.849-0.69c-0.357-0.162-0.905-0.352-1.644-0.571c-0.323-0.091-0.539-0.194-0.646-0.308
		c-0.107-0.114-0.161-0.257-0.161-0.43c0-0.247,0.109-0.442,0.329-0.588c0.218-0.146,0.484-0.219,0.799-0.219
		c0.702,0,1.206,0.303,1.511,0.909l1.32-0.424c-0.552-1.094-1.509-1.64-2.872-1.64c-0.838,0-1.488,0.224-1.948,0.673
		c-0.46,0.449-0.69,0.976-0.69,1.582c0,0.388,0.103,0.732,0.308,1.033c0.205,0.3,0.458,0.524,0.759,0.67s0.763,0.305,1.388,0.478
		c0.388,0.11,0.662,0.221,0.824,0.335c0.161,0.114,0.242,0.269,0.242,0.465c0,0.264-0.119,0.482-0.359,0.653
		c-0.238,0.171-0.565,0.256-0.98,0.256c-0.829,0-1.378-0.346-1.647-1.039L304.512,205.312L304.512,205.312z"/>
	<path d="M214.444,188.597c0-0.338,0.116-1.133,0.349-2.386c0.218-1.19,0.328-1.923,0.328-2.201c0-0.652-0.251-1.174-0.752-1.566
		c-0.501-0.392-1.186-0.588-2.051-0.588c-1.454,0-2.468,0.566-3.042,1.696l1.367,0.43c0.338-0.642,0.873-0.963,1.607-0.963
		c0.383,0,0.703,0.095,0.96,0.287c0.258,0.191,0.386,0.474,0.386,0.847c0,0.123-0.016,0.29-0.047,0.499
		c-0.256-0.018-0.479-0.027-0.67-0.027c-1.481,0-2.57,0.23-3.264,0.69c-0.696,0.461-1.043,1.081-1.043,1.86
		c0,0.565,0.195,1.04,0.585,1.425c0.389,0.385,0.894,0.578,1.514,0.578c0.515,0,0.986-0.15,1.415-0.448
		c0.428-0.298,0.756-0.708,0.984-1.227c-0.082,0.465-0.123,0.864-0.123,1.196c0,0.078,0.005,0.178,0.014,0.301h1.51
		C214.453,188.854,214.444,188.72,214.444,188.597L214.444,188.597L214.444,188.597z M212.571,187.356
		c-0.396,0.408-0.827,0.612-1.292,0.612c-0.324,0-0.579-0.088-0.766-0.263c-0.186-0.176-0.28-0.403-0.28-0.681
		c0-0.483,0.233-0.849,0.697-1.1c0.465-0.251,1.292-0.408,2.482-0.472C213.248,186.313,212.968,186.948,212.571,187.356
		L212.571,187.356z M217.004,187.312c0.483,1.226,1.515,1.838,3.096,1.838c0.989,0,1.736-0.221,2.239-0.663
		c0.504-0.442,0.756-0.991,0.756-1.647c0-0.387-0.104-0.73-0.311-1.029c-0.208-0.298-0.49-0.529-0.848-0.69
		c-0.358-0.162-0.906-0.352-1.644-0.571c-0.324-0.091-0.539-0.194-0.646-0.308c-0.107-0.114-0.161-0.257-0.161-0.43
		c0-0.247,0.11-0.442,0.328-0.588c0.219-0.146,0.486-0.219,0.8-0.219c0.702,0,1.205,0.303,1.511,0.909l1.319-0.424
		c-0.551-1.094-1.508-1.64-2.871-1.64c-0.838,0-1.488,0.224-1.948,0.673c-0.461,0.449-0.691,0.976-0.691,1.582
		c0,0.388,0.104,0.732,0.308,1.033c0.205,0.3,0.458,0.524,0.759,0.67c0.301,0.146,0.763,0.305,1.388,0.478
		c0.387,0.11,0.661,0.221,0.823,0.335c0.162,0.114,0.243,0.269,0.243,0.465c0,0.264-0.12,0.482-0.359,0.653
		c-0.239,0.171-0.566,0.256-0.981,0.256c-0.829,0-1.379-0.346-1.647-1.039L217.004,187.312L217.004,187.312z M242.991,179.669
		h-1.476l-2.837,7.048l-0.745-7.048h-1.661l-2.865,7.048l-0.622-7.048h-1.805l1.094,9.399h1.62l2.878-7.027l0.821,7.027h1.681
		L242.991,179.669L242.991,179.669z M249.163,187.899c0.62-0.852,0.93-1.781,0.93-2.789c0-0.979-0.26-1.76-0.78-2.341
		c-0.519-0.581-1.212-0.872-2.078-0.872c-1.052,0-1.905,0.405-2.556,1.214c-0.652,0.809-0.978,1.767-0.978,2.874
		c0,0.684,0.127,1.273,0.38,1.767c0.252,0.495,0.619,0.856,1.1,1.084c0.481,0.228,0.979,0.342,1.494,0.342
		C247.714,189.178,248.543,188.752,249.163,187.899L249.163,187.899z M245.684,187.517c-0.274-0.274-0.411-0.7-0.411-1.279
		c0-0.683,0.142-1.369,0.424-2.057c0.283-0.688,0.75-1.033,1.402-1.033c0.929,0,1.394,0.602,1.394,1.805
		c0,0.702-0.146,1.373-0.437,2.013c-0.292,0.641-0.748,0.961-1.368,0.961C246.292,187.927,245.957,187.79,245.684,187.517
		L245.684,187.517z M254.209,186.341c0.127-0.775,0.286-1.332,0.475-1.672c0.189-0.339,0.451-0.609,0.786-0.81
		c0.335-0.2,0.691-0.3,1.07-0.3c0.077,0,0.191,0.004,0.342,0.013l0.198-1.709c-0.082-0.004-0.144-0.007-0.185-0.007
		c-1.007,0-1.809,0.695-2.406,2.085l0.314-1.893h-1.408L252.233,189h1.531L254.209,186.341L254.209,186.341z M265.744,179.669
		h-1.531l-0.595,3.527c-0.306-0.92-0.938-1.381-1.895-1.381c-0.893,0-1.629,0.441-2.208,1.323c-0.578,0.882-0.868,1.938-0.868,3.169
		c0,0.902,0.19,1.603,0.571,2.102c0.38,0.499,0.883,0.748,1.507,0.748c0.907,0,1.641-0.531,2.201-1.593L262.688,189h1.49
		L265.744,179.669L265.744,179.669z M260.214,186.416c0-0.838,0.15-1.601,0.451-2.287c0.301-0.685,0.747-1.028,1.34-1.028
		c0.387,0,0.698,0.15,0.933,0.451c0.234,0.301,0.353,0.695,0.353,1.182c0,0.789-0.176,1.515-0.527,2.178
		c-0.351,0.663-0.822,0.994-1.415,0.994C260.592,187.906,260.214,187.41,260.214,186.416L260.214,186.416L260.214,186.416z
		 M269.106,187.77c0.343,0.952,0.989,1.428,1.941,1.428c0.884,0,1.601-0.462,2.15-1.387c0.549-0.926,0.823-1.946,0.823-3.063
		c0-0.898-0.203-1.611-0.608-2.14c-0.405-0.528-0.935-0.793-1.586-0.793c-0.865,0-1.585,0.556-2.16,1.668l0.24-1.435h-1.368
		l-1.572,9.379h1.531L269.106,187.77L269.106,187.77z M269.794,187.513c-0.267-0.289-0.4-0.723-0.4-1.302
		c0-0.788,0.186-1.51,0.558-2.164c0.371-0.654,0.833-0.981,1.384-0.981c0.729,0,1.094,0.6,1.094,1.798
		c0,0.711-0.145,1.403-0.434,2.075c-0.29,0.672-0.701,1.008-1.234,1.008C270.383,187.947,270.06,187.803,269.794,187.513
		L269.794,187.513z M279.322,179.669h-1.606L276.157,189h1.605L279.322,179.669L279.322,179.669z M286.707,188.597
		c0-0.338,0.117-1.133,0.349-2.386c0.22-1.19,0.328-1.923,0.328-2.201c0-0.652-0.251-1.174-0.752-1.566s-1.185-0.588-2.051-0.588
		c-1.453,0-2.467,0.566-3.042,1.696l1.368,0.43c0.337-0.642,0.872-0.963,1.605-0.963c0.383,0,0.703,0.095,0.961,0.287
		c0.257,0.191,0.386,0.474,0.386,0.847c0,0.123-0.016,0.29-0.048,0.499c-0.255-0.018-0.479-0.027-0.67-0.027
		c-1.48,0-2.568,0.23-3.264,0.69c-0.695,0.461-1.043,1.081-1.043,1.86c0,0.565,0.195,1.04,0.585,1.425
		c0.389,0.385,0.894,0.578,1.514,0.578c0.516,0,0.987-0.15,1.415-0.448c0.429-0.298,0.756-0.708,0.984-1.227
		c-0.082,0.465-0.123,0.864-0.123,1.196c0,0.078,0.005,0.178,0.014,0.301h1.511C286.716,188.854,286.707,188.72,286.707,188.597
		L286.707,188.597L286.707,188.597z M284.834,187.356c-0.396,0.408-0.827,0.612-1.292,0.612c-0.323,0-0.578-0.088-0.765-0.263
		c-0.188-0.176-0.281-0.403-0.281-0.681c0-0.483,0.232-0.849,0.697-1.1c0.466-0.251,1.293-0.408,2.481-0.472
		C285.511,186.313,285.23,186.948,284.834,187.356L284.834,187.356z M289.602,191.529c0.538,0,0.977-0.086,1.316-0.259
		c0.339-0.174,0.598-0.388,0.775-0.643s0.434-0.716,0.766-1.381l3.569-7.198h-1.341l-2.297,4.785l-1.053-4.785h-1.64l1.702,6.644
		l-0.261,0.554c-0.173,0.369-0.366,0.621-0.578,0.755c-0.212,0.135-0.479,0.202-0.803,0.202c-0.346,0-0.652-0.02-0.916-0.061
		l-0.067,1.326C289.071,191.509,289.347,191.529,289.602,191.529L289.602,191.529L289.602,191.529z"/>
	<path d="M213.881,170.999c-0.21-0.502-0.224-1.034-0.224-1.567v-2.506c0-1.023,0.112-1.946-0.825-2.604
		c-0.7-0.503-1.777-0.615-2.617-0.615c-1.61,0-3.304,0.461-3.724,2.238l2.548,0.238c0.084-0.602,0.546-0.798,1.092-0.798
		c0.672,0,0.84,0.252,0.84,0.896v0.056c-0.938,0.056-1.904,0.168-2.814,0.449c-0.994,0.308-1.876,1.064-1.876,2.198
		c0,1.429,1.162,2.155,2.492,2.155c0.98,0,1.778-0.306,2.338-1.132c0,0.336,0.028,0.672,0.098,0.992H213.881L213.881,170.999z
		 M210.971,167.795c0,0.784-0.014,1.666-1.064,1.666c-0.434,0-0.728-0.196-0.728-0.658c0-0.868,1.12-1.078,1.792-1.148V167.795
		L210.971,167.795z M215.785,168.971c0.532,1.651,2.002,2.168,3.597,2.168c1.61,0,3.696-0.559,3.696-2.532
		c0-0.771-0.35-1.401-1.008-1.821c-0.574-0.35-1.302-0.448-1.946-0.532c-0.336-0.043-0.896-0.085-1.203-0.169
		c-0.182-0.042-0.42-0.14-0.42-0.364c0-0.308,0.671-0.378,0.895-0.378c0.49,0,1.036,0.14,1.246,0.63l2.114-0.406
		c-0.476-1.343-1.89-1.86-3.234-1.86c-0.797,0-1.595,0.112-2.295,0.545c-0.672,0.42-1.106,1.063-1.106,1.875
		c0,1.905,1.778,2.199,3.275,2.409c0.252,0.028,1.204,0.099,1.204,0.463c0,0.42-0.784,0.448-1.063,0.448
		c-0.601,0-1.371-0.084-1.525-0.77L215.785,168.971L215.785,168.971z M239.373,161.397h-2.421l-1.512,5.235l-0.266,0.91l-0.28-0.952
		l-1.512-5.193h-3.093l3.093,9.602h3.01L239.373,161.397L239.373,161.397z M244.16,163.847h-2.771v7.152h2.771V163.847
		L244.16,163.847z M244.16,161.257h-2.771v1.902h2.771V161.257L244.16,161.257z M246.457,168.971
		c0.532,1.651,2.002,2.168,3.597,2.168c1.61,0,3.696-0.559,3.696-2.532c0-0.771-0.35-1.401-1.008-1.821
		c-0.574-0.35-1.302-0.448-1.946-0.532c-0.336-0.043-0.896-0.085-1.203-0.169c-0.182-0.042-0.42-0.14-0.42-0.364
		c0-0.308,0.671-0.378,0.895-0.378c0.49,0,1.036,0.14,1.246,0.63l2.114-0.406c-0.476-1.343-1.89-1.86-3.234-1.86
		c-0.797,0-1.595,0.112-2.295,0.545c-0.672,0.42-1.106,1.063-1.106,1.875c0,1.905,1.778,2.199,3.275,2.409
		c0.252,0.028,1.204,0.099,1.204,0.463c0,0.42-0.784,0.448-1.064,0.448c-0.601,0-1.371-0.084-1.525-0.77L246.457,168.971
		L246.457,168.971z M262.905,170.999v-7.152h-2.77v4.115c0,0.266-0.014,0.518-0.14,0.756c-0.126,0.252-0.392,0.406-0.673,0.406
		c-0.631,0-0.617-0.49-0.617-0.952v-4.325h-2.77v4.941c0,0.673,0.056,1.303,0.56,1.807c0.434,0.405,1.007,0.544,1.595,0.544
		c0.924,0,1.877-0.39,2.171-1.314h0.028v1.174H262.905L262.905,170.999z M272.982,170.999c-0.211-0.502-0.224-1.034-0.224-1.567
		v-2.506c0-1.023,0.112-1.946-0.826-2.604c-0.7-0.503-1.776-0.615-2.616-0.615c-1.61,0-3.305,0.461-3.725,2.238l2.548,0.238
		c0.084-0.602,0.546-0.798,1.092-0.798c0.673,0,0.841,0.252,0.841,0.896v0.056c-0.938,0.056-1.904,0.168-2.814,0.449
		c-0.994,0.308-1.876,1.064-1.876,2.198c0,1.429,1.162,2.155,2.492,2.155c0.979,0,1.778-0.306,2.338-1.132
		c0,0.336,0.028,0.672,0.098,0.992H272.982L272.982,170.999z M270.072,167.795c0,0.784-0.015,1.666-1.064,1.666
		c-0.434,0-0.728-0.196-0.728-0.658c0-0.868,1.119-1.078,1.792-1.148V167.795L270.072,167.795z M278.193,161.397h-2.771v9.602h2.771
		V161.397L278.193,161.397z M291.94,167.332c-0.042,0.799-0.392,1.597-1.302,1.597c-1.33,0-1.386-1.639-1.386-2.604
		c0-0.91,0.056-2.913,1.358-2.913c0.993,0,1.302,1.022,1.273,1.835l2.744-0.14c-0.196-2.394-1.596-3.849-4.046-3.849
		c-3.023,0-4.353,2.294-4.353,5.067c0,2.73,1.512,4.815,4.395,4.815c2.212,0,3.822-1.427,4.004-3.639L291.94,167.332L291.94,167.332
		z M300.659,163.707c-2.24,0-3.934,1.482-3.934,3.779c0,2.171,1.749,3.653,3.934,3.653c2.184,0,3.933-1.482,3.933-3.653
		C304.592,165.189,302.898,163.707,300.659,163.707L300.659,163.707z M300.659,165.455c0.953,0,0.967,1.247,0.967,1.933
		c0,1.919-0.462,2.059-0.967,2.059c-0.504,0-0.968-0.14-0.968-2.059C299.691,166.702,299.706,165.455,300.659,165.455
		L300.659,165.455z M306.9,163.847v7.152h2.771v-4.129c0-0.589,0.071-1.247,0.842-1.247c0.603,0,0.603,0.602,0.603,1.036v4.34h2.77
		v-4.41c0-0.742,0-1.553-0.447-2.141c-0.42-0.546-1.188-0.741-1.86-0.741c-0.868,0-1.695,0.334-2.031,1.146h-0.029v-1.006H306.9
		L306.9,163.847z M320.904,168.116c-0.071,0.519-0.295,1.065-0.896,1.065c-0.91,0-0.925-1.093-0.925-1.765
		c0-0.63,0-1.793,0.883-1.793c0.616,0,0.728,0.56,0.826,1.051l0.014,0.07l2.449-0.21c-0.209-1.792-1.609-2.827-3.373-2.827
		c-2.198,0-3.681,1.58-3.681,3.737c0,1.023,0.336,1.989,1.063,2.716c0.755,0.741,1.595,0.979,2.631,0.979
		c1.82,0,3.136-0.979,3.389-2.827L320.904,168.116L320.904,168.116z M330.304,168.438c-0.112,0.617-0.462,0.869-1.092,0.869
		c-0.84,0-1.12-0.561-1.078-1.332h4.787v-0.377c0-2.353-1.456-3.891-3.835-3.891c-1.022,0-2.114,0.349-2.841,1.105
		c-0.672,0.685-1.05,1.737-1.05,2.702c0,1.022,0.405,2.003,1.175,2.688c0.812,0.713,1.834,0.937,2.884,0.937
		c1.693,0,3.233-0.797,3.667-2.533L330.304,168.438L330.304,168.438z M328.12,166.577c-0.028-0.659,0.266-1.234,0.994-1.234
		c0.783,0,1.008,0.533,1.008,1.234H328.12L328.12,166.577z M338.091,166.506c0-0.28-0.014-0.504,0.168-0.728
		c0.154-0.183,0.378-0.295,0.616-0.295c0.882,0,0.868,1.414,0.868,2.002c0,0.406-0.028,0.91-0.141,1.302
		c-0.111,0.378-0.363,0.588-0.756,0.588c-0.672,0-0.756-0.658-0.756-1.162V166.506L338.091,166.506z M335.307,163.847v9.406h2.771
		v-3.022c0.434,0.63,1.105,0.908,1.848,0.908c0.994,0,1.736-0.53,2.198-1.384c0.378-0.701,0.504-1.611,0.504-2.409
		c0-1.681-0.672-3.639-2.688-3.639c-0.951,0-1.735,0.294-2.029,1.161h-0.028v-1.021H335.307L335.307,163.847z M345.329,165.665
		v2.703c0,0.77-0.015,1.457,0.532,2.045c0.546,0.587,1.259,0.824,2.001,0.726l1.638-0.209v-2.002
		c-0.268,0.07-0.533,0.126-0.798,0.126c-0.658,0-0.604-0.406-0.604-0.924v-2.465h1.401v-1.818h-1.428v-2.366l-2.407,0.084
		l-0.21,2.282h-1.162v1.818H345.329L345.329,165.665z M358.91,170.999v-7.152h-2.771v4.115c0,0.266-0.014,0.518-0.14,0.756
		c-0.126,0.252-0.394,0.406-0.673,0.406c-0.631,0-0.617-0.49-0.617-0.952v-4.325h-2.771v4.941c0,0.673,0.057,1.303,0.561,1.807
		c0.433,0.405,1.007,0.544,1.595,0.544c0.924,0,1.877-0.39,2.171-1.314h0.028v1.174H358.91L358.91,170.999z M368.987,170.999
		c-0.21-0.502-0.225-1.034-0.225-1.567v-2.506c0-1.023,0.112-1.946-0.825-2.604c-0.699-0.503-1.776-0.615-2.616-0.615
		c-1.61,0-3.305,0.461-3.725,2.238l2.548,0.238c0.084-0.602,0.546-0.798,1.093-0.798c0.672,0,0.84,0.252,0.84,0.896v0.056
		c-0.938,0.056-1.904,0.168-2.814,0.449c-0.994,0.308-1.876,1.064-1.876,2.198c0,1.429,1.162,2.155,2.492,2.155
		c0.98,0,1.778-0.306,2.338-1.132c0,0.336,0.028,0.672,0.098,0.992H368.987L368.987,170.999z M366.077,167.795
		c0,0.784-0.015,1.666-1.064,1.666c-0.434,0-0.728-0.196-0.728-0.658c0-0.868,1.12-1.078,1.792-1.148V167.795L366.077,167.795z
		 M374.198,161.397h-2.771v9.602h2.771V161.397L374.198,161.397z M379.728,163.847h-2.771v7.152h2.771V163.847L379.728,163.847z
		 M379.728,161.257h-2.771v1.902h2.771V161.257L379.728,161.257z M382.025,168.971c0.531,1.651,2.002,2.168,3.597,2.168
		c1.609,0,3.696-0.559,3.696-2.532c0-0.771-0.351-1.401-1.009-1.821c-0.573-0.35-1.302-0.448-1.945-0.532
		c-0.337-0.043-0.896-0.085-1.203-0.169c-0.183-0.042-0.42-0.14-0.42-0.364c0-0.308,0.671-0.378,0.895-0.378
		c0.49,0,1.036,0.14,1.246,0.63l2.114-0.406c-0.477-1.343-1.891-1.86-3.234-1.86c-0.797,0-1.595,0.112-2.295,0.545
		c-0.672,0.42-1.105,1.063-1.105,1.875c0,1.905,1.777,2.199,3.274,2.409c0.252,0.028,1.204,0.099,1.204,0.463
		c0,0.42-0.784,0.448-1.064,0.448c-0.601,0-1.37-0.084-1.524-0.77L382.025,168.971L382.025,168.971z M391.549,163.847v7.152h2.715
		v-4.297c0-0.533,0.057-1.023,0.715-1.023c0.603,0,0.631,0.574,0.631,1.022v4.298h2.715v-3.975c0-0.575-0.028-1.303,0.757-1.303
		c0.644,0,0.588,0.518,0.588,0.98v4.298h2.715v-4.69c0-0.756,0-1.455-0.518-1.987c-0.42-0.434-1.063-0.615-1.665-0.615
		c-0.938,0-1.653,0.306-2.144,1.104c-0.434-0.77-1.133-1.104-2.015-1.104c-0.84,0-1.555,0.376-1.947,1.104h-0.027v-0.964H391.549
		L391.549,163.847z"/>
	<path d="M184.899,145.705h1.974v-2.308h-6.788v2.308h2.016v7.294h2.798V145.705L184.899,145.705z M192.764,150.438
		c-0.112,0.617-0.462,0.869-1.092,0.869c-0.84,0-1.12-0.561-1.078-1.332h4.787v-0.377c0-2.353-1.456-3.891-3.835-3.891
		c-1.022,0-2.114,0.349-2.842,1.105c-0.671,0.685-1.049,1.737-1.049,2.702c0,1.022,0.406,2.003,1.175,2.688
		c0.812,0.713,1.834,0.937,2.884,0.937c1.693,0,3.233-0.797,3.667-2.533L192.764,150.438L192.764,150.438z M190.58,148.577
		c-0.028-0.659,0.266-1.234,0.994-1.234c0.784,0,1.008,0.533,1.008,1.234H190.58L190.58,148.577z M204.387,152.999l-2.547-3.905
		l2.085-3.247h-2.309l-0.784,1.342l-0.084,0.154l-0.126,0.225l-0.154-0.253l-0.07-0.154l-0.728-1.314h-3.135l2.197,3.359
		l-2.505,3.793h2.281l1.4-2.281l1.316,2.281H204.387L204.387,152.999z M206.83,147.665v2.703c0,0.77-0.014,1.457,0.532,2.045
		c0.545,0.587,1.259,0.824,2.001,0.726L211,152.93v-2.002c-0.266,0.07-0.532,0.126-0.798,0.126c-0.658,0-0.602-0.406-0.602-0.924
		v-2.465h1.4v-1.818h-1.428v-2.366l-2.406,0.084l-0.21,2.282h-1.162v1.818H206.83L206.83,147.665z M226.26,152.999
		c-0.21-0.502-0.224-1.034-0.224-1.567v-2.506c0-1.023,0.112-1.946-0.825-2.604c-0.7-0.503-1.777-0.615-2.617-0.615
		c-1.61,0-3.304,0.461-3.724,2.238l2.548,0.238c0.084-0.602,0.546-0.798,1.092-0.798c0.672,0,0.84,0.252,0.84,0.896v0.056
		c-0.938,0.056-1.904,0.168-2.813,0.449c-0.994,0.308-1.876,1.064-1.876,2.198c0,1.429,1.162,2.155,2.492,2.155
		c0.98,0,1.778-0.306,2.338-1.132c0,0.336,0.028,0.672,0.098,0.992H226.26L226.26,152.999z M223.35,149.795
		c0,0.784-0.014,1.666-1.063,1.666c-0.434,0-0.729-0.196-0.729-0.658c0-0.868,1.12-1.078,1.792-1.148V149.795L223.35,149.795z
		 M228.639,145.847v7.152h2.77v-4.129c0-0.589,0.07-1.247,0.841-1.247c0.603,0,0.603,0.602,0.603,1.036v4.34h2.77v-4.41
		c0-0.742,0-1.553-0.448-2.141c-0.419-0.546-1.189-0.741-1.86-0.741c-0.869,0-1.695,0.334-2.032,1.146h-0.028v-1.006H228.639
		L228.639,145.847z M245.29,152.999v-9.602h-2.77v3.036c-0.435-0.434-1.023-0.726-1.71-0.726c-2.155,0-2.854,1.917-2.854,3.751
		c0,1.765,0.713,3.681,2.77,3.681c0.897,0,1.499-0.308,1.906-1.091h0.028v0.951H245.29L245.29,152.999z M242.52,150.005
		c0,0.35,0.028,0.602-0.168,0.91c-0.155,0.238-0.337,0.364-0.617,0.364c-0.869,0-0.911-1.12-0.911-1.75
		c0-0.392,0.056-0.938,0.14-1.33c0.084-0.434,0.294-0.756,0.785-0.756c0.224,0,0.476,0.098,0.603,0.28
		c0.182,0.224,0.168,0.56,0.168,0.84V150.005L242.52,150.005z M256.266,145.847h-2.771v7.152h2.771V145.847L256.266,145.847z
		 M256.266,143.257h-2.771v1.902h2.771V143.257L256.266,143.257z M259.51,147.665v2.703c0,0.77-0.014,1.457,0.531,2.045
		c0.546,0.587,1.259,0.824,2.001,0.726l1.638-0.209v-2.002c-0.266,0.07-0.532,0.126-0.798,0.126c-0.658,0-0.602-0.406-0.602-0.924
		v-2.465h1.4v-1.818h-1.428v-2.366l-2.406,0.084l-0.21,2.282h-1.162v1.818H259.51L259.51,147.665z M265.646,150.971
		c0.532,1.651,2.002,2.168,3.598,2.168c1.609,0,3.694-0.559,3.694-2.532c0-0.771-0.35-1.401-1.007-1.821
		c-0.574-0.35-1.302-0.448-1.945-0.532c-0.336-0.043-0.896-0.085-1.204-0.169c-0.183-0.042-0.421-0.14-0.421-0.364
		c0-0.308,0.673-0.378,0.896-0.378c0.49,0,1.036,0.14,1.246,0.63l2.113-0.406c-0.476-1.343-1.89-1.86-3.233-1.86
		c-0.798,0-1.595,0.112-2.295,0.545c-0.672,0.42-1.106,1.063-1.106,1.875c0,1.905,1.778,2.199,3.275,2.409
		c0.252,0.028,1.204,0.099,1.204,0.463c0,0.42-0.784,0.448-1.064,0.448c-0.602,0-1.37-0.084-1.524-0.77L265.646,150.971
		L265.646,150.971z M285.456,150.438c-0.112,0.617-0.462,0.869-1.092,0.869c-0.841,0-1.12-0.561-1.078-1.332h4.787v-0.377
		c0-2.353-1.456-3.891-3.835-3.891c-1.022,0-2.114,0.349-2.842,1.105c-0.672,0.685-1.05,1.737-1.05,2.702
		c0,1.022,0.406,2.003,1.176,2.688c0.812,0.713,1.833,0.937,2.884,0.937c1.693,0,3.232-0.797,3.667-2.533L285.456,150.438
		L285.456,150.438z M283.271,148.577c-0.027-0.659,0.267-1.234,0.994-1.234c0.784,0,1.008,0.533,1.008,1.234H283.271
		L283.271,148.577z M290.466,145.847v7.152h2.714v-4.297c0-0.533,0.057-1.023,0.715-1.023c0.604,0,0.631,0.574,0.631,1.022v4.298
		h2.715v-3.975c0-0.575-0.028-1.303,0.757-1.303c0.645,0,0.589,0.518,0.589,0.98v4.298h2.714v-4.69c0-0.756,0-1.455-0.517-1.987
		c-0.42-0.434-1.064-0.615-1.665-0.615c-0.939,0-1.654,0.306-2.145,1.104c-0.433-0.77-1.133-1.104-2.014-1.104
		c-0.841,0-1.556,0.376-1.948,1.104h-0.027v-0.964H290.466L290.466,145.847z M308.749,150.438c-0.112,0.617-0.462,0.869-1.092,0.869
		c-0.841,0-1.12-0.561-1.078-1.332h4.787v-0.377c0-2.353-1.456-3.891-3.835-3.891c-1.022,0-2.114,0.349-2.843,1.105
		c-0.671,0.685-1.049,1.737-1.049,2.702c0,1.022,0.406,2.003,1.175,2.688c0.812,0.713,1.834,0.937,2.885,0.937
		c1.692,0,3.232-0.797,3.667-2.533L308.749,150.438L308.749,150.438z M306.564,148.577c-0.027-0.659,0.267-1.234,0.994-1.234
		c0.784,0,1.008,0.533,1.008,1.234H306.564L306.564,148.577z M316.096,147.315v-1.468h-2.364v7.152h2.771v-3.107
		c0-0.42,0-0.882,0.196-1.232c0.224-0.406,0.686-0.49,1.134-0.49c0.182,0,0.364,0.028,0.532,0.07v-2.505l-0.378-0.028
		c-1.106-0.084-1.625,0.614-1.862,1.608H316.096L316.096,147.315z M323.311,152.921l1.372,0.07c0.351,0.014,0.826-0.014,0.826,0.46
		c0,0.628-1.036,0.558-1.456,0.558c-0.462,0-0.937-0.014-1.385-0.126c-0.294-0.055-0.561-0.195-0.561-0.53
		c0-0.418,0.379-0.446,0.7-0.446L323.311,152.921L323.311,152.921z M323.409,150.832c-0.251,0-0.77,0.028-0.77-0.337
		c0-0.352,0.462-0.352,0.699-0.352l0.294,0.014l0.322,0.014c1.441,0,3.275-0.391,3.275-2.183c0-0.631-0.308-1.218-0.798-1.61
		c0.141-0.254,0.532-0.268,0.784-0.268l0.686,0.028l0.07-1.921l-0.182-0.014l-0.812-0.042c-1.105,0-1.624,0.645-1.777,1.682
		c-0.435-0.108-0.883-0.136-1.33-0.136c-1.456,0-3.5,0.391-3.5,2.239c0,0.827,0.42,1.344,1.162,1.652
		c-0.7,0.266-1.372,0.756-1.372,1.585c0,0.504,0.266,0.841,0.657,1.135c-0.63,0.224-1.035,0.701-1.035,1.384
		c0,1.677,2.688,1.761,3.878,1.761c0.84,0,1.945-0.028,2.716-0.308c0.91-0.307,1.596-0.95,1.596-1.969
		c0-0.672-0.279-1.373-0.826-1.779c-0.504-0.379-1.162-0.463-1.777-0.491L323.409,150.832L323.409,150.832z M323.885,148.843
		c-0.574,0-0.882-0.294-0.882-0.869c0-0.519,0.294-0.883,0.826-0.883c0.574,0,0.854,0.35,0.854,0.897
		C324.683,148.479,324.403,148.843,323.885,148.843L323.885,148.843z M334.585,150.438c-0.112,0.617-0.462,0.869-1.092,0.869
		c-0.839,0-1.119-0.561-1.077-1.332h4.786v-0.377c0-2.353-1.455-3.891-3.835-3.891c-1.021,0-2.113,0.349-2.842,1.105
		c-0.672,0.685-1.05,1.737-1.05,2.702c0,1.022,0.406,2.003,1.177,2.688c0.812,0.713,1.834,0.937,2.883,0.937
		c1.693,0,3.233-0.797,3.667-2.533L334.585,150.438L334.585,150.438z M332.402,148.577c-0.028-0.659,0.266-1.234,0.992-1.234
		c0.784,0,1.009,0.533,1.009,1.234H332.402L332.402,148.577z M339.576,145.847v7.152h2.77v-4.129c0-0.589,0.07-1.247,0.841-1.247
		c0.604,0,0.604,0.602,0.604,1.036v4.34h2.77v-4.41c0-0.742,0-1.553-0.447-2.141c-0.419-0.546-1.189-0.741-1.861-0.741
		c-0.868,0-1.695,0.334-2.031,1.146h-0.028v-1.006H339.576L339.576,145.847z M353.578,150.116c-0.07,0.519-0.294,1.065-0.896,1.065
		c-0.91,0-0.924-1.093-0.924-1.765c0-0.63,0-1.793,0.882-1.793c0.616,0,0.729,0.56,0.826,1.051l0.014,0.07l2.45-0.21
		c-0.21-1.792-1.609-2.827-3.374-2.827c-2.196,0-3.68,1.58-3.68,3.737c0,1.023,0.336,1.989,1.062,2.716
		c0.757,0.741,1.596,0.979,2.632,0.979c1.819,0,3.136-0.979,3.388-2.827L353.578,150.116L353.578,150.116z M362.978,150.438
		c-0.111,0.617-0.462,0.869-1.092,0.869c-0.839,0-1.119-0.561-1.077-1.332h4.786v-0.377c0-2.353-1.455-3.891-3.835-3.891
		c-1.021,0-2.113,0.349-2.841,1.105c-0.672,0.685-1.05,1.737-1.05,2.702c0,1.022,0.405,2.003,1.176,2.688
		c0.812,0.713,1.834,0.937,2.883,0.937c1.694,0,3.234-0.797,3.667-2.533L362.978,150.438L362.978,150.438z M360.795,148.577
		c-0.028-0.659,0.266-1.234,0.993-1.234c0.784,0,1.008,0.533,1.008,1.234H360.795L360.795,148.577z"/>
	<path d="M130.95,438.677c-0.28,0.28-0.7,0.393-1.078,0.393c-0.672,0-1.218-0.351-1.218-1.064c0-0.519,0.224-0.869,0.7-1.079
		L130.95,438.677L130.95,438.677z M130.516,434.587c-0.294-0.238-0.7-0.602-0.7-0.994c0-0.392,0.308-0.616,0.672-0.616
		c0.42,0,0.728,0.28,0.728,0.715C131.216,434.125,130.908,434.461,130.516,434.587L130.516,434.587z M131.636,435.973
		c1.078-0.362,1.818-1.203,1.818-2.365c0-1.707-1.538-2.351-3.022-2.351c-1.54,0-3.164,0.615-3.164,2.406
		c0,0.743,0.35,1.317,0.784,1.877c-1.26,0.448-2.226,1.19-2.226,2.646c0,2.128,2.016,2.952,3.864,2.952
		c0.868,0,2.086-0.21,2.744-0.811c0.714,0.561,1.356,0.771,2.266,0.771c0.378,0,0.77-0.056,1.134-0.153v-2.074l-0.63,0.042
		c-0.364,0-0.658-0.028-0.952-0.267c0.84-0.77,1.33-1.861,1.582-2.968l-2.49-0.294c-0.126,0.574-0.294,1.204-0.728,1.624
		L131.636,435.973L131.636,435.973z"/>
	<path d="M129.338,377.396h-3.33l0.756,6.368h1.777L129.338,377.396L129.338,377.396z M129.016,384.439h-2.672v2.56h2.672V384.439
		L129.016,384.439z"/>
	<path d="M125.686,276.074c0.504,2.086,1.987,3.065,4.087,3.065c1.848,0,3.807-0.741,3.807-2.897c0-1.191-0.616-1.918-1.721-2.254
		c0.923-0.294,1.427-1.119,1.427-2.072c0-0.869-0.49-1.68-1.218-2.114c-0.629-0.363-1.511-0.545-2.225-0.545
		c-1.848,0-3.387,0.937-3.807,2.799l2.323,0.378c0.098-0.644,0.532-1.107,1.19-1.107c0.546,0,1.022,0.322,1.022,0.897
		c0,0.322-0.168,0.617-0.462,0.757c-0.238,0.112-0.686,0.098-0.952,0.098h-0.798v2.014h0.98c0.308,0,0.742-0.028,0.994,0.14
		c0.266,0.182,0.462,0.505,0.462,0.827c0,0.687-0.574,1.009-1.19,1.009c-0.812,0-1.316-0.547-1.414-1.317L125.686,276.074
		L125.686,276.074z"/>
	<path d="M133.342,150.649h-3.737l0.224-0.14l2.226-1.667c0.755-0.672,1.231-1.442,1.231-2.479c0-2.071-1.623-3.106-3.541-3.106
		c-2.071,0-3.555,1.287-3.821,3.345l2.421,0.476c0.042-0.743,0.294-1.667,1.19-1.667c0.588,0,0.938,0.448,0.938,1.008
		c0,0.841-0.7,1.429-1.288,1.933l-3.261,2.451v2.196h7.306L133.342,150.649L133.342,150.649z M138.787,150.439h-2.673v2.56h2.673
		V150.439L138.787,150.439z M148.974,150.649h-3.737l0.224-0.14l2.226-1.667c0.755-0.672,1.231-1.442,1.231-2.479
		c0-2.071-1.623-3.106-3.541-3.106c-2.071,0-3.555,1.287-3.821,3.345l2.421,0.476c0.042-0.743,0.294-1.667,1.19-1.667
		c0.588,0,0.938,0.448,0.938,1.008c0,0.841-0.7,1.429-1.288,1.933l-3.261,2.451v2.196h7.306L148.974,150.649L148.974,150.649z"/>
	<path d="M486.092,431.396h-6.9l-0.211,2.406h4.451c-1.763,1.961-2.953,4.551-3.037,7.196h3.178l-0.028-0.572
		c0-2.451,1.008-5.321,2.548-7.225V431.396L486.092,431.396z M491.863,431.257c-2.856,0-3.821,2.589-3.821,5.011
		c0,2.382,1.077,4.871,3.821,4.871c2.743,0,3.82-2.489,3.82-4.871C495.684,433.846,494.719,431.257,491.863,431.257L491.863,431.257
		z M491.863,433.271c0.294,0,1.051-0.153,1.051,2.997c0,2.802-0.688,2.844-1.051,2.844c-0.364,0-1.052-0.042-1.052-2.844
		C490.812,433.117,491.568,433.271,491.863,433.271L491.863,433.271z"/>
	<path d="M485.812,380.112c-0.224-1.834-1.638-2.855-3.443-2.855c-2.911,0-3.976,2.659-3.976,5.179c0,2.508,1.232,4.703,3.989,4.703
		c1.932,0,3.682-1.217,3.682-3.289c0-1.735-1.161-2.98-2.926-2.98c-0.77,0-1.498,0.21-1.932,0.881
		c0.014-0.797,0.098-2.493,1.204-2.493c0.714,0,0.896,0.547,0.952,1.149L485.812,380.112L485.812,380.112z M482.326,385.195
		c-0.672,0-1.092-0.505-1.092-1.149c0-0.63,0.447-1.163,1.105-1.163c0.645,0,1.022,0.575,1.022,1.177
		C483.362,384.662,482.956,385.195,482.326,385.195L482.326,385.195z M495.572,384.649h-3.737l0.224-0.141l2.227-1.667
		c0.755-0.672,1.23-1.441,1.23-2.479c0-2.071-1.623-3.106-3.541-3.106c-2.07,0-3.555,1.287-3.82,3.345l2.421,0.477
		c0.042-0.743,0.294-1.667,1.189-1.667c0.588,0,0.938,0.448,0.938,1.008c0,0.841-0.7,1.429-1.288,1.933l-3.261,2.451v2.196h7.306
		L495.572,384.649L495.572,384.649z"/>
	<path d="M485.298,271.761l0.252-2.364h-6.411l-0.42,5.515l2.212,0.308c0.238-0.392,0.658-0.602,1.12-0.602
		c0.699,0,1.203,0.462,1.203,1.176c0,0.673-0.49,1.149-1.147,1.149c-0.672,0-1.245-0.364-1.372-1.05l-2.477,0.308
		c0.335,1.959,2.029,2.938,3.919,2.938c2.029,0,3.835-1.231,3.835-3.401c0-0.854-0.294-1.68-0.91-2.282
		c-0.56-0.532-1.428-0.869-2.212-0.869c-0.615,0-1.217,0.182-1.734,0.533l0.126-1.359H485.298L485.298,271.761z M495.446,272.112
		c-0.225-1.834-1.639-2.855-3.444-2.855c-2.911,0-3.974,2.659-3.974,5.179c0,2.507,1.23,4.703,3.987,4.703
		c1.933,0,3.683-1.217,3.683-3.289c0-1.736-1.162-2.981-2.927-2.981c-0.77,0-1.498,0.21-1.932,0.881
		c0.014-0.797,0.098-2.493,1.204-2.493c0.714,0,0.896,0.547,0.952,1.149L495.446,272.112L495.446,272.112z M491.96,277.195
		c-0.672,0-1.092-0.505-1.092-1.149c0-0.631,0.447-1.163,1.105-1.163c0.645,0,1.022,0.575,1.022,1.177
		S492.59,277.195,491.96,277.195L491.96,277.195z"/>
	<path d="M478.062,168.074c0.503,2.086,1.987,3.065,4.087,3.065c1.848,0,3.808-0.741,3.808-2.897c0-1.191-0.616-1.918-1.722-2.254
		c0.924-0.294,1.428-1.119,1.428-2.072c0-0.869-0.49-1.68-1.219-2.114c-0.63-0.363-1.512-0.545-2.225-0.545
		c-1.848,0-3.388,0.937-3.808,2.799l2.323,0.378c0.099-0.644,0.532-1.107,1.19-1.107c0.546,0,1.021,0.322,1.021,0.897
		c0,0.322-0.168,0.617-0.462,0.757c-0.237,0.112-0.686,0.098-0.951,0.098h-0.799v2.014h0.98c0.308,0,0.742-0.028,0.993,0.14
		c0.266,0.182,0.462,0.505,0.462,0.827c0,0.687-0.574,1.009-1.189,1.009c-0.812,0-1.315-0.547-1.414-1.317L478.062,168.074
		L478.062,168.074z M495.824,168.885v-2.07h-1.358v-5.558h-2.952l-3.611,5.558v2.07h3.92v2.114h2.644v-2.114H495.824
		L495.824,168.885z M491.822,166.815h-1.82l1.82-2.885V166.815L491.822,166.815z"/>
</g>
</svg>
