<?xml version="1.0" encoding="iso-8859-1"?>
<!-- Generator: Adobe Illustrator 16.0.0, SVG Export Plug-In . SVG Version: 6.00 Build 0)  -->
<!DOCTYPE svg PUBLIC "-//W3C//DTD SVG 1.1//EN" "http://www.w3.org/Graphics/SVG/1.1/DTD/svg11.dtd">
<svg version="1.1" id="Layer_1" xmlns="http://www.w3.org/2000/svg" xmlns:xlink="http://www.w3.org/1999/xlink" x="0px" y="0px"
	 width="524.409px" height="708.662px" viewBox="0 0 524.409 708.662" style="enable-background:new 0 0 524.409 708.662;"
	 xml:space="preserve">
<g>
	<polygon style="fill:#FFFFFF;" points="-0.07,0.276 -0.07,708.276 524.339,708.276 524.339,0.276 -0.07,0.276 	"/>
	<path d="M180.546,434.123v7.152h2.714v-4.297c0-0.533,0.056-1.023,0.715-1.023c0.603,0,0.631,0.574,0.631,1.022v4.298h2.714V437.3
		c0-0.575-0.028-1.304,0.757-1.304c0.645,0,0.589,0.519,0.589,0.98v4.298h2.714v-4.69c0-0.756,0-1.455-0.518-1.986
		c-0.419-0.435-1.062-0.615-1.664-0.615c-0.939,0-1.654,0.306-2.144,1.104c-0.433-0.77-1.133-1.104-2.014-1.104
		c-0.841,0-1.556,0.376-1.948,1.104h-0.028v-0.964H180.546L180.546,434.123z M201.01,441.275v-7.152h-2.77v4.115
		c0,0.266-0.014,0.519-0.14,0.756c-0.126,0.252-0.393,0.406-0.673,0.406c-0.631,0-0.617-0.49-0.617-0.952v-4.325h-2.77v4.941
		c0,0.673,0.056,1.303,0.56,1.807c0.433,0.405,1.007,0.544,1.595,0.544c0.923,0,1.876-0.39,2.171-1.313h0.028v1.174H201.01
		L201.01,441.275z M206.65,431.672h-2.771v9.603h2.771V431.672L206.65,431.672z M209.867,435.941v2.703
		c0,0.77-0.014,1.457,0.531,2.045c0.546,0.587,1.259,0.824,2.001,0.726l1.638-0.209v-2.002c-0.266,0.07-0.532,0.126-0.798,0.126
		c-0.658,0-0.602-0.405-0.602-0.924v-2.465h1.4v-1.818h-1.428v-2.366l-2.407,0.085l-0.209,2.281h-1.162v1.818H209.867
		L209.867,435.941z M219.354,434.123h-2.77v7.152h2.77V434.123L219.354,434.123z M219.354,431.533h-2.77v1.902h2.77V431.533
		L219.354,431.533z M224.897,436.782c0-0.28-0.014-0.504,0.168-0.728c0.154-0.184,0.378-0.295,0.616-0.295
		c0.882,0,0.868,1.413,0.868,2.002c0,0.405-0.028,0.909-0.14,1.302c-0.112,0.378-0.364,0.588-0.756,0.588
		c-0.672,0-0.756-0.658-0.756-1.162V436.782L224.897,436.782z M222.113,434.123v9.406h2.771v-3.022
		c0.434,0.631,1.106,0.908,1.848,0.908c0.994,0,1.736-0.529,2.198-1.384c0.378-0.701,0.504-1.611,0.504-2.409
		c0-1.681-0.672-3.639-2.688-3.639c-0.952,0-1.736,0.294-2.03,1.161h-0.028v-1.021H222.113L222.113,434.123z M234.631,431.672h-2.77
		v9.603h2.77V431.672L234.631,431.672z M242.153,438.713c-0.112,0.617-0.462,0.869-1.091,0.869c-0.84,0-1.12-0.561-1.078-1.332
		h4.787v-0.377c0-2.353-1.456-3.891-3.835-3.891c-1.022,0-2.114,0.349-2.842,1.104c-0.672,0.686-1.049,1.737-1.049,2.702
		c0,1.022,0.405,2.003,1.175,2.688c0.812,0.713,1.834,0.937,2.884,0.937c1.693,0,3.233-0.797,3.667-2.533L242.153,438.713
		L242.153,438.713z M239.971,436.853c-0.028-0.659,0.266-1.234,0.994-1.234c0.783,0,1.007,0.533,1.007,1.234H239.971
		L239.971,436.853z M252.276,438.491c0.518,2.085,2.31,2.924,4.325,2.924c1.988,0,4.284-0.923,4.284-3.231
		c0-1.052-0.49-1.947-1.428-2.451c-0.84-0.435-1.806-0.588-2.716-0.771c-0.364-0.084-1.063-0.183-1.063-0.687
		s0.559-0.616,0.951-0.616c0.742,0,1.274,0.252,1.554,0.966l2.436-0.741c-0.588-1.665-2.198-2.351-3.864-2.351
		c-0.951,0-1.973,0.183-2.757,0.728c-0.77,0.546-1.232,1.469-1.232,2.406c0,2.283,2.142,2.773,3.947,3.123
		c0.434,0.084,1.176,0.197,1.176,0.785c0,0.532-0.756,0.588-1.134,0.588c-0.853,0-1.497-0.308-1.749-1.163L252.276,438.491
		L252.276,438.491z M266.888,433.983c-2.24,0-3.934,1.482-3.934,3.779c0,2.171,1.749,3.652,3.934,3.652
		c2.184,0,3.933-1.481,3.933-3.652C270.82,435.465,269.128,433.983,266.888,433.983L266.888,433.983z M266.888,435.731
		c0.953,0,0.967,1.247,0.967,1.933c0,1.919-0.463,2.06-0.967,2.06s-0.967-0.141-0.967-2.06
		C265.921,436.978,265.935,435.731,266.888,435.731L266.888,435.731z M280.074,441.275v-7.152h-2.77v4.115
		c0,0.266-0.014,0.519-0.141,0.756c-0.127,0.252-0.393,0.406-0.673,0.406c-0.631,0-0.616-0.49-0.616-0.952v-4.325h-2.771v4.941
		c0,0.673,0.056,1.303,0.56,1.807c0.434,0.405,1.008,0.544,1.595,0.544c0.924,0,1.877-0.39,2.172-1.313h0.028v1.174H280.074
		L280.074,441.275z M285.236,435.591v-1.469h-2.365v7.152h2.771v-3.107c0-0.42,0-0.882,0.196-1.231
		c0.224-0.406,0.686-0.49,1.134-0.49c0.182,0,0.364,0.028,0.532,0.07v-2.505l-0.378-0.028c-1.106-0.084-1.624,0.614-1.862,1.608
		H285.236L285.236,435.591z M294.006,438.392c-0.07,0.519-0.294,1.064-0.896,1.064c-0.91,0-0.924-1.093-0.924-1.765
		c0-0.63,0-1.793,0.882-1.793c0.616,0,0.729,0.56,0.826,1.051l0.014,0.07l2.45-0.21c-0.21-1.792-1.609-2.827-3.374-2.827
		c-2.197,0-3.68,1.58-3.68,3.737c0,1.022,0.336,1.988,1.062,2.716c0.757,0.741,1.596,0.979,2.632,0.979
		c1.819,0,3.136-0.979,3.388-2.827L294.006,438.392L294.006,438.392z M303.405,438.713c-0.111,0.617-0.462,0.869-1.092,0.869
		c-0.839,0-1.119-0.561-1.077-1.332h4.787v-0.377c0-2.353-1.456-3.891-3.836-3.891c-1.021,0-2.113,0.349-2.841,1.104
		c-0.672,0.686-1.05,1.737-1.05,2.702c0,1.022,0.405,2.003,1.176,2.688c0.812,0.713,1.834,0.937,2.883,0.937
		c1.694,0,3.234-0.797,3.668-2.533L303.405,438.713L303.405,438.713z M301.223,436.853c-0.028-0.659,0.266-1.234,0.993-1.234
		c0.784,0,1.008,0.533,1.008,1.234H301.223L301.223,436.853z M307.921,439.247c0.531,1.651,2.001,2.168,3.597,2.168
		c1.61,0,3.695-0.559,3.695-2.531c0-0.771-0.351-1.401-1.008-1.821c-0.574-0.351-1.302-0.448-1.945-0.532
		c-0.336-0.043-0.896-0.085-1.204-0.169c-0.183-0.042-0.42-0.14-0.42-0.364c0-0.308,0.672-0.378,0.896-0.378
		c0.49,0,1.036,0.141,1.246,0.63l2.113-0.405c-0.477-1.344-1.889-1.86-3.233-1.86c-0.798,0-1.596,0.112-2.295,0.545
		c-0.672,0.42-1.105,1.063-1.105,1.875c0,1.905,1.776,2.199,3.274,2.409c0.252,0.028,1.204,0.099,1.204,0.463
		c0,0.42-0.784,0.448-1.063,0.448c-0.603,0-1.372-0.084-1.526-0.771L307.921,439.247L307.921,439.247z"/>
	<path d="M187.811,387.275c-0.21-0.502-0.224-1.034-0.224-1.567v-2.506c0-1.022,0.112-1.945-0.825-2.604
		c-0.7-0.503-1.777-0.615-2.617-0.615c-1.61,0-3.304,0.461-3.724,2.238l2.548,0.237c0.084-0.602,0.546-0.798,1.092-0.798
		c0.672,0,0.84,0.252,0.84,0.896v0.056c-0.938,0.056-1.904,0.168-2.814,0.449c-0.994,0.308-1.876,1.063-1.876,2.198
		c0,1.429,1.162,2.154,2.492,2.154c0.98,0,1.778-0.306,2.338-1.132c0,0.336,0.028,0.672,0.098,0.992H187.811L187.811,387.275z
		 M184.9,384.071c0,0.784-0.014,1.666-1.064,1.666c-0.434,0-0.728-0.196-0.728-0.658c0-0.868,1.12-1.078,1.792-1.147V384.071
		L184.9,384.071z M201.083,383.608c-0.042,0.799-0.392,1.597-1.302,1.597c-1.33,0-1.386-1.639-1.386-2.604
		c0-0.91,0.056-2.913,1.358-2.913c0.994,0,1.302,1.021,1.274,1.835l2.744-0.141c-0.196-2.394-1.596-3.849-4.046-3.849
		c-3.023,0-4.352,2.294-4.352,5.067c0,2.73,1.511,4.814,4.394,4.814c2.212,0,3.822-1.427,4.004-3.639L201.083,383.608
		L201.083,383.608z M209.801,379.983c-2.24,0-3.933,1.482-3.933,3.779c0,2.171,1.749,3.652,3.933,3.652
		c2.184,0,3.933-1.481,3.933-3.652C213.733,381.465,212.041,379.983,209.801,379.983L209.801,379.983z M209.801,381.731
		c0.953,0,0.967,1.247,0.967,1.933c0,1.919-0.462,2.06-0.967,2.06c-0.504,0-0.967-0.141-0.967-2.06
		C208.833,382.978,208.848,381.731,209.801,381.731L209.801,381.731z M216.042,380.123v7.152h2.77v-4.129
		c0-0.589,0.071-1.247,0.841-1.247c0.603,0,0.603,0.602,0.603,1.036v4.34h2.77v-4.41c0-0.742,0-1.553-0.447-2.141
		c-0.42-0.546-1.189-0.741-1.861-0.741c-0.868,0-1.695,0.334-2.032,1.146h-0.028v-1.006H216.042L216.042,380.123z M230.044,384.392
		c-0.07,0.519-0.294,1.064-0.896,1.064c-0.91,0-0.924-1.093-0.924-1.765c0-0.63,0-1.793,0.882-1.793c0.616,0,0.728,0.56,0.826,1.051
		l0.014,0.07l2.45-0.21c-0.21-1.792-1.61-2.827-3.374-2.827c-2.197,0-3.68,1.58-3.68,3.737c0,1.022,0.336,1.988,1.064,2.716
		c0.755,0.741,1.595,0.979,2.63,0.979c1.82,0,3.136-0.979,3.388-2.827L230.044,384.392L230.044,384.392z M237.525,377.672h-2.771
		v9.603h2.771V377.672L237.525,377.672z M247.208,387.275v-7.152h-2.77v4.115c0,0.266-0.014,0.519-0.14,0.756
		c-0.126,0.252-0.394,0.406-0.673,0.406c-0.631,0-0.617-0.49-0.617-0.952v-4.325h-2.771v4.941c0,0.673,0.056,1.303,0.561,1.807
		c0.433,0.405,1.007,0.544,1.595,0.544c0.924,0,1.877-0.39,2.171-1.313h0.028v1.174H247.208L247.208,387.275z M249.569,385.247
		c0.532,1.651,2.001,2.168,3.597,2.168c1.61,0,3.695-0.559,3.695-2.531c0-0.771-0.35-1.401-1.008-1.821
		c-0.574-0.351-1.301-0.448-1.945-0.532c-0.336-0.043-0.896-0.085-1.204-0.169c-0.182-0.042-0.42-0.14-0.42-0.364
		c0-0.308,0.672-0.378,0.896-0.378c0.49,0,1.036,0.141,1.246,0.63l2.113-0.405c-0.476-1.344-1.889-1.86-3.233-1.86
		c-0.798,0-1.596,0.112-2.296,0.545c-0.671,0.42-1.105,1.063-1.105,1.875c0,1.905,1.777,2.199,3.275,2.409
		c0.252,0.028,1.204,0.099,1.204,0.463c0,0.42-0.784,0.448-1.064,0.448c-0.602,0-1.372-0.084-1.526-0.771L249.569,385.247
		L249.569,385.247z M261.9,380.123h-2.771v7.152h2.771V380.123L261.9,380.123z M261.9,377.533h-2.771v1.902h2.771V377.533
		L261.9,377.533z M268.248,379.983c-2.241,0-3.935,1.482-3.935,3.779c0,2.171,1.749,3.652,3.935,3.652
		c2.184,0,3.933-1.481,3.933-3.652C272.181,381.465,270.487,379.983,268.248,379.983L268.248,379.983z M268.248,381.731
		c0.951,0,0.966,1.247,0.966,1.933c0,1.919-0.462,2.06-0.966,2.06c-0.506,0-0.968-0.141-0.968-2.06
		C267.28,382.978,267.295,381.731,268.248,381.731L268.248,381.731z M274.488,380.123v7.152h2.771v-4.129
		c0-0.589,0.069-1.247,0.841-1.247c0.602,0,0.602,0.602,0.602,1.036v4.34h2.771v-4.41c0-0.742,0-1.553-0.448-2.141
		c-0.42-0.546-1.188-0.741-1.861-0.741c-0.867,0-1.694,0.334-2.03,1.146h-0.028v-1.006H274.488L274.488,380.123z"/>
	<path d="M211.816,323.849h-1.606l-0.28,1.668h1.606L211.816,323.849L211.816,323.849z M211.399,326.324h-1.606l-1.162,6.952h1.606
		L211.399,326.324L211.399,326.324z M216.597,323.945h-1.607l-1.558,9.331h1.606L216.597,323.945L216.597,323.945z M221.39,323.945
		h-1.607l-1.558,9.331h1.606L221.39,323.945L221.39,323.945z M227.723,330.952c-0.374,0.861-0.921,1.292-1.641,1.292
		c-0.464,0-0.823-0.16-1.076-0.479c-0.253-0.319-0.38-0.74-0.38-1.264c0-0.151,0.016-0.324,0.048-0.52h4.779
		c0.013-0.196,0.02-0.378,0.02-0.547c0-1.016-0.238-1.818-0.714-2.406c-0.477-0.588-1.179-0.882-2.109-0.882
		c-1.035,0-1.881,0.408-2.54,1.224c-0.658,0.816-0.987,1.816-0.987,3.001c0,0.929,0.26,1.675,0.782,2.235
		c0.522,0.561,1.239,0.841,2.15,0.841c1.385,0,2.397-0.711,3.035-2.133L227.723,330.952L227.723,330.952z M224.837,328.99
		c0.269-1.176,0.875-1.764,1.819-1.764c0.911,0,1.367,0.588,1.367,1.764H224.837L224.837,328.99z M231.378,333.238
		c-0.192,0.217-0.287,0.512-0.287,0.886c0,1.089,1.023,1.633,3.069,1.633c1.385,0,2.355-0.235,2.909-0.707
		c0.553-0.472,0.83-0.995,0.83-1.569c0-0.337-0.106-0.653-0.318-0.947s-0.506-0.508-0.882-0.642
		c-0.375-0.135-0.967-0.202-1.773-0.202h-0.828c-0.451,0-0.749-0.056-0.895-0.167c-0.146-0.112-0.219-0.266-0.219-0.462
		c0-0.355,0.207-0.638,0.622-0.847c0.501,0.132,0.953,0.198,1.354,0.198c0.948,0,1.677-0.212,2.187-0.636
		c0.511-0.424,0.766-0.962,0.766-1.613c0-0.748-0.356-1.299-1.067-1.655c0.133-0.364,0.319-0.587,0.561-0.669
		c0.241-0.083,0.485-0.124,0.731-0.124c0.096,0,0.267,0.012,0.513,0.035l0.014-1.19c-0.173-0.023-0.328-0.034-0.465-0.034
		c-0.501,0-0.912,0.119-1.231,0.355c-0.319,0.237-0.59,0.695-0.813,1.374c-0.232-0.068-0.52-0.102-0.861-0.102
		c-0.971,0-1.731,0.201-2.28,0.602s-0.824,0.957-0.824,1.667c0,0.575,0.262,1.051,0.786,1.429c-0.551,0.274-0.917,0.539-1.097,0.797
		c-0.18,0.257-0.27,0.557-0.27,0.899c0,0.446,0.196,0.804,0.588,1.073C231.844,332.816,231.569,333.022,231.378,333.238
		L231.378,333.238z M233.792,328.443c0-0.392,0.127-0.708,0.383-0.947c0.255-0.239,0.605-0.359,1.052-0.359
		c0.752,0,1.128,0.344,1.128,1.033c0,0.405-0.123,0.728-0.369,0.967c-0.246,0.239-0.59,0.359-1.032,0.359
		C234.179,329.496,233.792,329.145,233.792,328.443L233.792,328.443L233.792,328.443z M234.551,333.091
		c0.838,0,1.36,0.034,1.565,0.1c0.205,0.066,0.308,0.235,0.308,0.509c0,0.702-0.654,1.053-1.962,1.053
		c-0.675,0-1.181-0.1-1.518-0.298c-0.337-0.198-0.506-0.45-0.506-0.755c0-0.242,0.151-0.486,0.451-0.732
		C233.122,333.05,233.676,333.091,234.551,333.091L234.551,333.091L234.551,333.091z M243.37,323.849h-1.606l-0.281,1.668h1.607
		L243.37,323.849L243.37,323.849z M242.953,326.324h-1.606l-1.163,6.952h1.607L242.953,326.324L242.953,326.324z M246.345,332.093
		c0.41,0.875,1.091,1.313,2.044,1.313c1.016,0,1.812-0.487,2.389-1.46c0.576-0.973,0.864-1.999,0.864-3.079
		c0-0.83-0.185-1.506-0.557-2.03c-0.371-0.524-0.869-0.787-1.493-0.787c-0.816,0-1.521,0.488-2.113,1.463l0.595-3.568h-1.531
		l-1.559,9.331h0.704L246.345,332.093L246.345,332.093z M247.411,331.728c-0.264-0.258-0.396-0.612-0.396-1.063
		c0-0.784,0.185-1.534,0.557-2.249c0.371-0.716,0.844-1.074,1.418-1.074c0.734,0,1.101,0.525,1.101,1.573
		c0,0.729-0.158,1.444-0.472,2.146c-0.314,0.702-0.752,1.053-1.312,1.053C247.974,332.114,247.675,331.985,247.411,331.728
		L247.411,331.728z M256.967,323.849h-1.606l-0.281,1.668h1.607L256.967,323.849L256.967,323.849z M256.55,326.324h-1.606
		l-1.162,6.952h1.606L256.55,326.324L256.55,326.324z M261.747,323.945h-1.607l-1.558,9.331h1.606L261.747,323.945L261.747,323.945z
		 M266.56,323.849h-1.607l-0.279,1.668h1.606L266.56,323.849L266.56,323.849z M266.143,326.324h-1.607l-1.162,6.952h1.607
		L266.143,326.324L266.143,326.324z M271.717,332.025c-0.196,0.032-0.362,0.048-0.499,0.048c-0.656,0-0.984-0.221-0.984-0.663
		c0-0.11,0.031-0.356,0.095-0.738l0.521-3.097h1.504l0.205-1.251h-1.497l0.328-1.969l-1.396,0.096l-0.417,1.873h-1.045l-0.212,1.251
		h1.032l-0.527,3.076c-0.104,0.62-0.156,1.037-0.156,1.251c0,0.415,0.148,0.767,0.447,1.056c0.299,0.29,0.77,0.434,1.412,0.434
		c0.191,0,0.518-0.034,0.978-0.102L271.717,332.025L271.717,332.025z M274.511,335.805c0.538,0,0.977-0.086,1.315-0.259
		c0.34-0.174,0.6-0.388,0.776-0.643c0.178-0.255,0.433-0.716,0.766-1.381l3.568-7.198h-1.34l-2.296,4.785l-1.053-4.785h-1.642
		l1.702,6.644l-0.259,0.554c-0.174,0.369-0.366,0.621-0.578,0.755c-0.212,0.135-0.48,0.202-0.803,0.202
		c-0.348,0-0.652-0.02-0.916-0.061l-0.069,1.326C273.98,335.785,274.256,335.805,274.511,335.805L274.511,335.805L274.511,335.805z
		 M290.293,323.849h-1.607l-0.28,1.668h1.607L290.293,323.849L290.293,323.849z M289.876,326.324h-1.607l-1.162,6.952h1.607
		L289.876,326.324L289.876,326.324z M291.408,331.588c0.483,1.226,1.517,1.838,3.098,1.838c0.988,0,1.734-0.221,2.238-0.663
		s0.756-0.991,0.756-1.647c0-0.387-0.104-0.73-0.312-1.029c-0.207-0.298-0.49-0.529-0.847-0.69
		c-0.358-0.162-0.906-0.352-1.645-0.571c-0.324-0.091-0.539-0.194-0.646-0.308c-0.108-0.114-0.161-0.257-0.161-0.43
		c0-0.247,0.109-0.442,0.328-0.588s0.484-0.219,0.8-0.219c0.702,0,1.205,0.303,1.511,0.909l1.319-0.424
		c-0.552-1.094-1.509-1.64-2.871-1.64c-0.839,0-1.488,0.224-1.948,0.673c-0.461,0.449-0.69,0.976-0.69,1.582
		c0,0.388,0.103,0.732,0.308,1.033c0.205,0.3,0.458,0.524,0.759,0.67c0.3,0.146,0.764,0.305,1.388,0.478
		c0.388,0.11,0.662,0.221,0.823,0.335c0.162,0.114,0.243,0.269,0.243,0.465c0,0.264-0.12,0.482-0.358,0.653
		c-0.24,0.171-0.567,0.256-0.981,0.256c-0.83,0-1.379-0.346-1.648-1.039L291.408,331.588L291.408,331.588z M307.895,323.945h-1.605
		l-1.56,9.331h1.606L307.895,323.945L307.895,323.945z M314.228,330.952c-0.373,0.861-0.92,1.292-1.64,1.292
		c-0.465,0-0.824-0.16-1.077-0.479c-0.253-0.319-0.379-0.74-0.379-1.264c0-0.151,0.016-0.324,0.048-0.52h4.777
		c0.015-0.196,0.021-0.378,0.021-0.547c0-1.016-0.238-1.818-0.714-2.406c-0.477-0.588-1.179-0.882-2.109-0.882
		c-1.034,0-1.881,0.408-2.539,1.224c-0.658,0.816-0.987,1.816-0.987,3.001c0,0.929,0.261,1.675,0.781,2.235
		c0.522,0.561,1.239,0.841,2.15,0.841c1.386,0,2.397-0.711,3.036-2.133L314.228,330.952L314.228,330.952z M311.344,328.99
		c0.268-1.176,0.875-1.764,1.817-1.764c0.911,0,1.367,0.588,1.367,1.764H311.344L311.344,328.99z M317.884,333.238
		c-0.191,0.217-0.287,0.512-0.287,0.886c0,1.089,1.022,1.633,3.069,1.633c1.386,0,2.354-0.235,2.908-0.707
		c0.555-0.472,0.83-0.995,0.83-1.569c0-0.337-0.104-0.653-0.316-0.947s-0.506-0.508-0.883-0.642
		c-0.375-0.135-0.967-0.202-1.773-0.202h-0.827c-0.451,0-0.75-0.056-0.896-0.167c-0.146-0.112-0.22-0.266-0.22-0.462
		c0-0.355,0.208-0.638,0.623-0.847c0.501,0.132,0.952,0.198,1.354,0.198c0.948,0,1.677-0.212,2.188-0.636s0.766-0.962,0.766-1.613
		c0-0.748-0.355-1.299-1.066-1.655c0.132-0.364,0.319-0.587,0.56-0.669c0.242-0.083,0.486-0.124,0.732-0.124
		c0.095,0,0.266,0.012,0.512,0.035l0.015-1.19c-0.173-0.023-0.328-0.034-0.466-0.034c-0.5,0-0.91,0.119-1.229,0.355
		c-0.319,0.237-0.59,0.695-0.814,1.374c-0.231-0.068-0.519-0.102-0.86-0.102c-0.971,0-1.731,0.201-2.28,0.602
		s-0.824,0.957-0.824,1.667c0,0.575,0.263,1.051,0.787,1.429c-0.552,0.274-0.918,0.539-1.098,0.797
		c-0.181,0.257-0.271,0.557-0.271,0.899c0,0.446,0.196,0.804,0.588,1.073C318.349,332.816,318.074,333.022,317.884,333.238
		L317.884,333.238z M320.297,328.443c0-0.392,0.128-0.708,0.383-0.947c0.255-0.239,0.605-0.359,1.053-0.359
		c0.752,0,1.128,0.344,1.128,1.033c0,0.405-0.123,0.728-0.37,0.967c-0.246,0.239-0.59,0.359-1.031,0.359
		C320.684,329.496,320.297,329.145,320.297,328.443L320.297,328.443L320.297,328.443z M321.056,333.091
		c0.838,0,1.36,0.034,1.564,0.1c0.205,0.066,0.309,0.235,0.309,0.509c0,0.702-0.654,1.053-1.962,1.053
		c-0.676,0-1.181-0.1-1.519-0.298c-0.337-0.198-0.505-0.45-0.505-0.755c0-0.242,0.15-0.486,0.451-0.732
		C319.627,333.05,320.181,333.091,321.056,333.091L321.056,333.091L321.056,333.091z M329.875,323.849h-1.606l-0.28,1.668h1.606
		L329.875,323.849L329.875,323.849z M329.458,326.324h-1.606l-1.162,6.952h1.606L329.458,326.324L329.458,326.324z M332.85,332.093
		c0.41,0.875,1.091,1.313,2.044,1.313c1.016,0,1.812-0.487,2.389-1.46c0.576-0.973,0.865-1.999,0.865-3.079
		c0-0.83-0.186-1.506-0.557-2.03c-0.372-0.524-0.87-0.787-1.494-0.787c-0.816,0-1.521,0.488-2.112,1.463l0.594-3.568h-1.53
		l-1.559,9.331h0.704L332.85,332.093L332.85,332.093z M333.916,331.728c-0.265-0.258-0.396-0.612-0.396-1.063
		c0-0.784,0.186-1.534,0.557-2.249c0.371-0.716,0.845-1.074,1.418-1.074c0.734,0,1.102,0.525,1.102,1.573
		c0,0.729-0.157,1.444-0.473,2.146c-0.313,0.702-0.752,1.053-1.312,1.053C334.479,332.114,334.181,331.985,333.916,331.728
		L333.916,331.728z M343.472,323.849h-1.606l-0.279,1.668h1.605L343.472,323.849L343.472,323.849z M343.055,326.324h-1.606
		l-1.162,6.952h1.606L343.055,326.324L343.055,326.324z M348.252,323.945h-1.607l-1.558,9.331h1.605L348.252,323.945
		L348.252,323.945z M353.064,323.849h-1.605l-0.28,1.668h1.605L353.064,323.849L353.064,323.849z M352.647,326.324h-1.606
		l-1.161,6.952h1.605L352.647,326.324L352.647,326.324z M358.222,332.025c-0.196,0.032-0.362,0.048-0.499,0.048
		c-0.656,0-0.984-0.221-0.984-0.663c0-0.11,0.032-0.356,0.097-0.738l0.519-3.097h1.504l0.205-1.251h-1.497l0.328-1.969l-1.394,0.096
		l-0.417,1.873h-1.047l-0.212,1.251h1.032l-0.526,3.076c-0.104,0.62-0.157,1.037-0.157,1.251c0,0.415,0.149,0.767,0.447,1.056
		c0.3,0.29,0.77,0.434,1.412,0.434c0.191,0,0.518-0.034,0.978-0.102L358.222,332.025L358.222,332.025z M361.017,335.805
		c0.537,0,0.976-0.086,1.315-0.259c0.34-0.174,0.599-0.388,0.776-0.643c0.177-0.255,0.433-0.716,0.765-1.381l3.569-7.198h-1.34
		l-2.297,4.785l-1.053-4.785h-1.642l1.703,6.644l-0.26,0.554c-0.173,0.369-0.366,0.621-0.578,0.755
		c-0.212,0.135-0.479,0.202-0.803,0.202c-0.347,0-0.652-0.02-0.916-0.061l-0.068,1.326
		C360.485,335.785,360.761,335.805,361.017,335.805L361.017,335.805L361.017,335.805z"/>
	<path d="M215.815,305.945h-1.531l-0.594,3.527c-0.306-0.92-0.937-1.381-1.894-1.381c-0.893,0-1.629,0.441-2.208,1.323
		c-0.579,0.882-0.868,1.938-0.868,3.169c0,0.902,0.19,1.603,0.571,2.102c0.38,0.499,0.882,0.748,1.507,0.748
		c0.907,0,1.641-0.531,2.201-1.593l-0.239,1.436h1.49L215.815,305.945L215.815,305.945z M210.286,312.692
		c0-0.838,0.151-1.601,0.451-2.287c0.301-0.685,0.748-1.028,1.34-1.028c0.388,0,0.699,0.15,0.933,0.451
		c0.235,0.301,0.352,0.695,0.352,1.182c0,0.789-0.175,1.515-0.526,2.178s-0.823,0.994-1.415,0.994
		C210.664,314.182,210.286,313.686,210.286,312.692L210.286,312.692L210.286,312.692z M222.148,312.952
		c-0.374,0.861-0.921,1.292-1.641,1.292c-0.465,0-0.824-0.16-1.077-0.479c-0.253-0.319-0.379-0.74-0.379-1.264
		c0-0.151,0.016-0.324,0.048-0.52h4.778c0.014-0.196,0.021-0.378,0.021-0.547c0-1.016-0.239-1.818-0.715-2.406
		s-1.179-0.882-2.109-0.882c-1.034,0-1.881,0.408-2.539,1.224c-0.659,0.816-0.988,1.816-0.988,3.001
		c0,0.929,0.261,1.675,0.783,2.235c0.521,0.561,1.238,0.841,2.15,0.841c1.385,0,2.397-0.711,3.035-2.133L222.148,312.952
		L222.148,312.952z M219.264,310.99c0.269-1.176,0.875-1.764,1.818-1.764c0.912,0,1.367,0.588,1.367,1.764H219.264L219.264,310.99z
		 M225.688,313.588c0.483,1.226,1.515,1.838,3.097,1.838c0.988,0,1.735-0.221,2.238-0.663c0.504-0.442,0.756-0.991,0.756-1.647
		c0-0.387-0.104-0.73-0.311-1.029c-0.208-0.298-0.49-0.529-0.848-0.69c-0.358-0.162-0.906-0.352-1.644-0.571
		c-0.324-0.091-0.539-0.194-0.646-0.308c-0.107-0.114-0.161-0.257-0.161-0.43c0-0.247,0.11-0.442,0.328-0.588
		c0.219-0.146,0.486-0.219,0.8-0.219c0.702,0,1.206,0.303,1.511,0.909l1.319-0.424c-0.551-1.094-1.508-1.64-2.871-1.64
		c-0.838,0-1.488,0.224-1.948,0.673c-0.46,0.449-0.69,0.976-0.69,1.582c0,0.388,0.102,0.732,0.307,1.033
		c0.205,0.3,0.458,0.524,0.759,0.67s0.763,0.305,1.388,0.478c0.387,0.11,0.662,0.221,0.823,0.335
		c0.162,0.114,0.243,0.269,0.243,0.465c0,0.264-0.12,0.482-0.359,0.653c-0.239,0.171-0.566,0.256-0.981,0.256
		c-0.829,0-1.378-0.346-1.647-1.039L225.688,313.588L225.688,313.588z M237.287,305.849h-1.606l-0.281,1.668h1.607L237.287,305.849
		L237.287,305.849z M236.87,308.324h-1.606l-1.163,6.952h1.607L236.87,308.324L236.87,308.324z M238.664,315.238
		c-0.192,0.217-0.287,0.512-0.287,0.886c0,1.089,1.023,1.633,3.069,1.633c1.385,0,2.355-0.235,2.909-0.707
		c0.554-0.472,0.83-0.995,0.83-1.569c0-0.337-0.106-0.653-0.317-0.947c-0.212-0.294-0.506-0.508-0.882-0.642
		c-0.376-0.135-0.968-0.202-1.774-0.202h-0.827c-0.452,0-0.75-0.056-0.896-0.167c-0.146-0.112-0.219-0.266-0.219-0.462
		c0-0.355,0.208-0.638,0.622-0.847c0.502,0.132,0.953,0.198,1.354,0.198c0.948,0,1.677-0.212,2.187-0.636
		c0.511-0.424,0.766-0.962,0.766-1.613c0-0.748-0.355-1.299-1.066-1.655c0.132-0.364,0.319-0.587,0.56-0.669
		c0.242-0.083,0.486-0.124,0.732-0.124c0.095,0,0.266,0.012,0.512,0.035l0.014-1.19c-0.173-0.023-0.328-0.034-0.465-0.034
		c-0.501,0-0.911,0.119-1.23,0.355c-0.319,0.237-0.591,0.695-0.814,1.374c-0.232-0.068-0.519-0.102-0.861-0.102
		c-0.971,0-1.731,0.201-2.28,0.602c-0.549,0.401-0.824,0.957-0.824,1.667c0,0.575,0.262,1.051,0.786,1.429
		c-0.551,0.274-0.917,0.539-1.097,0.797c-0.18,0.257-0.27,0.557-0.27,0.899c0,0.446,0.196,0.804,0.588,1.073
		C239.128,314.816,238.854,315.022,238.664,315.238L238.664,315.238z M241.077,310.443c0-0.392,0.128-0.708,0.383-0.947
		c0.255-0.239,0.606-0.359,1.053-0.359c0.751,0,1.127,0.344,1.127,1.033c0,0.405-0.123,0.728-0.369,0.967
		c-0.246,0.239-0.59,0.359-1.032,0.359C241.463,311.496,241.077,311.145,241.077,310.443L241.077,310.443L241.077,310.443z
		 M241.835,315.091c0.838,0,1.36,0.034,1.565,0.1s0.308,0.235,0.308,0.509c0,0.702-0.654,1.053-1.962,1.053
		c-0.675,0-1.18-0.1-1.518-0.298c-0.337-0.198-0.506-0.45-0.506-0.755c0-0.242,0.151-0.486,0.452-0.732
		C240.407,315.05,240.96,315.091,241.835,315.091L241.835,315.091L241.835,315.091z M253.8,311.243
		c0.091-0.529,0.136-0.914,0.136-1.155c0-0.616-0.185-1.095-0.557-1.439c-0.371-0.344-0.81-0.517-1.316-0.517
		c-0.351,0-0.711,0.1-1.08,0.298c-0.369,0.198-0.77,0.703-1.203,1.514l0.274-1.62h-1.422l-1.162,6.952H249l0.526-3.131
		c0.146-0.898,0.397-1.582,0.752-2.054c0.356-0.472,0.766-0.708,1.231-0.708c0.291,0,0.509,0.088,0.652,0.264
		c0.144,0.175,0.216,0.39,0.216,0.646c0,0.223-0.025,0.492-0.075,0.806l-0.711,4.177h1.531L253.8,311.243L253.8,311.243z
		 M264.475,305.849h-1.607l-0.28,1.668h1.606L264.475,305.849L264.475,305.849z M264.058,308.324h-1.607l-1.162,6.952h1.607
		L264.058,308.324L264.058,308.324z M265.591,313.588c0.482,1.226,1.515,1.838,3.097,1.838c0.989,0,1.735-0.221,2.239-0.663
		c0.503-0.442,0.755-0.991,0.755-1.647c0-0.387-0.104-0.73-0.312-1.029c-0.206-0.298-0.489-0.529-0.848-0.69
		c-0.358-0.162-0.905-0.352-1.644-0.571c-0.323-0.091-0.539-0.194-0.646-0.308c-0.106-0.114-0.16-0.257-0.16-0.43
		c0-0.247,0.109-0.442,0.328-0.588c0.218-0.146,0.485-0.219,0.8-0.219c0.701,0,1.205,0.303,1.511,0.909l1.319-0.424
		c-0.552-1.094-1.509-1.64-2.871-1.64c-0.839,0-1.487,0.224-1.948,0.673c-0.46,0.449-0.69,0.976-0.69,1.582
		c0,0.388,0.103,0.732,0.307,1.033c0.206,0.3,0.458,0.524,0.76,0.67c0.301,0.146,0.764,0.305,1.388,0.478
		c0.387,0.11,0.662,0.221,0.824,0.335c0.161,0.114,0.242,0.269,0.242,0.465c0,0.264-0.119,0.482-0.359,0.653
		c-0.239,0.171-0.566,0.256-0.98,0.256c-0.83,0-1.379-0.346-1.647-1.039L265.591,313.588L265.591,313.588z M284.653,314.873
		c0-0.338,0.116-1.133,0.35-2.386c0.218-1.19,0.327-1.923,0.327-2.201c0-0.652-0.251-1.174-0.752-1.566
		c-0.502-0.392-1.185-0.588-2.051-0.588c-1.454,0-2.468,0.566-3.042,1.696l1.367,0.43c0.337-0.642,0.873-0.963,1.607-0.963
		c0.382,0,0.701,0.095,0.96,0.287c0.257,0.191,0.386,0.474,0.386,0.847c0,0.123-0.017,0.29-0.048,0.499
		c-0.255-0.018-0.479-0.027-0.67-0.027c-1.481,0-2.569,0.23-3.265,0.69c-0.694,0.461-1.042,1.081-1.042,1.86
		c0,0.565,0.195,1.04,0.584,1.425c0.391,0.385,0.896,0.578,1.515,0.578c0.515,0,0.986-0.15,1.415-0.448s0.757-0.708,0.984-1.227
		c-0.082,0.465-0.123,0.864-0.123,1.196c0,0.078,0.004,0.178,0.014,0.301h1.511C284.662,315.13,284.653,314.996,284.653,314.873
		L284.653,314.873L284.653,314.873z M282.78,313.632c-0.396,0.408-0.827,0.612-1.292,0.612c-0.324,0-0.579-0.088-0.766-0.263
		c-0.188-0.176-0.28-0.403-0.28-0.681c0-0.483,0.232-0.85,0.697-1.1c0.465-0.251,1.292-0.408,2.481-0.472
		C283.458,312.589,283.177,313.224,282.78,313.632L282.78,313.632z M289.641,312.617c0.127-0.775,0.286-1.332,0.475-1.672
		c0.189-0.339,0.451-0.609,0.786-0.81c0.335-0.2,0.691-0.3,1.07-0.3c0.077,0,0.19,0.004,0.342,0.013l0.198-1.709
		c-0.082-0.004-0.145-0.007-0.186-0.007c-1.007,0-1.809,0.695-2.405,2.085l0.313-1.893h-1.408l-1.162,6.952h1.531L289.641,312.617
		L289.641,312.617z M297.752,314.025c-0.196,0.032-0.362,0.048-0.499,0.048c-0.656,0-0.984-0.221-0.984-0.663
		c0-0.11,0.032-0.356,0.096-0.738l0.52-3.097h1.504l0.205-1.251h-1.497l0.328-1.969l-1.395,0.096l-0.417,1.873h-1.046l-0.212,1.251
		h1.032l-0.526,3.076c-0.104,0.62-0.157,1.037-0.157,1.251c0,0.415,0.149,0.767,0.447,1.056c0.299,0.29,0.77,0.434,1.412,0.434
		c0.191,0,0.517-0.034,0.979-0.102L297.752,314.025L297.752,314.025z"/>
	<path d="M210.36,296.046c0.342,0.952,0.989,1.428,1.942,1.428c0.884,0,1.6-0.462,2.15-1.387c0.549-0.926,0.823-1.946,0.823-3.063
		c0-0.898-0.202-1.611-0.608-2.14c-0.406-0.528-0.934-0.793-1.586-0.793c-0.866,0-1.586,0.556-2.16,1.668l0.239-1.435h-1.367
		l-1.572,9.379h1.531L210.36,296.046L210.36,296.046z M211.047,295.789c-0.266-0.289-0.399-0.723-0.399-1.302
		c0-0.788,0.185-1.51,0.557-2.164c0.371-0.654,0.832-0.981,1.384-0.981c0.729,0,1.094,0.6,1.094,1.798
		c0,0.711-0.145,1.403-0.434,2.075c-0.29,0.672-0.701,1.008-1.234,1.008C211.637,296.223,211.314,296.079,211.047,295.789
		L211.047,295.789z M222.175,294.952c-0.374,0.861-0.921,1.292-1.641,1.292c-0.465,0-0.824-0.16-1.077-0.479
		c-0.253-0.319-0.379-0.74-0.379-1.264c0-0.151,0.016-0.324,0.048-0.52h4.778c0.014-0.196,0.021-0.378,0.021-0.547
		c0-1.016-0.239-1.818-0.715-2.406s-1.179-0.882-2.109-0.882c-1.034,0-1.881,0.408-2.539,1.224
		c-0.659,0.816-0.988,1.816-0.988,3.001c0,0.929,0.261,1.675,0.783,2.235c0.522,0.561,1.238,0.841,2.15,0.841
		c1.385,0,2.396-0.711,3.035-2.133L222.175,294.952L222.175,294.952z M219.29,292.99c0.269-1.176,0.875-1.764,1.818-1.764
		c0.912,0,1.367,0.588,1.367,1.764H219.29L219.29,292.99z M228.042,294.617c0.128-0.775,0.286-1.332,0.475-1.672
		c0.189-0.339,0.451-0.609,0.786-0.81c0.335-0.2,0.692-0.3,1.07-0.3c0.078,0,0.192,0.004,0.342,0.013l0.198-1.709
		c-0.082-0.004-0.143-0.007-0.184-0.007c-1.008,0-1.81,0.695-2.407,2.085l0.315-1.893h-1.408l-1.162,6.952h1.531L228.042,294.617
		L228.042,294.617z M236.945,294.754c-0.354,0.916-0.875,1.374-1.558,1.374c-0.351,0-0.654-0.127-0.91-0.38
		c-0.255-0.253-0.382-0.682-0.382-1.288c0-0.798,0.168-1.502,0.505-2.113c0.338-0.61,0.775-0.916,1.313-0.916
		c0.725,0,1.178,0.456,1.36,1.367l1.299-0.252c-0.123-0.775-0.427-1.373-0.913-1.795c-0.485-0.421-1.09-0.632-1.814-0.632
		c-0.957,0-1.753,0.415-2.386,1.244c-0.634,0.829-0.95,1.805-0.95,2.926c0,0.993,0.257,1.765,0.772,2.314
		c0.515,0.549,1.18,0.823,1.996,0.823c1.313,0,2.297-0.738,2.953-2.214L236.945,294.754L236.945,294.754z M245.234,294.952
		c-0.374,0.861-0.92,1.292-1.641,1.292c-0.464,0-0.823-0.16-1.076-0.479c-0.253-0.319-0.38-0.74-0.38-1.264
		c0-0.151,0.016-0.324,0.048-0.52h4.779c0.013-0.196,0.02-0.378,0.02-0.547c0-1.016-0.238-1.818-0.714-2.406
		c-0.477-0.588-1.179-0.882-2.109-0.882c-1.035,0-1.881,0.408-2.54,1.224c-0.658,0.816-0.987,1.816-0.987,3.001
		c0,0.929,0.26,1.675,0.782,2.235c0.522,0.561,1.239,0.841,2.15,0.841c1.385,0,2.397-0.711,3.035-2.133L245.234,294.952
		L245.234,294.952z M242.35,292.99c0.269-1.176,0.875-1.764,1.819-1.764c0.911,0,1.367,0.588,1.367,1.764H242.35L242.35,292.99z
		 M250.854,296.046c0.342,0.952,0.989,1.428,1.941,1.428c0.884,0,1.601-0.462,2.15-1.387c0.549-0.926,0.824-1.946,0.824-3.063
		c0-0.898-0.203-1.611-0.609-2.14c-0.405-0.528-0.934-0.793-1.586-0.793c-0.865,0-1.585,0.556-2.16,1.668l0.24-1.435h-1.368
		l-1.572,9.379h1.531L250.854,296.046L250.854,296.046z M251.542,295.789c-0.267-0.289-0.4-0.723-0.4-1.302
		c0-0.788,0.186-1.51,0.557-2.164c0.371-0.654,0.833-0.981,1.384-0.981c0.729,0,1.094,0.6,1.094,1.798
		c0,0.711-0.145,1.403-0.434,2.075s-0.701,1.008-1.234,1.008C252.13,296.223,251.808,296.079,251.542,295.789L251.542,295.789z
		 M261.371,296.025c-0.196,0.032-0.363,0.048-0.499,0.048c-0.656,0-0.985-0.221-0.985-0.663c0-0.11,0.032-0.356,0.096-0.738
		l0.52-3.097h1.504l0.205-1.251h-1.497l0.328-1.969l-1.395,0.096l-0.417,1.873h-1.046l-0.212,1.251h1.033l-0.527,3.076
		c-0.105,0.62-0.157,1.037-0.157,1.251c0,0.415,0.149,0.767,0.448,1.056c0.298,0.29,0.769,0.434,1.411,0.434
		c0.192,0,0.518-0.034,0.978-0.102L261.371,296.025L261.371,296.025z M266.854,287.849h-1.605l-0.28,1.668h1.605L266.854,287.849
		L266.854,287.849z M266.437,290.324h-1.606l-1.161,6.952h1.605L266.437,290.324L266.437,290.324z M274.042,296.175
		c0.619-0.852,0.93-1.781,0.93-2.789c0-0.979-0.26-1.76-0.779-2.341s-1.213-0.872-2.078-0.872c-1.053,0-1.904,0.405-2.557,1.214
		s-0.979,1.767-0.979,2.874c0,0.684,0.128,1.273,0.381,1.767c0.253,0.495,0.618,0.856,1.1,1.084s0.979,0.342,1.494,0.342
		C272.593,297.454,273.422,297.028,274.042,296.175L274.042,296.175z M270.562,295.793c-0.273-0.274-0.41-0.7-0.41-1.279
		c0-0.683,0.142-1.369,0.423-2.057c0.283-0.688,0.75-1.033,1.402-1.033c0.929,0,1.394,0.602,1.394,1.805
		c0,0.702-0.146,1.373-0.437,2.013c-0.292,0.641-0.748,0.961-1.367,0.961C271.171,296.203,270.836,296.066,270.562,295.793
		L270.562,295.793z M283.441,293.243c0.091-0.529,0.137-0.914,0.137-1.155c0-0.616-0.186-1.095-0.557-1.439
		c-0.372-0.344-0.81-0.517-1.316-0.517c-0.351,0-0.711,0.1-1.079,0.298c-0.369,0.198-0.771,0.703-1.203,1.514l0.272-1.62h-1.422
		l-1.162,6.952h1.532l0.526-3.131c0.146-0.898,0.396-1.582,0.752-2.054c0.354-0.472,0.765-0.708,1.229-0.708
		c0.292,0,0.51,0.088,0.653,0.264c0.144,0.175,0.215,0.39,0.215,0.646c0,0.223-0.025,0.492-0.075,0.806l-0.711,4.177h1.532
		L283.441,293.243L283.441,293.243z M296.674,296.873c0-0.338,0.115-1.133,0.349-2.386c0.218-1.19,0.328-1.923,0.328-2.201
		c0-0.652-0.251-1.174-0.752-1.566c-0.502-0.392-1.185-0.588-2.051-0.588c-1.454,0-2.468,0.566-3.042,1.696l1.367,0.43
		c0.337-0.642,0.872-0.963,1.606-0.963c0.382,0,0.703,0.095,0.96,0.287c0.258,0.191,0.386,0.474,0.386,0.847
		c0,0.123-0.016,0.29-0.048,0.499c-0.255-0.018-0.478-0.027-0.669-0.027c-1.481,0-2.569,0.23-3.265,0.69
		c-0.695,0.461-1.042,1.081-1.042,1.86c0,0.565,0.194,1.04,0.584,1.425c0.39,0.385,0.895,0.578,1.515,0.578
		c0.516,0,0.986-0.15,1.415-0.448c0.428-0.298,0.756-0.708,0.984-1.227c-0.082,0.465-0.123,0.864-0.123,1.196
		c0,0.078,0.004,0.178,0.014,0.301h1.51C296.683,297.13,296.674,296.996,296.674,296.873L296.674,296.873L296.674,296.873z
		 M294.801,295.632c-0.397,0.408-0.827,0.612-1.292,0.612c-0.324,0-0.579-0.088-0.767-0.263c-0.187-0.176-0.279-0.403-0.279-0.681
		c0-0.483,0.231-0.85,0.696-1.1c0.466-0.251,1.292-0.408,2.482-0.472C295.478,294.589,295.196,295.224,294.801,295.632
		L294.801,295.632z M306.015,293.243c0.091-0.529,0.137-0.914,0.137-1.155c0-0.616-0.186-1.095-0.557-1.439
		c-0.372-0.344-0.811-0.517-1.316-0.517c-0.351,0-0.711,0.1-1.08,0.298c-0.368,0.198-0.77,0.703-1.203,1.514l0.273-1.62h-1.422
		l-1.162,6.952h1.531l0.526-3.131c0.146-0.898,0.396-1.582,0.752-2.054s0.766-0.708,1.23-0.708c0.292,0,0.51,0.088,0.653,0.264
		c0.144,0.175,0.215,0.39,0.215,0.646c0,0.223-0.025,0.492-0.075,0.806l-0.711,4.177h1.532L306.015,293.243L306.015,293.243z
		 M315.719,287.945h-1.531l-0.595,3.527c-0.306-0.92-0.937-1.381-1.894-1.381c-0.893,0-1.629,0.441-2.208,1.323
		c-0.579,0.882-0.868,1.938-0.868,3.169c0,0.902,0.19,1.603,0.57,2.102c0.381,0.499,0.883,0.748,1.508,0.748
		c0.907,0,1.641-0.531,2.201-1.593l-0.238,1.436h1.489L315.719,287.945L315.719,287.945z M310.188,294.692
		c0-0.838,0.15-1.601,0.451-2.287c0.301-0.685,0.748-1.028,1.34-1.028c0.387,0,0.698,0.15,0.933,0.451
		c0.235,0.301,0.353,0.695,0.353,1.182c0,0.789-0.175,1.515-0.526,2.178c-0.351,0.663-0.822,0.994-1.415,0.994
		C310.566,296.182,310.188,295.686,310.188,294.692L310.188,294.692L310.188,294.692z M325.703,287.945h-1.729l-1.558,9.331h1.729
		L325.703,287.945L325.703,287.945z M333.773,293.243c0.091-0.529,0.137-0.914,0.137-1.155c0-0.616-0.186-1.095-0.557-1.439
		c-0.372-0.344-0.81-0.517-1.316-0.517c-0.351,0-0.711,0.1-1.079,0.298c-0.369,0.198-0.771,0.703-1.203,1.514l0.272-1.62h-1.422
		l-1.162,6.952h1.531l0.527-3.131c0.146-0.898,0.396-1.582,0.752-2.054c0.354-0.472,0.765-0.708,1.229-0.708
		c0.292,0,0.51,0.088,0.653,0.264c0.144,0.175,0.215,0.39,0.215,0.646c0,0.223-0.025,0.492-0.075,0.806l-0.711,4.177h1.532
		L333.773,293.243L333.773,293.243z M339.727,296.025c-0.196,0.032-0.362,0.048-0.499,0.048c-0.656,0-0.984-0.221-0.984-0.663
		c0-0.11,0.032-0.356,0.097-0.738l0.519-3.097h1.504l0.205-1.251h-1.497l0.328-1.969l-1.394,0.096l-0.417,1.873h-1.046l-0.212,1.251
		h1.031l-0.525,3.076c-0.105,0.62-0.157,1.037-0.157,1.251c0,0.415,0.148,0.767,0.447,1.056c0.299,0.29,0.769,0.434,1.411,0.434
		c0.191,0,0.518-0.034,0.978-0.102L339.727,296.025L339.727,296.025z M346.748,294.952c-0.373,0.861-0.92,1.292-1.64,1.292
		c-0.465,0-0.824-0.16-1.077-0.479c-0.253-0.319-0.38-0.74-0.38-1.264c0-0.151,0.017-0.324,0.048-0.52h4.779
		c0.013-0.196,0.02-0.378,0.02-0.547c0-1.016-0.237-1.818-0.714-2.406c-0.476-0.588-1.179-0.882-2.108-0.882
		c-1.035,0-1.881,0.408-2.54,1.224c-0.658,0.816-0.987,1.816-0.987,3.001c0,0.929,0.26,1.675,0.782,2.235
		c0.521,0.561,1.239,0.841,2.149,0.841c1.387,0,2.397-0.711,3.035-2.133L346.748,294.952L346.748,294.952z M343.863,292.99
		c0.27-1.176,0.875-1.764,1.819-1.764c0.911,0,1.367,0.588,1.367,1.764H343.863L343.863,292.99z M352.617,294.617
		c0.127-0.775,0.286-1.332,0.476-1.672c0.188-0.339,0.451-0.609,0.786-0.81c0.335-0.2,0.69-0.3,1.069-0.3
		c0.077,0,0.191,0.004,0.343,0.013l0.197-1.709c-0.082-0.004-0.144-0.007-0.185-0.007c-1.007,0-1.81,0.695-2.406,2.085l0.314-1.893
		h-1.408l-1.162,6.952h1.531L352.617,294.617L352.617,294.617z M358.558,296.046c0.342,0.952,0.989,1.428,1.94,1.428
		c0.885,0,1.602-0.462,2.15-1.387c0.549-0.926,0.824-1.946,0.824-3.063c0-0.898-0.203-1.611-0.609-2.14
		c-0.404-0.528-0.934-0.793-1.586-0.793c-0.865,0-1.585,0.556-2.16,1.668l0.24-1.435h-1.368l-1.571,9.379h1.53L358.558,296.046
		L358.558,296.046z M359.244,295.789c-0.267-0.289-0.399-0.723-0.399-1.302c0-0.788,0.186-1.51,0.557-2.164
		c0.371-0.654,0.833-0.981,1.384-0.981c0.729,0,1.095,0.6,1.095,1.798c0,0.711-0.146,1.403-0.435,2.075s-0.701,1.008-1.233,1.008
		C359.834,296.223,359.511,296.079,359.244,295.789L359.244,295.789z M367.584,294.617c0.127-0.775,0.285-1.332,0.475-1.672
		c0.189-0.339,0.451-0.609,0.786-0.81c0.335-0.2,0.69-0.3,1.069-0.3c0.077,0,0.191,0.004,0.342,0.013l0.199-1.709
		c-0.082-0.004-0.145-0.007-0.186-0.007c-1.007,0-1.809,0.695-2.406,2.085l0.314-1.893h-1.408l-1.162,6.952h1.531L367.584,294.617
		L367.584,294.617z M376.63,294.952c-0.374,0.861-0.921,1.292-1.642,1.292c-0.465,0-0.822-0.16-1.076-0.479
		c-0.253-0.319-0.38-0.74-0.38-1.264c0-0.151,0.017-0.324,0.048-0.52h4.778c0.015-0.196,0.021-0.378,0.021-0.547
		c0-1.016-0.238-1.818-0.714-2.406c-0.478-0.588-1.181-0.882-2.109-0.882c-1.035,0-1.881,0.408-2.54,1.224
		c-0.658,0.816-0.988,1.816-0.988,3.001c0,0.929,0.261,1.675,0.783,2.235c0.522,0.561,1.238,0.841,2.15,0.841
		c1.385,0,2.396-0.711,3.034-2.133L376.63,294.952L376.63,294.952z M373.744,292.99c0.27-1.176,0.875-1.764,1.819-1.764
		c0.911,0,1.367,0.588,1.367,1.764H373.744L373.744,292.99z M383.991,296.025c-0.195,0.032-0.362,0.048-0.499,0.048
		c-0.656,0-0.984-0.221-0.984-0.663c0-0.11,0.031-0.356,0.096-0.738l0.52-3.097h1.504l0.205-1.251h-1.497l0.327-1.969l-1.394,0.096
		l-0.417,1.873h-1.046l-0.212,1.251h1.032l-0.526,3.076c-0.105,0.62-0.157,1.037-0.157,1.251c0,0.415,0.149,0.767,0.447,1.056
		c0.299,0.29,0.769,0.434,1.412,0.434c0.19,0,0.517-0.034,0.978-0.102L383.991,296.025L383.991,296.025z M392.157,296.873
		c0-0.338,0.116-1.133,0.349-2.386c0.219-1.19,0.328-1.923,0.328-2.201c0-0.652-0.25-1.174-0.751-1.566
		c-0.503-0.392-1.186-0.588-2.052-0.588c-1.454,0-2.468,0.566-3.042,1.696l1.367,0.43c0.337-0.642,0.873-0.963,1.606-0.963
		c0.383,0,0.703,0.095,0.961,0.287c0.257,0.191,0.386,0.474,0.386,0.847c0,0.123-0.016,0.29-0.048,0.499
		c-0.255-0.018-0.479-0.027-0.67-0.027c-1.481,0-2.569,0.23-3.265,0.69c-0.694,0.461-1.042,1.081-1.042,1.86
		c0,0.565,0.194,1.04,0.584,1.425c0.391,0.385,0.895,0.578,1.515,0.578c0.515,0,0.986-0.15,1.415-0.448s0.757-0.708,0.984-1.227
		c-0.082,0.465-0.123,0.864-0.123,1.196c0,0.078,0.004,0.178,0.014,0.301h1.511C392.167,297.13,392.157,296.996,392.157,296.873
		L392.157,296.873L392.157,296.873z M390.284,295.632c-0.396,0.408-0.826,0.612-1.292,0.612c-0.323,0-0.578-0.088-0.766-0.263
		c-0.188-0.176-0.28-0.403-0.28-0.681c0-0.483,0.232-0.85,0.697-1.1c0.465-0.251,1.292-0.408,2.481-0.472
		C390.961,294.589,390.681,295.224,390.284,295.632L390.284,295.632z M398.646,296.025c-0.196,0.032-0.362,0.048-0.499,0.048
		c-0.656,0-0.983-0.221-0.983-0.663c0-0.11,0.031-0.356,0.096-0.738l0.519-3.097h1.504l0.205-1.251h-1.497l0.328-1.969l-1.394,0.096
		l-0.417,1.873h-1.046l-0.212,1.251h1.031l-0.525,3.076c-0.105,0.62-0.157,1.037-0.157,1.251c0,0.415,0.149,0.767,0.447,1.056
		c0.299,0.29,0.769,0.434,1.412,0.434c0.19,0,0.517-0.034,0.977-0.102L398.646,296.025L398.646,296.025z M404.131,287.849h-1.607
		l-0.28,1.668h1.607L404.131,287.849L404.131,287.849z M403.714,290.324h-1.607l-1.162,6.952h1.607L403.714,290.324L403.714,290.324
		z M411.318,296.175c0.62-0.852,0.93-1.781,0.93-2.789c0-0.979-0.26-1.76-0.779-2.341s-1.212-0.872-2.078-0.872
		c-1.053,0-1.905,0.405-2.557,1.214s-0.978,1.767-0.978,2.874c0,0.684,0.126,1.273,0.379,1.767c0.253,0.495,0.62,0.856,1.102,1.084
		c0.48,0.228,0.978,0.342,1.493,0.342C409.869,297.454,410.698,297.028,411.318,296.175L411.318,296.175z M407.839,295.793
		c-0.273-0.274-0.41-0.7-0.41-1.279c0-0.683,0.141-1.369,0.424-2.057s0.75-1.033,1.401-1.033c0.93,0,1.395,0.602,1.395,1.805
		c0,0.702-0.146,1.373-0.438,2.013c-0.291,0.641-0.747,0.961-1.367,0.961C408.447,296.203,408.112,296.066,407.839,295.793
		L407.839,295.793z M420.719,293.243c0.091-0.529,0.137-0.914,0.137-1.155c0-0.616-0.186-1.095-0.557-1.439
		c-0.372-0.344-0.812-0.517-1.316-0.517c-0.351,0-0.711,0.1-1.08,0.298c-0.37,0.198-0.771,0.703-1.204,1.514l0.274-1.62h-1.422
		l-1.162,6.952h1.531l0.525-3.131c0.146-0.898,0.397-1.582,0.752-2.054c0.356-0.472,0.767-0.708,1.231-0.708
		c0.291,0,0.509,0.088,0.653,0.264c0.143,0.175,0.215,0.39,0.215,0.646c0,0.223-0.025,0.492-0.075,0.806l-0.711,4.177h1.53
		L420.719,293.243L420.719,293.243z"/>
	<path d="M180.98,273.941v2.703c0,0.77-0.014,1.457,0.532,2.045c0.545,0.587,1.259,0.824,2,0.726l1.638-0.209v-2.002
		c-0.266,0.07-0.532,0.126-0.798,0.126c-0.658,0-0.602-0.406-0.602-0.924v-2.465h1.4v-1.818h-1.428v-2.366l-2.406,0.084l-0.21,2.282
		h-1.162v1.818H180.98L180.98,273.941z M194.65,279.275v-4.479c0-0.728,0-1.415-0.405-2.031c-0.392-0.587-1.134-0.782-1.833-0.782
		c-0.84,0-1.485,0.334-2.018,0.978v-3.288h-2.77v9.602h2.77v-4.297c-0.014-0.238,0-0.49,0.155-0.686
		c0.154-0.224,0.392-0.35,0.658-0.35c0.575,0,0.673,0.406,0.673,0.882v4.451H194.65L194.65,279.275z M202.064,276.714
		c-0.112,0.617-0.462,0.869-1.092,0.869c-0.84,0-1.12-0.561-1.078-1.332h4.787v-0.377c0-2.353-1.455-3.891-3.835-3.891
		c-1.022,0-2.113,0.349-2.841,1.105c-0.672,0.685-1.05,1.737-1.05,2.702c0,1.022,0.406,2.003,1.176,2.688
		c0.812,0.713,1.833,0.937,2.883,0.937c1.694,0,3.233-0.797,3.667-2.533L202.064,276.714L202.064,276.714z M199.88,274.853
		c-0.028-0.659,0.266-1.234,0.994-1.234c0.784,0,1.008,0.533,1.008,1.234H199.88L199.88,274.853z M219.899,279.275
		c-0.21-0.502-0.224-1.034-0.224-1.567v-2.506c0-1.023,0.112-1.946-0.826-2.604c-0.699-0.503-1.776-0.615-2.616-0.615
		c-1.61,0-3.304,0.461-3.724,2.238l2.548,0.238c0.084-0.602,0.546-0.798,1.092-0.798c0.672,0,0.84,0.252,0.84,0.896v0.056
		c-0.938,0.056-1.904,0.168-2.814,0.449c-0.994,0.308-1.876,1.064-1.876,2.198c0,1.429,1.162,2.155,2.492,2.155
		c0.98,0,1.778-0.306,2.338-1.132c0,0.336,0.028,0.672,0.098,0.992H219.899L219.899,279.275z M216.99,276.071
		c0,0.784-0.014,1.666-1.064,1.666c-0.434,0-0.728-0.196-0.728-0.658c0-0.868,1.12-1.078,1.792-1.148V276.071L216.99,276.071z
		 M224.636,273.591v-1.468h-2.364v7.152h2.77v-3.107c0-0.42,0-0.882,0.196-1.232c0.224-0.406,0.687-0.49,1.134-0.49
		c0.182,0,0.364,0.028,0.532,0.07v-2.505l-0.378-0.028c-1.106-0.084-1.624,0.614-1.862,1.608H224.636L224.636,273.591z
		 M229.654,273.941v2.703c0,0.77-0.014,1.457,0.532,2.045c0.545,0.587,1.259,0.824,2.001,0.726l1.637-0.209v-2.002
		c-0.266,0.07-0.532,0.126-0.798,0.126c-0.658,0-0.602-0.406-0.602-0.924v-2.465h1.4v-1.818h-1.428v-2.366l-2.406,0.084l-0.21,2.282
		h-1.162v1.818H229.654L229.654,273.941z M245.417,271.983c-2.24,0-3.933,1.482-3.933,3.779c0,2.171,1.749,3.653,3.933,3.653
		s3.933-1.482,3.933-3.653C249.351,273.465,247.658,271.983,245.417,271.983L245.417,271.983z M245.417,273.731
		c0.953,0,0.967,1.247,0.967,1.933c0,1.919-0.463,2.059-0.967,2.059s-0.967-0.14-0.967-2.059
		C244.451,274.978,244.464,273.731,245.417,273.731L245.417,273.731z M254.768,274.123h1.736v-1.762h-1.764
		c-0.07-0.673,0.126-1.066,0.812-1.01l1.26,0.112v-1.748l-2.058-0.182c-0.826,0-1.693,0.112-2.239,0.783
		c-0.476,0.588-0.518,1.245-0.518,1.947v0.098h-1.008v1.762h1.008v5.152h2.771V274.123L254.768,274.123z M263.812,277.247
		c0.532,1.651,2.002,2.168,3.597,2.168c1.61,0,3.695-0.559,3.695-2.532c0-0.771-0.35-1.401-1.007-1.821
		c-0.574-0.35-1.302-0.448-1.946-0.532c-0.336-0.043-0.896-0.085-1.204-0.169c-0.182-0.042-0.42-0.14-0.42-0.364
		c0-0.308,0.672-0.378,0.896-0.378c0.49,0,1.036,0.14,1.246,0.63l2.112-0.406c-0.475-1.343-1.889-1.86-3.232-1.86
		c-0.798,0-1.596,0.112-2.295,0.545c-0.673,0.42-1.106,1.063-1.106,1.875c0,1.905,1.778,2.199,3.275,2.409
		c0.252,0.028,1.204,0.099,1.204,0.463c0,0.42-0.784,0.448-1.064,0.448c-0.602,0-1.371-0.084-1.524-0.77L263.812,277.247
		L263.812,277.247z M278.048,276.714c-0.111,0.617-0.461,0.869-1.091,0.869c-0.841,0-1.12-0.561-1.078-1.332h4.787v-0.377
		c0-2.353-1.456-3.891-3.836-3.891c-1.021,0-2.113,0.349-2.842,1.105c-0.671,0.685-1.049,1.737-1.049,2.702
		c0,1.022,0.406,2.003,1.175,2.688c0.812,0.713,1.834,0.937,2.884,0.937c1.693,0,3.233-0.797,3.668-2.533L278.048,276.714
		L278.048,276.714z M275.864,274.853c-0.027-0.659,0.267-1.234,0.994-1.234c0.784,0,1.007,0.533,1.007,1.234H275.864
		L275.864,274.853z M285.893,269.673h-2.77v9.602h2.77V269.673L285.893,269.673z M291.889,274.123h1.736v-1.762h-1.765
		c-0.069-0.673,0.126-1.066,0.812-1.01l1.26,0.112v-1.748l-2.058-0.182c-0.825,0-1.693,0.112-2.238,0.783
		c-0.477,0.588-0.519,1.245-0.519,1.947v0.098h-1.008v1.762h1.008v5.152h2.771V274.123L291.889,274.123z M298.775,274.321h-3.554
		v2.21h3.554V274.321L298.775,274.321z M303.557,273.591v-1.468h-2.364v7.152h2.771v-3.107c0-0.42,0-0.882,0.195-1.232
		c0.225-0.406,0.687-0.49,1.135-0.49c0.182,0,0.363,0.028,0.531,0.07v-2.505l-0.378-0.028c-1.105-0.084-1.624,0.614-1.861,1.608
		H303.557L303.557,273.591z M312.732,276.714c-0.111,0.617-0.462,0.869-1.092,0.869c-0.84,0-1.12-0.561-1.078-1.332h4.787v-0.377
		c0-2.353-1.455-3.891-3.835-3.891c-1.022,0-2.113,0.349-2.841,1.105c-0.672,0.685-1.051,1.737-1.051,2.702
		c0,1.022,0.406,2.003,1.177,2.688c0.812,0.713,1.833,0.937,2.883,0.937c1.694,0,3.233-0.797,3.667-2.533L312.732,276.714
		L312.732,276.714z M310.549,274.853c-0.028-0.659,0.266-1.234,0.994-1.234c0.783,0,1.008,0.533,1.008,1.234H310.549
		L310.549,274.853z M320.837,274.123h1.735v-1.762h-1.764c-0.07-0.673,0.126-1.066,0.812-1.01l1.26,0.112v-1.748l-2.059-0.182
		c-0.826,0-1.692,0.112-2.238,0.783c-0.477,0.588-0.518,1.245-0.518,1.947v0.098h-1.008v1.762h1.008v5.152h2.771V274.123
		L320.837,274.123z M327.555,269.673h-2.771v9.602h2.771V269.673L327.555,269.673z M335.077,276.714
		c-0.111,0.617-0.462,0.869-1.092,0.869c-0.84,0-1.12-0.561-1.078-1.332h4.787v-0.377c0-2.353-1.455-3.891-3.835-3.891
		c-1.021,0-2.113,0.349-2.841,1.105c-0.672,0.685-1.05,1.737-1.05,2.702c0,1.022,0.406,2.003,1.176,2.688
		c0.812,0.713,1.833,0.937,2.883,0.937c1.694,0,3.233-0.797,3.667-2.533L335.077,276.714L335.077,276.714z M332.894,274.853
		c-0.028-0.659,0.266-1.234,0.994-1.234c0.784,0,1.008,0.533,1.008,1.234H332.894L332.894,274.853z M347.261,279.275l-2.547-3.905
		l2.085-3.247h-2.31l-0.784,1.342l-0.084,0.154l-0.125,0.225l-0.154-0.253l-0.07-0.154l-0.728-1.314h-3.136l2.198,3.359
		l-2.506,3.793h2.282l1.398-2.281l1.316,2.281H347.261L347.261,279.275z M351.998,272.123h-2.77v7.152h2.77V272.123L351.998,272.123
		z M351.998,269.533h-2.77v1.902h2.77V269.533L351.998,269.533z M361.48,272.123h-2.002l-1.008,3.023l-0.251,0.756l-1.232-3.779
		h-2.896l2.673,7.152h2.099L361.48,272.123L361.48,272.123z M366.246,272.123h-2.771v7.152h2.771V272.123L366.246,272.123z
		 M366.246,269.533h-2.771v1.902h2.771V269.533L366.246,269.533z M369.489,273.941v2.703c0,0.77-0.014,1.457,0.532,2.045
		c0.546,0.587,1.259,0.824,2.001,0.726l1.638-0.209v-2.002c-0.266,0.07-0.531,0.126-0.798,0.126c-0.657,0-0.602-0.406-0.602-0.924
		v-2.465h1.399v-1.818h-1.428v-2.366l-2.407,0.084l-0.21,2.282h-1.162v1.818H369.489L369.489,273.941z M382.969,272.123h-2.043
		l-1.246,3.807l-1.176-3.807h-3.01l2.506,6.468c0.069,0.196,0.182,0.434,0.182,0.644c0,0.56-0.84,0.546-1.218,0.546l-1.007-0.084
		v1.986l0.237,0.014l1.175,0.056c1.597,0,2.311-0.559,2.843-2.042L382.969,272.123L382.969,272.123z"/>
	<path d="M214.374,224.873c0-0.338,0.116-1.133,0.349-2.386c0.218-1.19,0.328-1.923,0.328-2.201c0-0.652-0.251-1.174-0.752-1.566
		c-0.501-0.392-1.186-0.588-2.051-0.588c-1.454,0-2.468,0.566-3.042,1.696l1.367,0.43c0.338-0.642,0.873-0.963,1.607-0.963
		c0.383,0,0.703,0.095,0.96,0.287c0.258,0.191,0.386,0.474,0.386,0.847c0,0.123-0.016,0.29-0.047,0.499
		c-0.256-0.018-0.479-0.027-0.67-0.027c-1.481,0-2.57,0.23-3.264,0.69c-0.696,0.461-1.043,1.081-1.043,1.86
		c0,0.565,0.195,1.04,0.585,1.425c0.389,0.385,0.894,0.578,1.514,0.578c0.515,0,0.986-0.15,1.415-0.448
		c0.428-0.298,0.756-0.708,0.984-1.227c-0.082,0.465-0.123,0.864-0.123,1.196c0,0.078,0.005,0.178,0.014,0.301h1.51
		C214.383,225.13,214.374,224.996,214.374,224.873L214.374,224.873L214.374,224.873z M212.5,223.632
		c-0.396,0.408-0.827,0.612-1.292,0.612c-0.324,0-0.579-0.088-0.766-0.263c-0.186-0.176-0.28-0.403-0.28-0.681
		c0-0.483,0.233-0.849,0.697-1.1c0.465-0.251,1.292-0.408,2.482-0.472C213.178,222.589,212.897,223.224,212.5,223.632L212.5,223.632
		z M216.934,223.588c0.483,1.226,1.515,1.838,3.096,1.838c0.989,0,1.736-0.221,2.239-0.663c0.504-0.442,0.756-0.991,0.756-1.647
		c0-0.387-0.104-0.73-0.311-1.029c-0.208-0.298-0.49-0.529-0.848-0.69c-0.358-0.162-0.906-0.352-1.644-0.571
		c-0.324-0.091-0.539-0.194-0.646-0.308c-0.107-0.114-0.161-0.257-0.161-0.43c0-0.247,0.11-0.442,0.328-0.588
		c0.219-0.146,0.486-0.219,0.8-0.219c0.702,0,1.205,0.303,1.511,0.909l1.319-0.424c-0.551-1.094-1.508-1.64-2.871-1.64
		c-0.838,0-1.488,0.224-1.948,0.673c-0.461,0.449-0.691,0.976-0.691,1.582c0,0.388,0.104,0.732,0.308,1.033
		c0.205,0.3,0.458,0.524,0.759,0.67c0.301,0.146,0.763,0.305,1.388,0.478c0.387,0.11,0.661,0.221,0.823,0.335
		c0.162,0.114,0.243,0.269,0.243,0.465c0,0.264-0.12,0.482-0.359,0.653c-0.239,0.171-0.566,0.256-0.981,0.256
		c-0.829,0-1.379-0.346-1.647-1.039L216.934,223.588L216.934,223.588z M232.715,221.318h3.35l0.232-1.388h-3.349l0.423-2.522h4.027
		l0.246-1.463h-5.742l-1.559,9.331h1.709L232.715,221.318L232.715,221.318z M241.736,215.849h-1.606l-0.28,1.668h1.606
		L241.736,215.849L241.736,215.849z M241.319,218.324h-1.606l-1.162,6.952h1.606L241.319,218.324L241.319,218.324z M243.113,225.238
		c-0.191,0.217-0.287,0.512-0.287,0.886c0,1.089,1.023,1.633,3.07,1.633c1.385,0,2.355-0.235,2.908-0.707
		c0.554-0.472,0.831-0.995,0.831-1.569c0-0.337-0.106-0.653-0.318-0.947s-0.506-0.508-0.882-0.642
		c-0.376-0.135-0.967-0.202-1.774-0.202h-0.827c-0.451,0-0.75-0.056-0.896-0.167c-0.145-0.112-0.218-0.266-0.218-0.462
		c0-0.355,0.207-0.638,0.622-0.847c0.501,0.132,0.952,0.198,1.353,0.198c0.948,0,1.677-0.212,2.188-0.636
		c0.51-0.424,0.765-0.962,0.765-1.613c0-0.748-0.355-1.299-1.066-1.655c0.132-0.364,0.319-0.587,0.561-0.669
		c0.241-0.083,0.485-0.124,0.731-0.124c0.096,0,0.267,0.012,0.513,0.035l0.013-1.19c-0.173-0.023-0.328-0.034-0.464-0.034
		c-0.502,0-0.912,0.119-1.231,0.355c-0.319,0.237-0.59,0.695-0.813,1.374c-0.233-0.068-0.52-0.102-0.862-0.102
		c-0.97,0-1.729,0.201-2.279,0.602c-0.55,0.401-0.824,0.957-0.824,1.667c0,0.575,0.262,1.051,0.786,1.429
		c-0.552,0.274-0.917,0.539-1.097,0.797c-0.18,0.257-0.27,0.557-0.27,0.899c0,0.446,0.196,0.804,0.588,1.073
		C243.579,224.816,243.306,225.022,243.113,225.238L243.113,225.238z M245.526,220.443c0-0.392,0.128-0.708,0.383-0.947
		c0.255-0.239,0.606-0.359,1.053-0.359c0.752,0,1.128,0.344,1.128,1.033c0,0.405-0.123,0.728-0.369,0.967
		c-0.246,0.239-0.591,0.359-1.033,0.359C245.915,221.496,245.526,221.145,245.526,220.443L245.526,220.443L245.526,220.443z
		 M246.286,225.091c0.839,0,1.361,0.034,1.566,0.1s0.307,0.235,0.307,0.509c0,0.702-0.654,1.053-1.962,1.053
		c-0.674,0-1.18-0.1-1.517-0.298c-0.338-0.198-0.506-0.45-0.506-0.755c0-0.242,0.15-0.486,0.451-0.732
		C244.856,225.05,245.411,225.091,246.286,225.091L246.286,225.091L246.286,225.091z M258.411,218.324h-1.532l-0.492,2.939
		c-0.114,0.675-0.239,1.186-0.376,1.535c-0.137,0.349-0.369,0.653-0.697,0.913c-0.328,0.259-0.649,0.389-0.964,0.389
		c-0.228,0-0.412-0.066-0.554-0.198c-0.141-0.132-0.212-0.31-0.212-0.533c0-0.091,0.032-0.335,0.096-0.732l0.725-4.313h-1.531
		l-0.67,4.006c-0.119,0.697-0.178,1.157-0.178,1.381c0,0.428,0.146,0.818,0.437,1.169c0.292,0.35,0.711,0.526,1.258,0.526
		c0.985,0,1.771-0.549,2.359-1.648l-0.253,1.518h1.422L258.411,218.324L258.411,218.324z M262.421,222.617
		c0.127-0.775,0.286-1.332,0.475-1.672c0.189-0.339,0.451-0.609,0.786-0.81c0.335-0.2,0.69-0.3,1.07-0.3
		c0.076,0,0.19,0.004,0.342,0.013l0.198-1.709c-0.082-0.004-0.145-0.007-0.186-0.007c-1.007,0-1.809,0.695-2.406,2.085l0.314-1.893
		h-1.408l-1.162,6.952h1.531L262.421,222.617L262.421,222.617z M272.544,224.873c0-0.338,0.115-1.133,0.348-2.386
		c0.219-1.19,0.329-1.923,0.329-2.201c0-0.652-0.251-1.174-0.752-1.566c-0.502-0.392-1.186-0.588-2.051-0.588
		c-1.454,0-2.469,0.566-3.042,1.696l1.366,0.43c0.337-0.642,0.873-0.963,1.607-0.963c0.382,0,0.702,0.095,0.96,0.287
		c0.257,0.191,0.386,0.474,0.386,0.847c0,0.123-0.016,0.29-0.048,0.499c-0.255-0.018-0.478-0.027-0.67-0.027
		c-1.481,0-2.569,0.23-3.264,0.69c-0.695,0.461-1.042,1.081-1.042,1.86c0,0.565,0.194,1.04,0.584,1.425
		c0.39,0.385,0.895,0.578,1.514,0.578c0.515,0,0.987-0.15,1.415-0.448c0.429-0.298,0.757-0.708,0.985-1.227
		c-0.082,0.465-0.123,0.864-0.123,1.196c0,0.078,0.004,0.178,0.013,0.301h1.511C272.553,225.13,272.544,224.996,272.544,224.873
		L272.544,224.873L272.544,224.873z M270.671,223.632c-0.397,0.408-0.827,0.612-1.292,0.612c-0.324,0-0.579-0.088-0.767-0.263
		c-0.187-0.176-0.28-0.403-0.28-0.681c0-0.483,0.232-0.849,0.697-1.1s1.292-0.408,2.482-0.472
		C271.348,222.589,271.066,223.224,270.671,223.632L270.671,223.632z M279.033,224.025c-0.195,0.032-0.362,0.048-0.5,0.048
		c-0.655,0-0.983-0.221-0.983-0.663c0-0.11,0.032-0.356,0.096-0.738l0.519-3.097h1.505l0.204-1.251h-1.496l0.327-1.969l-1.394,0.096
		l-0.417,1.873h-1.046l-0.212,1.251h1.032l-0.526,3.076c-0.105,0.62-0.157,1.037-0.157,1.251c0,0.415,0.149,0.767,0.447,1.056
		c0.299,0.29,0.769,0.434,1.412,0.434c0.19,0,0.517-0.034,0.978-0.102L279.033,224.025L279.033,224.025z M284.517,215.849h-1.606
		l-0.28,1.668h1.606L284.517,215.849L284.517,215.849z M284.1,218.324h-1.606l-1.163,6.952h1.607L284.1,218.324L284.1,218.324z
		 M292.628,218.324h-1.354l-2.262,4.867l-0.923-4.867h-1.675l1.476,6.952h1.429L292.628,218.324L292.628,218.324z M298.475,222.952
		c-0.374,0.861-0.921,1.292-1.641,1.292c-0.465,0-0.823-0.16-1.076-0.479c-0.253-0.319-0.38-0.74-0.38-1.264
		c0-0.151,0.016-0.324,0.048-0.52h4.779c0.013-0.196,0.02-0.378,0.02-0.547c0-1.016-0.238-1.818-0.714-2.406
		c-0.478-0.588-1.181-0.882-2.109-0.882c-1.035,0-1.881,0.408-2.54,1.224c-0.658,0.816-0.988,1.816-0.988,3.001
		c0,0.929,0.262,1.675,0.783,2.235c0.522,0.561,1.239,0.841,2.15,0.841c1.385,0,2.396-0.711,3.035-2.133L298.475,222.952
		L298.475,222.952z M295.59,220.99c0.269-1.176,0.875-1.764,1.818-1.764c0.911,0,1.367,0.588,1.367,1.764H295.59L295.59,220.99z
		 M302.014,223.588c0.482,1.226,1.516,1.838,3.097,1.838c0.989,0,1.735-0.221,2.239-0.663c0.503-0.442,0.755-0.991,0.755-1.647
		c0-0.387-0.103-0.73-0.311-1.029c-0.207-0.298-0.49-0.529-0.848-0.69c-0.357-0.162-0.905-0.352-1.645-0.571
		c-0.323-0.091-0.538-0.194-0.646-0.308c-0.107-0.114-0.16-0.257-0.16-0.43c0-0.247,0.108-0.442,0.327-0.588
		c0.22-0.146,0.485-0.219,0.8-0.219c0.702,0,1.205,0.303,1.512,0.909l1.318-0.424c-0.552-1.094-1.509-1.64-2.87-1.64
		c-0.84,0-1.488,0.224-1.948,0.673c-0.461,0.449-0.691,0.976-0.691,1.582c0,0.388,0.104,0.732,0.309,1.033
		c0.205,0.3,0.458,0.524,0.759,0.67c0.3,0.146,0.763,0.305,1.387,0.478c0.387,0.11,0.662,0.221,0.824,0.335
		c0.162,0.114,0.243,0.269,0.243,0.465c0,0.264-0.12,0.482-0.359,0.653c-0.24,0.171-0.566,0.256-0.98,0.256
		c-0.83,0-1.379-0.346-1.648-1.039L302.014,223.588L302.014,223.588z"/>
	<path d="M214.374,206.873c0-0.338,0.116-1.133,0.349-2.386c0.218-1.19,0.328-1.923,0.328-2.201c0-0.652-0.251-1.174-0.752-1.566
		c-0.501-0.392-1.186-0.588-2.051-0.588c-1.454,0-2.468,0.566-3.042,1.696l1.367,0.43c0.338-0.642,0.873-0.963,1.607-0.963
		c0.383,0,0.703,0.095,0.96,0.287c0.258,0.191,0.386,0.474,0.386,0.847c0,0.123-0.016,0.29-0.047,0.499
		c-0.256-0.018-0.479-0.027-0.67-0.027c-1.481,0-2.57,0.23-3.264,0.69c-0.696,0.461-1.043,1.081-1.043,1.86
		c0,0.565,0.195,1.04,0.585,1.425c0.389,0.385,0.894,0.578,1.514,0.578c0.515,0,0.986-0.15,1.415-0.448
		c0.428-0.298,0.756-0.708,0.984-1.227c-0.082,0.465-0.123,0.864-0.123,1.196c0,0.078,0.005,0.178,0.014,0.301h1.51
		C214.383,207.13,214.374,206.996,214.374,206.873L214.374,206.873L214.374,206.873z M212.5,205.632
		c-0.396,0.408-0.827,0.612-1.292,0.612c-0.324,0-0.579-0.088-0.766-0.263c-0.186-0.176-0.28-0.403-0.28-0.681
		c0-0.483,0.233-0.849,0.697-1.1c0.465-0.251,1.292-0.408,2.482-0.472C213.178,204.589,212.897,205.224,212.5,205.632L212.5,205.632
		z M216.934,205.588c0.483,1.226,1.515,1.838,3.096,1.838c0.989,0,1.736-0.221,2.239-0.663c0.504-0.442,0.756-0.991,0.756-1.647
		c0-0.387-0.104-0.73-0.311-1.029c-0.208-0.298-0.49-0.529-0.848-0.69c-0.358-0.162-0.906-0.352-1.644-0.571
		c-0.324-0.091-0.539-0.194-0.646-0.308c-0.107-0.114-0.161-0.257-0.161-0.43c0-0.247,0.11-0.442,0.328-0.588
		c0.219-0.146,0.486-0.219,0.8-0.219c0.702,0,1.205,0.303,1.511,0.909l1.319-0.424c-0.551-1.094-1.508-1.64-2.871-1.64
		c-0.838,0-1.488,0.224-1.948,0.673c-0.461,0.449-0.691,0.976-0.691,1.582c0,0.388,0.104,0.732,0.308,1.033
		c0.205,0.3,0.458,0.524,0.759,0.67c0.301,0.146,0.763,0.305,1.388,0.478c0.387,0.11,0.661,0.221,0.823,0.335
		c0.162,0.114,0.243,0.269,0.243,0.465c0,0.264-0.12,0.482-0.359,0.653c-0.239,0.171-0.566,0.256-0.981,0.256
		c-0.829,0-1.379-0.346-1.647-1.039L216.934,205.588L216.934,205.588z M237.343,197.945h-6.46l-0.246,1.463h2.372l-1.319,7.868
		h1.716l1.319-7.868h2.372L237.343,197.945L237.343,197.945z M243.165,206.873c0-0.338,0.116-1.133,0.348-2.386
		c0.219-1.19,0.329-1.923,0.329-2.201c0-0.652-0.251-1.174-0.752-1.566c-0.502-0.392-1.185-0.588-2.051-0.588
		c-1.454,0-2.468,0.566-3.042,1.696l1.367,0.43c0.337-0.642,0.873-0.963,1.606-0.963c0.383,0,0.703,0.095,0.961,0.287
		c0.257,0.191,0.386,0.474,0.386,0.847c0,0.123-0.016,0.29-0.048,0.499c-0.255-0.018-0.478-0.027-0.67-0.027
		c-1.481,0-2.569,0.23-3.264,0.69c-0.695,0.461-1.042,1.081-1.042,1.86c0,0.565,0.195,1.04,0.584,1.425
		c0.39,0.385,0.895,0.578,1.514,0.578c0.515,0,0.987-0.15,1.415-0.448c0.429-0.298,0.757-0.708,0.985-1.227
		c-0.082,0.465-0.123,0.864-0.123,1.196c0,0.078,0.004,0.178,0.013,0.301h1.511C243.174,207.13,243.165,206.996,243.165,206.873
		L243.165,206.873L243.165,206.873z M241.292,205.632c-0.397,0.408-0.827,0.612-1.292,0.612c-0.324,0-0.579-0.088-0.766-0.263
		c-0.187-0.176-0.28-0.403-0.28-0.681c0-0.483,0.232-0.849,0.697-1.1c0.465-0.251,1.292-0.408,2.482-0.472
		C241.969,204.589,241.688,205.224,241.292,205.632L241.292,205.632z M252.82,200.324h-1.532l-0.492,2.939
		c-0.114,0.675-0.239,1.186-0.376,1.535c-0.136,0.349-0.369,0.653-0.697,0.913c-0.328,0.259-0.649,0.389-0.964,0.389
		c-0.228,0-0.412-0.066-0.554-0.198c-0.141-0.132-0.212-0.31-0.212-0.533c0-0.091,0.032-0.335,0.096-0.732l0.725-4.313h-1.531
		l-0.67,4.006c-0.119,0.697-0.178,1.157-0.178,1.381c0,0.428,0.146,0.818,0.437,1.169c0.292,0.35,0.711,0.526,1.258,0.526
		c0.985,0,1.771-0.549,2.359-1.648l-0.253,1.518h1.422L252.82,200.324L252.82,200.324z M258.389,206.025
		c-0.196,0.032-0.362,0.048-0.499,0.048c-0.656,0-0.984-0.221-0.984-0.663c0-0.11,0.032-0.356,0.095-0.738l0.52-3.097h1.504
		l0.205-1.251h-1.497l0.328-1.969l-1.394,0.096l-0.417,1.873h-1.046l-0.212,1.251h1.032l-0.526,3.076
		c-0.105,0.62-0.158,1.037-0.158,1.251c0,0.415,0.15,0.767,0.448,1.056c0.299,0.29,0.769,0.434,1.412,0.434
		c0.191,0,0.517-0.034,0.977-0.102L258.389,206.025L258.389,206.025z M266.278,206.175c0.62-0.852,0.931-1.781,0.931-2.789
		c0-0.979-0.261-1.76-0.78-2.341s-1.212-0.872-2.078-0.872c-1.053,0-1.905,0.405-2.556,1.214c-0.652,0.809-0.978,1.767-0.978,2.874
		c0,0.684,0.127,1.273,0.379,1.767c0.253,0.495,0.62,0.856,1.101,1.084s0.979,0.342,1.495,0.342
		C264.829,207.454,265.658,207.028,266.278,206.175L266.278,206.175z M262.798,205.793c-0.273-0.274-0.41-0.7-0.41-1.279
		c0-0.683,0.142-1.369,0.424-2.057c0.283-0.688,0.75-1.033,1.402-1.033c0.929,0,1.394,0.602,1.394,1.805
		c0,0.702-0.146,1.373-0.437,2.013c-0.292,0.641-0.748,0.961-1.368,0.961C263.407,206.203,263.072,206.066,262.798,205.793
		L262.798,205.793z M272.514,197.945h-1.606l-1.559,9.331h1.605L272.514,197.945L272.514,197.945z M279.715,206.175
		c0.62-0.852,0.93-1.781,0.93-2.789c0-0.979-0.26-1.76-0.779-2.341s-1.212-0.872-2.078-0.872c-1.053,0-1.904,0.405-2.557,1.214
		s-0.977,1.767-0.977,2.874c0,0.684,0.126,1.273,0.379,1.767c0.253,0.495,0.62,0.856,1.101,1.084s0.979,0.342,1.493,0.342
		C278.266,207.454,279.096,207.028,279.715,206.175L279.715,206.175z M276.235,205.793c-0.272-0.274-0.41-0.7-0.41-1.279
		c0-0.683,0.142-1.369,0.425-2.057c0.281-0.688,0.748-1.033,1.4-1.033c0.93,0,1.396,0.602,1.396,1.805
		c0,0.702-0.146,1.373-0.438,2.013c-0.292,0.641-0.747,0.961-1.367,0.961C276.844,206.203,276.509,206.066,276.235,205.793
		L276.235,205.793z M282.592,207.238c-0.192,0.217-0.288,0.512-0.288,0.886c0,1.089,1.022,1.633,3.069,1.633
		c1.386,0,2.355-0.235,2.908-0.707c0.555-0.472,0.831-0.995,0.831-1.569c0-0.337-0.105-0.653-0.317-0.947
		c-0.213-0.294-0.506-0.508-0.883-0.642c-0.376-0.135-0.967-0.202-1.773-0.202h-0.827c-0.451,0-0.749-0.056-0.896-0.167
		c-0.146-0.112-0.219-0.266-0.219-0.462c0-0.355,0.207-0.638,0.622-0.847c0.501,0.132,0.952,0.198,1.354,0.198
		c0.947,0,1.677-0.212,2.187-0.636s0.767-0.962,0.767-1.613c0-0.748-0.356-1.299-1.067-1.655c0.132-0.364,0.319-0.587,0.562-0.669
		c0.24-0.083,0.484-0.124,0.73-0.124c0.096,0,0.267,0.012,0.513,0.035l0.015-1.19c-0.174-0.023-0.328-0.034-0.465-0.034
		c-0.503,0-0.912,0.119-1.231,0.355c-0.319,0.237-0.59,0.695-0.813,1.374c-0.232-0.068-0.52-0.102-0.86-0.102
		c-0.972,0-1.731,0.201-2.28,0.602s-0.824,0.957-0.824,1.667c0,0.575,0.262,1.051,0.786,1.429c-0.551,0.274-0.917,0.539-1.097,0.797
		c-0.18,0.257-0.271,0.557-0.271,0.899c0,0.446,0.196,0.804,0.588,1.073C283.056,206.816,282.782,207.022,282.592,207.238
		L282.592,207.238z M285.005,202.443c0-0.392,0.127-0.708,0.382-0.947c0.256-0.239,0.605-0.359,1.053-0.359
		c0.752,0,1.128,0.344,1.128,1.033c0,0.405-0.123,0.728-0.369,0.967c-0.246,0.239-0.59,0.359-1.031,0.359
		C285.392,203.496,285.005,203.145,285.005,202.443L285.005,202.443L285.005,202.443z M285.763,207.091
		c0.839,0,1.36,0.034,1.565,0.1s0.308,0.235,0.308,0.509c0,0.702-0.654,1.053-1.961,1.053c-0.675,0-1.182-0.1-1.519-0.298
		c-0.337-0.198-0.506-0.45-0.506-0.755c0-0.242,0.15-0.486,0.451-0.732C284.335,207.05,284.888,207.091,285.763,207.091
		L285.763,207.091L285.763,207.091z M294.582,197.849h-1.606l-0.28,1.668h1.606L294.582,197.849L294.582,197.849z M294.166,200.324
		h-1.607l-1.162,6.952h1.607L294.166,200.324L294.166,200.324z M300.902,204.952c-0.374,0.861-0.921,1.292-1.641,1.292
		c-0.465,0-0.824-0.16-1.077-0.479c-0.253-0.319-0.379-0.74-0.379-1.264c0-0.151,0.016-0.324,0.048-0.52h4.778
		c0.014-0.196,0.021-0.378,0.021-0.547c0-1.016-0.238-1.818-0.715-2.406c-0.476-0.588-1.179-0.882-2.109-0.882
		c-1.033,0-1.881,0.408-2.539,1.224c-0.658,0.816-0.987,1.816-0.987,3.001c0,0.929,0.261,1.675,0.783,2.235
		c0.521,0.561,1.237,0.841,2.149,0.841c1.385,0,2.397-0.711,3.035-2.133L300.902,204.952L300.902,204.952z M298.018,202.99
		c0.269-1.176,0.875-1.764,1.818-1.764c0.912,0,1.366,0.588,1.366,1.764H298.018L298.018,202.99z M304.441,205.588
		c0.483,1.226,1.516,1.838,3.098,1.838c0.988,0,1.734-0.221,2.238-0.663c0.503-0.442,0.755-0.991,0.755-1.647
		c0-0.387-0.104-0.73-0.311-1.029c-0.208-0.298-0.49-0.529-0.849-0.69c-0.357-0.162-0.905-0.352-1.644-0.571
		c-0.323-0.091-0.539-0.194-0.646-0.308c-0.107-0.114-0.161-0.257-0.161-0.43c0-0.247,0.109-0.442,0.329-0.588
		c0.218-0.146,0.484-0.219,0.799-0.219c0.702,0,1.206,0.303,1.511,0.909l1.32-0.424c-0.552-1.094-1.509-1.64-2.872-1.64
		c-0.838,0-1.488,0.224-1.948,0.673c-0.46,0.449-0.69,0.976-0.69,1.582c0,0.388,0.103,0.732,0.308,1.033
		c0.205,0.3,0.458,0.524,0.759,0.67s0.763,0.305,1.388,0.478c0.388,0.11,0.662,0.221,0.824,0.335
		c0.161,0.114,0.242,0.269,0.242,0.465c0,0.264-0.119,0.482-0.359,0.653c-0.238,0.171-0.565,0.256-0.98,0.256
		c-0.829,0-1.378-0.346-1.647-1.039L304.441,205.588L304.441,205.588z"/>
	<path d="M214.374,188.873c0-0.338,0.116-1.133,0.349-2.386c0.218-1.19,0.328-1.923,0.328-2.201c0-0.652-0.251-1.174-0.752-1.566
		c-0.501-0.392-1.186-0.588-2.051-0.588c-1.454,0-2.468,0.566-3.042,1.696l1.367,0.43c0.338-0.642,0.873-0.963,1.607-0.963
		c0.383,0,0.703,0.095,0.96,0.287c0.258,0.191,0.386,0.474,0.386,0.847c0,0.123-0.016,0.29-0.047,0.499
		c-0.256-0.018-0.479-0.027-0.67-0.027c-1.481,0-2.57,0.23-3.264,0.69c-0.696,0.461-1.043,1.081-1.043,1.86
		c0,0.565,0.195,1.04,0.585,1.425c0.389,0.385,0.894,0.578,1.514,0.578c0.515,0,0.986-0.15,1.415-0.448
		c0.428-0.298,0.756-0.708,0.984-1.227c-0.082,0.465-0.123,0.864-0.123,1.196c0,0.078,0.005,0.178,0.014,0.301h1.51
		C214.383,189.13,214.374,188.996,214.374,188.873L214.374,188.873L214.374,188.873z M212.5,187.632
		c-0.396,0.408-0.827,0.612-1.292,0.612c-0.324,0-0.579-0.088-0.766-0.263c-0.186-0.176-0.28-0.403-0.28-0.681
		c0-0.483,0.233-0.849,0.697-1.1c0.465-0.251,1.292-0.408,2.482-0.472C213.178,186.589,212.897,187.224,212.5,187.632L212.5,187.632
		z M216.934,187.588c0.483,1.226,1.515,1.838,3.096,1.838c0.989,0,1.736-0.221,2.239-0.663c0.504-0.442,0.756-0.991,0.756-1.647
		c0-0.387-0.104-0.73-0.311-1.029c-0.208-0.298-0.49-0.529-0.848-0.69c-0.358-0.162-0.906-0.352-1.644-0.571
		c-0.324-0.091-0.539-0.194-0.646-0.308c-0.107-0.114-0.161-0.257-0.161-0.43c0-0.247,0.11-0.442,0.328-0.588
		c0.219-0.146,0.486-0.219,0.8-0.219c0.702,0,1.205,0.303,1.511,0.909l1.319-0.424c-0.551-1.094-1.508-1.64-2.871-1.64
		c-0.838,0-1.488,0.224-1.948,0.673c-0.461,0.449-0.691,0.976-0.691,1.582c0,0.388,0.104,0.732,0.308,1.033
		c0.205,0.3,0.458,0.524,0.759,0.67c0.301,0.146,0.763,0.305,1.388,0.478c0.387,0.11,0.661,0.221,0.823,0.335
		c0.162,0.114,0.243,0.269,0.243,0.465c0,0.264-0.12,0.482-0.359,0.653c-0.239,0.171-0.566,0.256-0.981,0.256
		c-0.829,0-1.379-0.346-1.647-1.039L216.934,187.588L216.934,187.588z M242.92,179.945h-1.476l-2.837,7.048l-0.745-7.048h-1.661
		l-2.865,7.048l-0.622-7.048h-1.805l1.094,9.399h1.62l2.878-7.027l0.821,7.027h1.681L242.92,179.945L242.92,179.945z
		 M249.093,188.175c0.62-0.852,0.93-1.781,0.93-2.789c0-0.979-0.26-1.76-0.78-2.341c-0.519-0.581-1.212-0.872-2.078-0.872
		c-1.052,0-1.905,0.405-2.556,1.214c-0.652,0.809-0.978,1.767-0.978,2.874c0,0.684,0.127,1.273,0.38,1.767
		c0.252,0.495,0.619,0.856,1.1,1.084c0.481,0.228,0.979,0.342,1.494,0.342C247.644,189.454,248.473,189.028,249.093,188.175
		L249.093,188.175z M245.613,187.793c-0.274-0.274-0.411-0.7-0.411-1.279c0-0.683,0.142-1.369,0.424-2.057
		c0.283-0.688,0.75-1.033,1.402-1.033c0.929,0,1.394,0.602,1.394,1.805c0,0.702-0.146,1.373-0.437,2.013
		c-0.292,0.641-0.748,0.961-1.368,0.961C246.222,188.203,245.887,188.066,245.613,187.793L245.613,187.793z M254.139,186.617
		c0.127-0.775,0.286-1.332,0.475-1.672c0.189-0.339,0.451-0.609,0.786-0.81c0.335-0.2,0.691-0.3,1.07-0.3
		c0.077,0,0.191,0.004,0.342,0.013l0.198-1.709c-0.082-0.004-0.144-0.007-0.185-0.007c-1.007,0-1.809,0.695-2.406,2.085l0.314-1.893
		h-1.408l-1.162,6.952h1.531L254.139,186.617L254.139,186.617z M265.674,179.945h-1.531l-0.595,3.527
		c-0.306-0.92-0.938-1.381-1.895-1.381c-0.893,0-1.629,0.441-2.208,1.323c-0.578,0.882-0.868,1.938-0.868,3.169
		c0,0.902,0.19,1.603,0.571,2.102c0.38,0.499,0.883,0.748,1.507,0.748c0.907,0,1.641-0.531,2.201-1.593l-0.239,1.436h1.49
		L265.674,179.945L265.674,179.945z M260.144,186.692c0-0.838,0.15-1.601,0.451-2.287c0.301-0.685,0.747-1.028,1.34-1.028
		c0.387,0,0.698,0.15,0.933,0.451c0.234,0.301,0.353,0.695,0.353,1.182c0,0.789-0.176,1.515-0.527,2.178
		c-0.351,0.663-0.822,0.994-1.415,0.994C260.521,188.182,260.144,187.686,260.144,186.692L260.144,186.692L260.144,186.692z
		 M269.036,188.046c0.343,0.952,0.989,1.428,1.941,1.428c0.884,0,1.601-0.462,2.15-1.387c0.549-0.926,0.823-1.946,0.823-3.063
		c0-0.898-0.203-1.611-0.608-2.14c-0.405-0.528-0.935-0.793-1.586-0.793c-0.865,0-1.585,0.556-2.16,1.668l0.24-1.435h-1.368
		l-1.572,9.379h1.531L269.036,188.046L269.036,188.046z M269.724,187.789c-0.267-0.289-0.4-0.723-0.4-1.302
		c0-0.788,0.186-1.51,0.558-2.164c0.371-0.654,0.833-0.981,1.384-0.981c0.729,0,1.094,0.6,1.094,1.798
		c0,0.711-0.145,1.403-0.434,2.075c-0.29,0.672-0.701,1.008-1.234,1.008C270.312,188.223,269.989,188.079,269.724,187.789
		L269.724,187.789z M279.252,179.945h-1.606l-1.559,9.331h1.605L279.252,179.945L279.252,179.945z M286.637,188.873
		c0-0.338,0.117-1.133,0.349-2.386c0.22-1.19,0.328-1.923,0.328-2.201c0-0.652-0.251-1.174-0.752-1.566s-1.185-0.588-2.051-0.588
		c-1.453,0-2.467,0.566-3.042,1.696l1.368,0.43c0.337-0.642,0.872-0.963,1.605-0.963c0.383,0,0.703,0.095,0.961,0.287
		c0.257,0.191,0.386,0.474,0.386,0.847c0,0.123-0.016,0.29-0.048,0.499c-0.255-0.018-0.479-0.027-0.67-0.027
		c-1.48,0-2.568,0.23-3.264,0.69c-0.695,0.461-1.043,1.081-1.043,1.86c0,0.565,0.195,1.04,0.585,1.425
		c0.389,0.385,0.894,0.578,1.514,0.578c0.516,0,0.987-0.15,1.415-0.448c0.429-0.298,0.756-0.708,0.984-1.227
		c-0.082,0.465-0.123,0.864-0.123,1.196c0,0.078,0.005,0.178,0.014,0.301h1.511C286.646,189.13,286.637,188.996,286.637,188.873
		L286.637,188.873L286.637,188.873z M284.764,187.632c-0.396,0.408-0.827,0.612-1.292,0.612c-0.323,0-0.578-0.088-0.765-0.263
		c-0.188-0.176-0.281-0.403-0.281-0.681c0-0.483,0.232-0.849,0.697-1.1c0.466-0.251,1.293-0.408,2.481-0.472
		C285.44,186.589,285.16,187.224,284.764,187.632L284.764,187.632z M289.531,191.805c0.538,0,0.977-0.086,1.316-0.259
		c0.339-0.174,0.598-0.388,0.775-0.643s0.434-0.716,0.766-1.381l3.569-7.198h-1.341l-2.297,4.785l-1.053-4.785h-1.64l1.702,6.644
		l-0.261,0.554c-0.173,0.369-0.366,0.621-0.578,0.755c-0.212,0.135-0.479,0.202-0.803,0.202c-0.346,0-0.652-0.02-0.916-0.061
		l-0.067,1.326C289.001,191.785,289.276,191.805,289.531,191.805L289.531,191.805L289.531,191.805z"/>
	<path d="M213.811,171.275c-0.21-0.502-0.224-1.034-0.224-1.567v-2.506c0-1.023,0.112-1.946-0.825-2.604
		c-0.7-0.503-1.777-0.615-2.617-0.615c-1.61,0-3.304,0.461-3.724,2.238l2.548,0.238c0.084-0.602,0.546-0.798,1.092-0.798
		c0.672,0,0.84,0.252,0.84,0.896v0.056c-0.938,0.056-1.904,0.168-2.814,0.449c-0.994,0.308-1.876,1.064-1.876,2.198
		c0,1.429,1.162,2.155,2.492,2.155c0.98,0,1.778-0.306,2.338-1.132c0,0.336,0.028,0.672,0.098,0.992H213.811L213.811,171.275z
		 M210.9,168.071c0,0.784-0.014,1.666-1.064,1.666c-0.434,0-0.728-0.196-0.728-0.658c0-0.868,1.12-1.078,1.792-1.148V168.071
		L210.9,168.071z M215.714,169.247c0.532,1.651,2.002,2.168,3.597,2.168c1.61,0,3.696-0.559,3.696-2.532
		c0-0.771-0.35-1.401-1.008-1.821c-0.574-0.35-1.302-0.448-1.946-0.532c-0.336-0.043-0.896-0.085-1.203-0.169
		c-0.182-0.042-0.42-0.14-0.42-0.364c0-0.308,0.671-0.378,0.895-0.378c0.49,0,1.036,0.14,1.246,0.63l2.114-0.406
		c-0.476-1.343-1.89-1.86-3.234-1.86c-0.797,0-1.595,0.112-2.295,0.545c-0.672,0.42-1.106,1.063-1.106,1.875
		c0,1.905,1.778,2.199,3.275,2.409c0.252,0.028,1.204,0.099,1.204,0.463c0,0.42-0.784,0.448-1.063,0.448
		c-0.601,0-1.371-0.084-1.525-0.77L215.714,169.247L215.714,169.247z M239.303,161.673h-2.421l-1.512,5.235l-0.266,0.91l-0.28-0.952
		l-1.512-5.193h-3.093l3.093,9.602h3.01L239.303,161.673L239.303,161.673z M244.089,164.123h-2.771v7.152h2.771V164.123
		L244.089,164.123z M244.089,161.533h-2.771v1.902h2.771V161.533L244.089,161.533z M246.387,169.247
		c0.532,1.651,2.002,2.168,3.597,2.168c1.61,0,3.696-0.559,3.696-2.532c0-0.771-0.35-1.401-1.008-1.821
		c-0.574-0.35-1.302-0.448-1.946-0.532c-0.336-0.043-0.896-0.085-1.203-0.169c-0.182-0.042-0.42-0.14-0.42-0.364
		c0-0.308,0.671-0.378,0.895-0.378c0.49,0,1.036,0.14,1.246,0.63l2.114-0.406c-0.476-1.343-1.89-1.86-3.234-1.86
		c-0.797,0-1.595,0.112-2.295,0.545c-0.672,0.42-1.106,1.063-1.106,1.875c0,1.905,1.778,2.199,3.275,2.409
		c0.252,0.028,1.204,0.099,1.204,0.463c0,0.42-0.784,0.448-1.064,0.448c-0.601,0-1.371-0.084-1.525-0.77L246.387,169.247
		L246.387,169.247z M262.834,171.275v-7.152h-2.77v4.115c0,0.266-0.014,0.518-0.14,0.756c-0.126,0.252-0.392,0.406-0.673,0.406
		c-0.631,0-0.617-0.49-0.617-0.952v-4.325h-2.77v4.941c0,0.673,0.056,1.303,0.56,1.807c0.434,0.405,1.007,0.544,1.595,0.544
		c0.924,0,1.877-0.39,2.171-1.314h0.028v1.174H262.834L262.834,171.275z M272.912,171.275c-0.211-0.502-0.224-1.034-0.224-1.567
		v-2.506c0-1.023,0.112-1.946-0.826-2.604c-0.7-0.503-1.776-0.615-2.616-0.615c-1.61,0-3.305,0.461-3.725,2.238l2.548,0.238
		c0.084-0.602,0.546-0.798,1.092-0.798c0.673,0,0.841,0.252,0.841,0.896v0.056c-0.938,0.056-1.904,0.168-2.814,0.449
		c-0.994,0.308-1.876,1.064-1.876,2.198c0,1.429,1.162,2.155,2.492,2.155c0.979,0,1.778-0.306,2.338-1.132
		c0,0.336,0.028,0.672,0.098,0.992H272.912L272.912,171.275z M270.002,168.071c0,0.784-0.015,1.666-1.064,1.666
		c-0.434,0-0.728-0.196-0.728-0.658c0-0.868,1.119-1.078,1.792-1.148V168.071L270.002,168.071z M278.123,161.673h-2.771v9.602h2.771
		V161.673L278.123,161.673z M291.87,167.608c-0.042,0.799-0.392,1.597-1.302,1.597c-1.33,0-1.386-1.639-1.386-2.604
		c0-0.91,0.056-2.913,1.358-2.913c0.993,0,1.302,1.022,1.273,1.835l2.744-0.14c-0.196-2.394-1.596-3.849-4.046-3.849
		c-3.023,0-4.353,2.294-4.353,5.067c0,2.73,1.512,4.815,4.395,4.815c2.212,0,3.822-1.427,4.004-3.639L291.87,167.608L291.87,167.608
		z M300.589,163.983c-2.24,0-3.934,1.482-3.934,3.779c0,2.171,1.749,3.653,3.934,3.653c2.184,0,3.933-1.482,3.933-3.653
		C304.521,165.465,302.828,163.983,300.589,163.983L300.589,163.983z M300.589,165.731c0.953,0,0.967,1.247,0.967,1.933
		c0,1.919-0.462,2.059-0.967,2.059c-0.504,0-0.968-0.14-0.968-2.059C299.621,166.978,299.636,165.731,300.589,165.731
		L300.589,165.731z M306.83,164.123v7.152h2.771v-4.129c0-0.589,0.071-1.247,0.842-1.247c0.603,0,0.603,0.602,0.603,1.036v4.34h2.77
		v-4.41c0-0.742,0-1.553-0.447-2.141c-0.42-0.546-1.188-0.741-1.86-0.741c-0.868,0-1.695,0.334-2.031,1.146h-0.029v-1.006H306.83
		L306.83,164.123z M320.834,168.392c-0.071,0.519-0.295,1.065-0.896,1.065c-0.91,0-0.925-1.093-0.925-1.765
		c0-0.63,0-1.793,0.883-1.793c0.616,0,0.728,0.56,0.826,1.051l0.014,0.07l2.449-0.21c-0.209-1.792-1.609-2.827-3.373-2.827
		c-2.198,0-3.681,1.58-3.681,3.737c0,1.023,0.336,1.989,1.063,2.716c0.755,0.741,1.595,0.979,2.631,0.979
		c1.82,0,3.136-0.979,3.389-2.827L320.834,168.392L320.834,168.392z M330.233,168.714c-0.112,0.617-0.462,0.869-1.092,0.869
		c-0.84,0-1.12-0.561-1.078-1.332h4.787v-0.377c0-2.353-1.456-3.891-3.835-3.891c-1.022,0-2.114,0.349-2.841,1.105
		c-0.672,0.685-1.05,1.737-1.05,2.702c0,1.022,0.405,2.003,1.175,2.688c0.812,0.713,1.834,0.937,2.884,0.937
		c1.693,0,3.233-0.797,3.667-2.533L330.233,168.714L330.233,168.714z M328.05,166.853c-0.028-0.659,0.266-1.234,0.994-1.234
		c0.783,0,1.008,0.533,1.008,1.234H328.05L328.05,166.853z M338.021,166.782c0-0.28-0.014-0.504,0.168-0.728
		c0.154-0.183,0.378-0.295,0.616-0.295c0.882,0,0.868,1.414,0.868,2.002c0,0.406-0.028,0.91-0.141,1.302
		c-0.111,0.378-0.363,0.588-0.756,0.588c-0.672,0-0.756-0.658-0.756-1.162V166.782L338.021,166.782z M335.236,164.123v9.406h2.771
		v-3.022c0.434,0.63,1.105,0.908,1.848,0.908c0.994,0,1.736-0.53,2.198-1.384c0.378-0.701,0.504-1.611,0.504-2.409
		c0-1.681-0.672-3.639-2.688-3.639c-0.951,0-1.735,0.294-2.029,1.161h-0.028v-1.021H335.236L335.236,164.123z M345.259,165.941
		v2.703c0,0.77-0.015,1.457,0.532,2.045c0.546,0.587,1.259,0.824,2.001,0.726l1.638-0.209v-2.002
		c-0.268,0.07-0.533,0.126-0.798,0.126c-0.658,0-0.604-0.406-0.604-0.924v-2.465h1.401v-1.818h-1.428v-2.366l-2.407,0.084
		l-0.21,2.282h-1.162v1.818H345.259L345.259,165.941z M358.84,171.275v-7.152h-2.771v4.115c0,0.266-0.014,0.518-0.14,0.756
		c-0.126,0.252-0.394,0.406-0.673,0.406c-0.631,0-0.617-0.49-0.617-0.952v-4.325h-2.771v4.941c0,0.673,0.057,1.303,0.561,1.807
		c0.433,0.405,1.007,0.544,1.595,0.544c0.924,0,1.877-0.39,2.171-1.314h0.028v1.174H358.84L358.84,171.275z M368.917,171.275
		c-0.21-0.502-0.225-1.034-0.225-1.567v-2.506c0-1.023,0.112-1.946-0.825-2.604c-0.699-0.503-1.776-0.615-2.616-0.615
		c-1.61,0-3.305,0.461-3.725,2.238l2.548,0.238c0.084-0.602,0.546-0.798,1.093-0.798c0.672,0,0.84,0.252,0.84,0.896v0.056
		c-0.938,0.056-1.904,0.168-2.814,0.449c-0.994,0.308-1.876,1.064-1.876,2.198c0,1.429,1.162,2.155,2.492,2.155
		c0.98,0,1.778-0.306,2.338-1.132c0,0.336,0.028,0.672,0.098,0.992H368.917L368.917,171.275z M366.007,168.071
		c0,0.784-0.015,1.666-1.064,1.666c-0.434,0-0.728-0.196-0.728-0.658c0-0.868,1.12-1.078,1.792-1.148V168.071L366.007,168.071z
		 M374.128,161.673h-2.771v9.602h2.771V161.673L374.128,161.673z M379.657,164.123h-2.771v7.152h2.771V164.123L379.657,164.123z
		 M379.657,161.533h-2.771v1.902h2.771V161.533L379.657,161.533z M381.955,169.247c0.531,1.651,2.002,2.168,3.597,2.168
		c1.609,0,3.696-0.559,3.696-2.532c0-0.771-0.351-1.401-1.009-1.821c-0.573-0.35-1.302-0.448-1.945-0.532
		c-0.337-0.043-0.896-0.085-1.203-0.169c-0.183-0.042-0.42-0.14-0.42-0.364c0-0.308,0.671-0.378,0.895-0.378
		c0.49,0,1.036,0.14,1.246,0.63l2.114-0.406c-0.477-1.343-1.891-1.86-3.234-1.86c-0.797,0-1.595,0.112-2.295,0.545
		c-0.672,0.42-1.105,1.063-1.105,1.875c0,1.905,1.777,2.199,3.274,2.409c0.252,0.028,1.204,0.099,1.204,0.463
		c0,0.42-0.784,0.448-1.064,0.448c-0.601,0-1.37-0.084-1.524-0.77L381.955,169.247L381.955,169.247z M391.479,164.123v7.152h2.715
		v-4.297c0-0.533,0.057-1.023,0.715-1.023c0.603,0,0.631,0.574,0.631,1.022v4.298h2.715V167.3c0-0.575-0.028-1.303,0.757-1.303
		c0.644,0,0.588,0.518,0.588,0.98v4.298h2.715v-4.69c0-0.756,0-1.455-0.518-1.987c-0.42-0.434-1.063-0.615-1.665-0.615
		c-0.938,0-1.653,0.306-2.144,1.104c-0.434-0.77-1.133-1.104-2.015-1.104c-0.84,0-1.555,0.376-1.947,1.104h-0.027v-0.964H391.479
		L391.479,164.123z"/>
	<path d="M184.829,145.981h1.974v-2.308h-6.788v2.308h2.016v7.294h2.798V145.981L184.829,145.981z M192.693,150.714
		c-0.112,0.617-0.462,0.869-1.092,0.869c-0.84,0-1.12-0.561-1.078-1.332h4.787v-0.377c0-2.353-1.456-3.891-3.835-3.891
		c-1.022,0-2.114,0.349-2.842,1.105c-0.671,0.685-1.049,1.737-1.049,2.702c0,1.022,0.406,2.003,1.175,2.688
		c0.812,0.713,1.834,0.937,2.884,0.937c1.693,0,3.233-0.797,3.667-2.533L192.693,150.714L192.693,150.714z M190.51,148.853
		c-0.028-0.659,0.266-1.234,0.994-1.234c0.784,0,1.008,0.533,1.008,1.234H190.51L190.51,148.853z M204.316,153.275l-2.547-3.905
		l2.085-3.247h-2.309l-0.784,1.342l-0.084,0.154l-0.126,0.225l-0.154-0.253l-0.07-0.154l-0.728-1.314h-3.135l2.197,3.359
		l-2.505,3.793h2.281l1.4-2.281l1.316,2.281H204.316L204.316,153.275z M206.76,147.941v2.703c0,0.77-0.014,1.457,0.532,2.045
		c0.545,0.587,1.259,0.824,2.001,0.726l1.637-0.209v-2.002c-0.266,0.07-0.532,0.126-0.798,0.126c-0.658,0-0.602-0.406-0.602-0.924
		v-2.465h1.4v-1.818h-1.428v-2.366l-2.406,0.084l-0.21,2.282h-1.162v1.818H206.76L206.76,147.941z M226.189,153.275
		c-0.21-0.502-0.224-1.034-0.224-1.567v-2.506c0-1.023,0.112-1.946-0.825-2.604c-0.7-0.503-1.777-0.615-2.617-0.615
		c-1.61,0-3.304,0.461-3.724,2.238l2.548,0.238c0.084-0.602,0.546-0.798,1.092-0.798c0.672,0,0.84,0.252,0.84,0.896v0.056
		c-0.938,0.056-1.904,0.168-2.813,0.449c-0.994,0.308-1.876,1.064-1.876,2.198c0,1.429,1.162,2.155,2.492,2.155
		c0.98,0,1.778-0.306,2.338-1.132c0,0.336,0.028,0.672,0.098,0.992H226.189L226.189,153.275z M223.279,150.071
		c0,0.784-0.014,1.666-1.063,1.666c-0.434,0-0.729-0.196-0.729-0.658c0-0.868,1.12-1.078,1.792-1.148V150.071L223.279,150.071z
		 M228.568,146.123v7.152h2.77v-4.129c0-0.589,0.07-1.247,0.841-1.247c0.603,0,0.603,0.602,0.603,1.036v4.34h2.77v-4.41
		c0-0.742,0-1.553-0.448-2.141c-0.419-0.546-1.189-0.741-1.86-0.741c-0.869,0-1.695,0.334-2.032,1.146h-0.028v-1.006H228.568
		L228.568,146.123z M245.22,153.275v-9.602h-2.77v3.036c-0.435-0.434-1.023-0.726-1.71-0.726c-2.155,0-2.854,1.917-2.854,3.751
		c0,1.765,0.713,3.681,2.77,3.681c0.897,0,1.499-0.308,1.906-1.091h0.028v0.951H245.22L245.22,153.275z M242.45,150.281
		c0,0.35,0.028,0.602-0.168,0.91c-0.155,0.238-0.337,0.364-0.617,0.364c-0.869,0-0.911-1.12-0.911-1.75
		c0-0.392,0.056-0.938,0.14-1.33c0.084-0.434,0.294-0.756,0.785-0.756c0.224,0,0.476,0.098,0.603,0.28
		c0.182,0.224,0.168,0.56,0.168,0.84V150.281L242.45,150.281z M256.195,146.123h-2.771v7.152h2.771V146.123L256.195,146.123z
		 M256.195,143.533h-2.771v1.902h2.771V143.533L256.195,143.533z M259.439,147.941v2.703c0,0.77-0.014,1.457,0.531,2.045
		c0.546,0.587,1.259,0.824,2.001,0.726l1.638-0.209v-2.002c-0.266,0.07-0.532,0.126-0.798,0.126c-0.658,0-0.602-0.406-0.602-0.924
		v-2.465h1.4v-1.818h-1.428v-2.366l-2.406,0.084l-0.21,2.282h-1.162v1.818H259.439L259.439,147.941z M265.576,151.247
		c0.532,1.651,2.002,2.168,3.598,2.168c1.609,0,3.694-0.559,3.694-2.532c0-0.771-0.35-1.401-1.007-1.821
		c-0.574-0.35-1.302-0.448-1.945-0.532c-0.336-0.043-0.896-0.085-1.204-0.169c-0.183-0.042-0.421-0.14-0.421-0.364
		c0-0.308,0.673-0.378,0.896-0.378c0.49,0,1.036,0.14,1.246,0.63l2.113-0.406c-0.476-1.343-1.89-1.86-3.233-1.86
		c-0.798,0-1.595,0.112-2.295,0.545c-0.672,0.42-1.106,1.063-1.106,1.875c0,1.905,1.778,2.199,3.275,2.409
		c0.252,0.028,1.204,0.099,1.204,0.463c0,0.42-0.784,0.448-1.064,0.448c-0.602,0-1.37-0.084-1.524-0.77L265.576,151.247
		L265.576,151.247z M285.386,150.714c-0.112,0.617-0.462,0.869-1.092,0.869c-0.841,0-1.12-0.561-1.078-1.332h4.787v-0.377
		c0-2.353-1.456-3.891-3.835-3.891c-1.022,0-2.114,0.349-2.842,1.105c-0.672,0.685-1.05,1.737-1.05,2.702
		c0,1.022,0.406,2.003,1.176,2.688c0.812,0.713,1.833,0.937,2.884,0.937c1.693,0,3.232-0.797,3.667-2.533L285.386,150.714
		L285.386,150.714z M283.201,148.853c-0.027-0.659,0.267-1.234,0.994-1.234c0.784,0,1.008,0.533,1.008,1.234H283.201
		L283.201,148.853z M290.396,146.123v7.152h2.714v-4.297c0-0.533,0.057-1.023,0.715-1.023c0.604,0,0.631,0.574,0.631,1.022v4.298
		h2.715V149.3c0-0.575-0.028-1.303,0.757-1.303c0.645,0,0.589,0.518,0.589,0.98v4.298h2.714v-4.69c0-0.756,0-1.455-0.517-1.987
		c-0.42-0.434-1.064-0.615-1.665-0.615c-0.939,0-1.654,0.306-2.145,1.104c-0.433-0.77-1.133-1.104-2.014-1.104
		c-0.841,0-1.556,0.376-1.948,1.104h-0.027v-0.964H290.396L290.396,146.123z M308.679,150.714c-0.112,0.617-0.462,0.869-1.092,0.869
		c-0.841,0-1.12-0.561-1.078-1.332h4.787v-0.377c0-2.353-1.456-3.891-3.835-3.891c-1.022,0-2.114,0.349-2.843,1.105
		c-0.671,0.685-1.049,1.737-1.049,2.702c0,1.022,0.406,2.003,1.175,2.688c0.812,0.713,1.834,0.937,2.885,0.937
		c1.692,0,3.232-0.797,3.667-2.533L308.679,150.714L308.679,150.714z M306.494,148.853c-0.027-0.659,0.267-1.234,0.994-1.234
		c0.784,0,1.008,0.533,1.008,1.234H306.494L306.494,148.853z M316.025,147.591v-1.468h-2.364v7.152h2.771v-3.107
		c0-0.42,0-0.882,0.196-1.232c0.224-0.406,0.686-0.49,1.134-0.49c0.182,0,0.364,0.028,0.532,0.07v-2.505l-0.378-0.028
		c-1.106-0.084-1.625,0.614-1.862,1.608H316.025L316.025,147.591z M323.24,153.197l1.372,0.07c0.351,0.014,0.826-0.014,0.826,0.46
		c0,0.628-1.036,0.558-1.456,0.558c-0.462,0-0.937-0.014-1.385-0.126c-0.294-0.055-0.561-0.195-0.561-0.53
		c0-0.418,0.379-0.446,0.7-0.446L323.24,153.197L323.24,153.197z M323.339,151.108c-0.251,0-0.77,0.028-0.77-0.337
		c0-0.352,0.462-0.352,0.699-0.352l0.294,0.014l0.322,0.014c1.441,0,3.275-0.391,3.275-2.183c0-0.631-0.308-1.218-0.798-1.61
		c0.141-0.254,0.532-0.268,0.784-0.268l0.686,0.028l0.07-1.921l-0.182-0.014l-0.812-0.042c-1.105,0-1.624,0.645-1.777,1.682
		c-0.435-0.108-0.883-0.136-1.33-0.136c-1.456,0-3.5,0.391-3.5,2.239c0,0.827,0.42,1.344,1.162,1.652
		c-0.7,0.266-1.372,0.756-1.372,1.585c0,0.504,0.266,0.841,0.657,1.135c-0.63,0.224-1.035,0.701-1.035,1.384
		c0,1.677,2.688,1.761,3.878,1.761c0.84,0,1.945-0.028,2.716-0.308c0.91-0.307,1.596-0.95,1.596-1.969
		c0-0.672-0.279-1.373-0.826-1.779c-0.504-0.379-1.162-0.463-1.777-0.491L323.339,151.108L323.339,151.108z M323.814,149.119
		c-0.574,0-0.882-0.294-0.882-0.869c0-0.519,0.294-0.883,0.826-0.883c0.574,0,0.854,0.35,0.854,0.897
		C324.612,148.755,324.333,149.119,323.814,149.119L323.814,149.119z M334.515,150.714c-0.112,0.617-0.462,0.869-1.092,0.869
		c-0.839,0-1.119-0.561-1.077-1.332h4.786v-0.377c0-2.353-1.455-3.891-3.835-3.891c-1.021,0-2.113,0.349-2.842,1.105
		c-0.672,0.685-1.05,1.737-1.05,2.702c0,1.022,0.406,2.003,1.177,2.688c0.812,0.713,1.834,0.937,2.883,0.937
		c1.693,0,3.233-0.797,3.667-2.533L334.515,150.714L334.515,150.714z M332.332,148.853c-0.028-0.659,0.266-1.234,0.992-1.234
		c0.784,0,1.009,0.533,1.009,1.234H332.332L332.332,148.853z M339.506,146.123v7.152h2.77v-4.129c0-0.589,0.07-1.247,0.841-1.247
		c0.604,0,0.604,0.602,0.604,1.036v4.34h2.77v-4.41c0-0.742,0-1.553-0.447-2.141c-0.419-0.546-1.189-0.741-1.861-0.741
		c-0.868,0-1.695,0.334-2.031,1.146h-0.028v-1.006H339.506L339.506,146.123z M353.508,150.392c-0.07,0.519-0.294,1.065-0.896,1.065
		c-0.91,0-0.924-1.093-0.924-1.765c0-0.63,0-1.793,0.882-1.793c0.616,0,0.729,0.56,0.826,1.051l0.014,0.07l2.45-0.21
		c-0.21-1.792-1.609-2.827-3.374-2.827c-2.196,0-3.68,1.58-3.68,3.737c0,1.023,0.336,1.989,1.062,2.716
		c0.757,0.741,1.596,0.979,2.632,0.979c1.819,0,3.136-0.979,3.388-2.827L353.508,150.392L353.508,150.392z M362.907,150.714
		c-0.111,0.617-0.462,0.869-1.092,0.869c-0.839,0-1.119-0.561-1.077-1.332h4.786v-0.377c0-2.353-1.455-3.891-3.835-3.891
		c-1.021,0-2.113,0.349-2.841,1.105c-0.672,0.685-1.05,1.737-1.05,2.702c0,1.022,0.405,2.003,1.176,2.688
		c0.812,0.713,1.834,0.937,2.883,0.937c1.694,0,3.234-0.797,3.667-2.533L362.907,150.714L362.907,150.714z M360.725,148.853
		c-0.028-0.659,0.266-1.234,0.993-1.234c0.784,0,1.008,0.533,1.008,1.234H360.725L360.725,148.853z"/>
	<path d="M130.879,438.953c-0.28,0.28-0.7,0.393-1.078,0.393c-0.672,0-1.218-0.351-1.218-1.064c0-0.519,0.224-0.869,0.7-1.079
		L130.879,438.953L130.879,438.953z M130.445,434.863c-0.294-0.238-0.7-0.602-0.7-0.994c0-0.392,0.308-0.616,0.672-0.616
		c0.42,0,0.728,0.28,0.728,0.715C131.146,434.401,130.837,434.737,130.445,434.863L130.445,434.863z M131.565,436.249
		c1.078-0.362,1.818-1.203,1.818-2.365c0-1.707-1.538-2.351-3.022-2.351c-1.54,0-3.164,0.615-3.164,2.406
		c0,0.743,0.35,1.317,0.784,1.877c-1.26,0.448-2.226,1.19-2.226,2.646c0,2.128,2.016,2.952,3.864,2.952
		c0.868,0,2.086-0.21,2.744-0.811c0.714,0.561,1.356,0.771,2.266,0.771c0.378,0,0.77-0.056,1.134-0.153v-2.074l-0.63,0.042
		c-0.364,0-0.658-0.028-0.952-0.267c0.84-0.77,1.33-1.861,1.582-2.968l-2.49-0.294c-0.126,0.574-0.294,1.204-0.728,1.624
		L131.565,436.249L131.565,436.249z"/>
	<path d="M129.268,377.672h-3.33l0.756,6.368h1.777L129.268,377.672L129.268,377.672z M128.945,384.715h-2.672v2.56h2.672V384.715
		L128.945,384.715z"/>
	<path d="M125.616,276.35c0.504,2.086,1.987,3.065,4.087,3.065c1.848,0,3.807-0.741,3.807-2.897c0-1.191-0.616-1.918-1.721-2.254
		c0.923-0.294,1.427-1.119,1.427-2.072c0-0.869-0.49-1.68-1.218-2.114c-0.629-0.363-1.511-0.545-2.225-0.545
		c-1.848,0-3.387,0.937-3.807,2.799l2.323,0.378c0.098-0.644,0.532-1.107,1.19-1.107c0.546,0,1.022,0.322,1.022,0.897
		c0,0.322-0.168,0.617-0.462,0.757c-0.238,0.112-0.686,0.098-0.952,0.098h-0.798v2.014h0.98c0.308,0,0.742-0.028,0.994,0.14
		c0.266,0.182,0.462,0.505,0.462,0.827c0,0.687-0.574,1.009-1.19,1.009c-0.812,0-1.316-0.547-1.414-1.317L125.616,276.35
		L125.616,276.35z"/>
	<path d="M133.271,150.925h-3.737l0.224-0.14l2.226-1.667c0.755-0.672,1.231-1.442,1.231-2.479c0-2.071-1.623-3.106-3.541-3.106
		c-2.071,0-3.555,1.287-3.821,3.345l2.421,0.476c0.042-0.743,0.294-1.667,1.19-1.667c0.588,0,0.938,0.448,0.938,1.008
		c0,0.841-0.7,1.429-1.288,1.933l-3.261,2.451v2.196h7.306L133.271,150.925L133.271,150.925z M138.717,150.715h-2.673v2.56h2.673
		V150.715L138.717,150.715z M148.903,150.925h-3.737l0.224-0.14l2.226-1.667c0.755-0.672,1.231-1.442,1.231-2.479
		c0-2.071-1.623-3.106-3.541-3.106c-2.071,0-3.555,1.287-3.821,3.345l2.421,0.476c0.042-0.743,0.294-1.667,1.19-1.667
		c0.588,0,0.938,0.448,0.938,1.008c0,0.841-0.7,1.429-1.288,1.933l-3.261,2.451v2.196h7.306L148.903,150.925L148.903,150.925z"/>
	<path d="M486.021,431.672h-6.9l-0.211,2.406h4.451c-1.763,1.961-2.953,4.551-3.037,7.196h3.178l-0.028-0.572
		c0-2.451,1.008-5.321,2.548-7.225V431.672L486.021,431.672z M491.793,431.533c-2.856,0-3.821,2.589-3.821,5.011
		c0,2.382,1.077,4.871,3.821,4.871c2.743,0,3.82-2.489,3.82-4.871C495.613,434.122,494.648,431.533,491.793,431.533L491.793,431.533
		z M491.793,433.546c0.294,0,1.051-0.153,1.051,2.997c0,2.802-0.688,2.844-1.051,2.844c-0.364,0-1.052-0.042-1.052-2.844
		C490.741,433.393,491.498,433.546,491.793,433.546L491.793,433.546z"/>
	<path d="M485.741,380.388c-0.224-1.834-1.638-2.855-3.443-2.855c-2.911,0-3.976,2.659-3.976,5.179c0,2.508,1.232,4.703,3.989,4.703
		c1.932,0,3.682-1.217,3.682-3.289c0-1.735-1.161-2.98-2.926-2.98c-0.77,0-1.498,0.21-1.932,0.881
		c0.014-0.797,0.098-2.493,1.204-2.493c0.714,0,0.896,0.547,0.952,1.149L485.741,380.388L485.741,380.388z M482.256,385.471
		c-0.672,0-1.092-0.505-1.092-1.149c0-0.63,0.447-1.163,1.105-1.163c0.645,0,1.022,0.575,1.022,1.177
		C483.292,384.938,482.886,385.471,482.256,385.471L482.256,385.471z M495.502,384.925h-3.737l0.224-0.141l2.227-1.667
		c0.755-0.672,1.23-1.441,1.23-2.479c0-2.071-1.623-3.106-3.541-3.106c-2.07,0-3.555,1.287-3.82,3.345l2.421,0.477
		c0.042-0.743,0.294-1.667,1.189-1.667c0.588,0,0.938,0.448,0.938,1.008c0,0.841-0.7,1.429-1.288,1.933l-3.261,2.451v2.196h7.306
		L495.502,384.925L495.502,384.925z"/>
	<path d="M485.228,272.037l0.252-2.364h-6.411l-0.42,5.515l2.212,0.308c0.238-0.392,0.658-0.602,1.12-0.602
		c0.699,0,1.203,0.462,1.203,1.176c0,0.673-0.49,1.149-1.147,1.149c-0.672,0-1.245-0.364-1.372-1.05l-2.477,0.308
		c0.335,1.959,2.029,2.938,3.919,2.938c2.029,0,3.835-1.231,3.835-3.401c0-0.854-0.294-1.68-0.91-2.282
		c-0.56-0.532-1.428-0.869-2.212-0.869c-0.615,0-1.217,0.182-1.734,0.533l0.126-1.359H485.228L485.228,272.037z M495.376,272.388
		c-0.225-1.834-1.639-2.855-3.444-2.855c-2.911,0-3.974,2.659-3.974,5.179c0,2.507,1.23,4.703,3.987,4.703
		c1.933,0,3.683-1.217,3.683-3.289c0-1.736-1.162-2.981-2.927-2.981c-0.77,0-1.498,0.21-1.932,0.881
		c0.014-0.797,0.098-2.493,1.204-2.493c0.714,0,0.896,0.547,0.952,1.149L495.376,272.388L495.376,272.388z M491.89,277.471
		c-0.672,0-1.092-0.505-1.092-1.149c0-0.631,0.447-1.163,1.105-1.163c0.645,0,1.022,0.575,1.022,1.177
		S492.52,277.471,491.89,277.471L491.89,277.471z"/>
	<path d="M477.991,168.35c0.503,2.086,1.987,3.065,4.087,3.065c1.848,0,3.808-0.741,3.808-2.897c0-1.191-0.616-1.918-1.722-2.254
		c0.924-0.294,1.428-1.119,1.428-2.072c0-0.869-0.49-1.68-1.219-2.114c-0.63-0.363-1.512-0.545-2.225-0.545
		c-1.848,0-3.388,0.937-3.808,2.799l2.323,0.378c0.099-0.644,0.532-1.107,1.19-1.107c0.546,0,1.021,0.322,1.021,0.897
		c0,0.322-0.168,0.617-0.462,0.757c-0.237,0.112-0.686,0.098-0.951,0.098h-0.799v2.014h0.98c0.308,0,0.742-0.028,0.993,0.14
		c0.266,0.182,0.462,0.505,0.462,0.827c0,0.687-0.574,1.009-1.189,1.009c-0.812,0-1.315-0.547-1.414-1.317L477.991,168.35
		L477.991,168.35z M495.754,169.161v-2.07h-1.358v-5.558h-2.952l-3.611,5.558v2.07h3.92v2.114h2.644v-2.114H495.754L495.754,169.161
		z M491.752,167.091h-1.82l1.82-2.885V167.091L491.752,167.091z"/>
</g>
</svg>
