<?xml version="1.0" encoding="iso-8859-1"?>
<!-- Generator: Adobe Illustrator 16.0.0, SVG Export Plug-In . SVG Version: 6.00 Build 0)  -->
<!DOCTYPE svg PUBLIC "-//W3C//DTD SVG 1.1//EN" "http://www.w3.org/Graphics/SVG/1.1/DTD/svg11.dtd">
<svg version="1.1" id="Layer_1" xmlns="http://www.w3.org/2000/svg" xmlns:xlink="http://www.w3.org/1999/xlink" x="0px" y="0px"
	 width="524.409px" height="708.662px" viewBox="0 0 524.409 708.662" style="enable-background:new 0 0 524.409 708.662;"
	 xml:space="preserve">
<g>
	<path d="M59.43,645.05c-0.16-0.5-0.2-1-0.2-1.521v-4.739c0-1.221,0.1-2.34-0.94-3.181c-0.82-0.68-2.18-0.92-3.22-0.92
		c-2.14,0-4.54,0.721-4.84,3.181l2.78,0.26c0-1,0.82-1.48,1.76-1.48c0.44,0,0.94,0.141,1.2,0.48c0.3,0.38,0.26,0.899,0.26,1.34v0.24
		c-1.24,0.12-2.86,0.2-4.02,0.64c-1.34,0.5-2.28,1.521-2.28,3.021c0,1.92,1.4,2.88,3.2,2.88c1.52,0,2.4-0.58,3.24-1.78
		c-0.02,0.521,0.02,1.061,0.14,1.58H59.43L59.43,645.05z M56.23,640.59c0,0.72,0.02,1.32-0.4,1.96c-0.34,0.52-0.88,0.84-1.48,0.84
		c-0.82,0-1.3-0.54-1.3-1.34c0-1.48,2.06-1.74,3.18-1.86V640.59L56.23,640.59z M96.01,639.35c0-0.6,0-1.22,0.3-1.76
		c0.26-0.5,0.74-0.82,1.32-0.82c1.48,0,1.56,2.101,1.56,3.141s-0.06,3.26-1.58,3.26c-0.52,0-1.04-0.32-1.32-0.76
		c-0.34-0.561-0.28-1.42-0.28-2.061V639.35L96.01,639.35z M93.07,634.89v13.58h2.94v-4.54h0.04c0.42,0.9,1.34,1.32,2.34,1.32
		c2.96,0,3.88-2.76,3.88-5.26c0-1.24-0.12-2.461-0.76-3.54c-0.68-1.16-1.64-1.761-3-1.761c-1.3,0-2.1,0.58-2.64,1.7h-0.04v-1.5
		H93.07L93.07,634.89z M114.544,638.59c0-0.98,0.06-2-0.56-2.8c-0.6-0.78-1.6-1.101-2.54-1.101c-1.1,0-2.26,0.58-2.64,1.601h-0.04
		v-4.96h-2.94v13.72h2.94v-5.48c0-0.6,0-1.239,0.26-1.779c0.24-0.5,0.86-0.76,1.4-0.76c1.28,0,1.18,1.659,1.18,2.539v5.48h2.94
		V638.59L114.544,638.59z M121.518,634.89h-2.94v10.16h2.94V634.89L121.518,634.89z M121.518,631.13h-2.94v2.84h2.94V631.13
		L121.518,631.13z M125.601,645.05h2.94v-13.72h-2.94V645.05L125.601,645.05z M136.935,634.69c-3.1,0-4.82,2.301-4.82,5.261
		c0,2.939,1.7,5.3,4.82,5.3c3,0,4.9-2.3,4.9-5.2C141.835,637.05,140.115,634.69,136.935,634.69L136.935,634.69z M136.955,636.63
		c0.68,0,1.16,0.26,1.4,0.92c0.28,0.76,0.32,1.72,0.32,2.52c0,1.221-0.08,3.221-1.74,3.221c-1.68,0-1.66-2.48-1.66-3.641
		C135.275,638.491,135.375,636.63,136.955,636.63L136.955,636.63z M174.155,638.81v2.2h20v-2.2H174.155L174.155,638.81z
		 M230.035,639.35c0-0.6,0-1.22,0.3-1.76c0.26-0.5,0.74-0.82,1.32-0.82c1.48,0,1.56,2.101,1.56,3.141s-0.06,3.26-1.58,3.26
		c-0.52,0-1.04-0.32-1.32-0.76c-0.34-0.561-0.28-1.42-0.28-2.061V639.35L230.035,639.35z M227.095,634.89v13.58h2.94v-4.54h0.04
		c0.42,0.9,1.34,1.32,2.34,1.32c2.96,0,3.88-2.76,3.88-5.26c0-1.24-0.12-2.461-0.76-3.54c-0.68-1.16-1.64-1.761-3-1.761
		c-1.3,0-2.1,0.58-2.64,1.7h-0.04v-1.5H227.095L227.095,634.89z M247.763,637.35c-0.7-1.899-2-2.66-4-2.66
		c-2.16,0-4.34,0.9-4.34,3.4c0,1.28,0.8,2.32,2,2.74c0.64,0.22,2.32,0.52,3.02,0.6c0.54,0.061,1.141,0.18,1.141,0.86
		c0,0.76-1.221,0.96-1.78,0.96c-0.94,0-2.04-0.32-2.24-1.36l-2.54,0.36c0.54,2.28,2.521,3,4.641,3c1.119,0,2.239-0.2,3.16-0.84
		c0.859-0.62,1.359-1.561,1.359-2.62c0-4.58-6.1-2.42-6.1-4.32c0-0.74,0.92-0.9,1.52-0.9c0.96,0,1.721,0.4,1.98,1.36L247.763,637.35
		L247.763,637.35z M259.701,634.89h-2.2l-1.86,6.04l-1.939-6.04h-3.181l3.7,10.16c-0.26,0.96-0.64,1.26-1.62,1.26l-1.479-0.14v2.3
		l1.439,0.12c2.88,0,3.28-1.88,4.04-4.18L259.701,634.89L259.701,634.89z M271.081,638.59c-0.2-2.38-2.08-3.9-4.44-3.9
		c-3.2,0-5.08,2.261-5.08,5.38c0,3,1.82,5.181,4.9,5.181c2.479,0,4.38-1.5,4.62-4.021l-2.801-0.16
		c-0.1,0.94-0.619,1.761-1.659,1.761c-1.681,0-1.7-1.761-1.7-3c0-1.3,0.2-2.9,1.82-2.9c1.06,0,1.539,0.9,1.539,1.82L271.081,638.59
		L271.081,638.59z M283.004,638.59c0-0.98,0.06-2-0.561-2.8c-0.6-0.78-1.6-1.101-2.54-1.101c-1.1,0-2.26,0.58-2.64,1.601h-0.04
		v-4.96h-2.939v13.72h2.939v-5.48c0-0.6,0-1.239,0.26-1.779c0.24-0.5,0.86-0.76,1.4-0.76c1.28,0,1.18,1.659,1.18,2.539v5.48h2.94
		V638.59L283.004,638.59z M290.899,634.69c-3.1,0-4.819,2.301-4.819,5.261c0,2.939,1.7,5.3,4.819,5.3c3,0,4.9-2.3,4.9-5.2
		C295.8,637.05,294.08,634.69,290.899,634.69L290.899,634.69z M290.92,636.63c0.68,0,1.16,0.26,1.399,0.92
		c0.28,0.76,0.32,1.72,0.32,2.52c0,1.221-0.08,3.221-1.74,3.221c-1.68,0-1.66-2.48-1.66-3.641
		C289.239,638.491,289.34,636.63,290.92,636.63L290.92,636.63z M328.12,638.81v2.2h20v-2.2H328.12L328.12,638.81z M381,645.05h2.939
		v-13.72H381V645.05L381,645.05z M397.044,645.05c-0.16-0.5-0.2-1-0.2-1.521v-4.739c0-1.221,0.1-2.34-0.94-3.181
		c-0.819-0.68-2.18-0.92-3.22-0.92c-2.14,0-4.54,0.721-4.84,3.181l2.78,0.26c0-1,0.819-1.48,1.76-1.48c0.439,0,0.939,0.141,1.2,0.48
		c0.3,0.38,0.26,0.899,0.26,1.34v0.24c-1.24,0.12-2.86,0.2-4.021,0.64c-1.34,0.5-2.279,1.521-2.279,3.021
		c0,1.92,1.399,2.88,3.2,2.88c1.52,0,2.399-0.58,3.239-1.78c-0.02,0.521,0.021,1.061,0.141,1.58H397.044L397.044,645.05z
		 M393.844,640.59c0,0.72,0.021,1.32-0.4,1.96c-0.34,0.52-0.88,0.84-1.479,0.84c-0.82,0-1.3-0.54-1.3-1.34
		c0-1.48,2.06-1.74,3.18-1.86V640.59L393.844,640.59z M400.754,634.89v10.16h2.939v-5.46c0-0.64,0.04-1.22,0.341-1.8
		c0.239-0.46,0.72-0.76,1.239-0.76c1.48,0,1.341,1.52,1.341,2.56v5.46h2.939v-6.28c0-0.92,0-2.2-0.56-2.96
		c-0.601-0.819-1.54-1.12-2.5-1.12c-1.48,0-2.32,0.62-2.921,1.92h-0.039v-1.72H400.754L400.754,634.89z M417.919,636.31
		c0.92,0,1.76,0.48,1.76,1.5c0,1.04-0.8,1.561-1.76,1.561c-0.98,0-1.62-0.54-1.62-1.54
		C416.299,636.871,416.979,636.31,417.919,636.31L417.919,636.31z M419.839,645.15c0.42,0.04,1.08,0.16,1.08,0.7
		c0,1.04-2.04,0.98-2.76,0.98c-0.641,0-1.561-0.021-2.2-0.2c-0.42-0.12-0.74-0.34-0.74-0.82c0-0.399,0.28-0.68,0.64-0.819l1.58,0.06
		L419.839,645.15L419.839,645.15z M418.099,640.991c1.94,0,4.521-0.7,4.521-3.101c0-0.859-0.24-1.36-0.801-1.979
		c0.08-0.62,0.62-0.881,1.181-0.881c0.26,0,0.52,0.061,0.779,0.101v-1.9l-0.819-0.08c-1.521,0-2.101,0.44-2.3,1.98
		c-0.881-0.3-1.78-0.44-2.7-0.44c-1.98,0-4.66,0.721-4.66,3.181c0,1.22,0.7,2.06,1.8,2.479c-1.02,0.42-2.04,1-2.04,2.26
		c0,0.9,0.521,1.44,1.3,1.82c-0.92,0.2-1.76,0.8-1.76,1.84c0,2.3,3.62,2.36,5.24,2.36c1.2,0,2.64-0.08,3.74-0.54
		c1.159-0.48,2.14-1.4,2.14-2.76c0-2.221-2-2.601-3.78-2.7l-1.279-0.061c-0.58-0.02-1.66-0.06-2.181-0.199
		c-0.38-0.12-0.58-0.36-0.58-0.78c0-0.34,0.221-0.58,0.5-0.74L418.099,640.991L418.099,640.991z M435.417,645.05v-10.16h-2.94v5.46
		c0,0.521,0.04,1.101-0.16,1.561c-0.26,0.6-0.819,0.979-1.479,0.979c-1.04,0-1.12-0.78-1.12-1.6v-6.4h-2.94v6.4
		c0,0.979-0.06,1.939,0.5,2.819c0.58,0.92,1.46,1.141,2.48,1.141c1.38,0,2.42-0.66,2.9-1.94h0.039v1.74H435.417L435.417,645.05z
		 M448.48,645.05c-0.16-0.5-0.2-1-0.2-1.521v-4.739c0-1.221,0.101-2.34-0.939-3.181c-0.82-0.68-2.18-0.92-3.22-0.92
		c-2.141,0-4.54,0.721-4.841,3.181l2.78,0.26c0-1,0.82-1.48,1.76-1.48c0.44,0,0.94,0.141,1.2,0.48c0.3,0.38,0.26,0.899,0.26,1.34
		v0.24c-1.239,0.12-2.859,0.2-4.02,0.64c-1.34,0.5-2.28,1.521-2.28,3.021c0,1.92,1.4,2.88,3.2,2.88c1.521,0,2.4-0.58,3.24-1.78
		c-0.021,0.521,0.02,1.061,0.14,1.58H448.48L448.48,645.05z M445.28,640.59c0,0.72,0.021,1.32-0.399,1.96
		c-0.34,0.52-0.88,0.84-1.48,0.84c-0.819,0-1.3-0.54-1.3-1.34c0-1.48,2.061-1.74,3.18-1.86V640.59L445.28,640.59z M456.604,636.31
		c0.92,0,1.76,0.48,1.76,1.5c0,1.04-0.8,1.561-1.76,1.561c-0.979,0-1.62-0.54-1.62-1.54
		C454.984,636.871,455.665,636.31,456.604,636.31L456.604,636.31z M458.524,645.15c0.42,0.04,1.08,0.16,1.08,0.7
		c0,1.04-2.04,0.98-2.76,0.98c-0.64,0-1.56-0.021-2.2-0.2c-0.42-0.12-0.739-0.34-0.739-0.82c0-0.399,0.279-0.68,0.64-0.819
		l1.58,0.06L458.524,645.15L458.524,645.15z M456.785,640.991c1.939,0,4.52-0.7,4.52-3.101c0-0.859-0.24-1.36-0.8-1.979
		c0.08-0.62,0.62-0.881,1.18-0.881c0.26,0,0.521,0.061,0.78,0.101v-1.9l-0.82-0.08c-1.52,0-2.1,0.44-2.3,1.98
		c-0.88-0.3-1.78-0.44-2.7-0.44c-1.979,0-4.66,0.721-4.66,3.181c0,1.22,0.7,2.06,1.801,2.479c-1.021,0.42-2.04,1-2.04,2.26
		c0,0.9,0.52,1.44,1.3,1.82c-0.92,0.2-1.76,0.8-1.76,1.84c0,2.3,3.619,2.36,5.239,2.36c1.2,0,2.641-0.08,3.74-0.54
		c1.16-0.48,2.14-1.4,2.14-2.76c0-2.221-2-2.601-3.779-2.7l-1.28-0.061c-0.58-0.02-1.66-0.06-2.18-0.199
		c-0.38-0.12-0.58-0.36-0.58-0.78c0-0.34,0.22-0.58,0.5-0.74L456.785,640.991L456.785,640.991z M473.927,640.47
		c0.02-1.38-0.2-2.82-1.04-3.979c-0.84-1.16-2.3-1.801-3.72-1.801c-3.16,0-4.94,2.42-4.94,5.42c0,3.021,1.98,5.141,5.021,5.141
		c3.439,0,4.62-3,4.62-3.5l-2.721-0.2c0,0.94-0.899,1.6-1.8,1.6c-1.28,0-1.96-0.979-1.96-2.18l0.021-0.5H473.927L473.927,640.47z
		 M467.387,638.73c0.1-1.16,0.6-2.12,1.9-2.12c1.279,0,1.64,1.021,1.699,2.12H467.387L467.387,638.73z"/>
	<path d="M50.51,64.89v10.16h2.94v-3.88c0-1.8,0.28-3.62,2.52-3.5v-2.94l-0.5-0.04c-1.28-0.1-1.88,1.02-2.18,2.1h-0.04v-1.9H50.51
		L50.51,64.89z M67.686,70.47c0.02-1.38-0.2-2.82-1.04-3.98c-0.84-1.16-2.3-1.8-3.72-1.8c-3.16,0-4.94,2.42-4.94,5.42
		c0,3.02,1.98,5.14,5.02,5.14c3.44,0,4.62-3,4.62-3.5l-2.72-0.2c0,0.94-0.9,1.6-1.8,1.6c-1.28,0-1.96-0.98-1.96-2.18l0.02-0.5
		H67.686L67.686,70.47z M61.146,68.73c0.1-1.16,0.6-2.12,1.9-2.12c1.28,0,1.64,1.02,1.7,2.12H61.146L61.146,68.73z M79.386,75.05
		c-0.16-0.5-0.2-1-0.2-1.52v-4.74c0-1.22,0.1-2.34-0.939-3.18c-0.82-0.68-2.18-0.92-3.22-0.92c-2.14,0-4.54,0.72-4.84,3.18
		l2.78,0.26c0-1,0.82-1.48,1.76-1.48c0.44,0,0.94,0.14,1.2,0.48c0.3,0.38,0.26,0.9,0.26,1.34v0.24c-1.24,0.12-2.86,0.2-4.02,0.64
		c-1.34,0.5-2.28,1.52-2.28,3.02c0,1.92,1.4,2.88,3.2,2.88c1.52,0,2.4-0.58,3.24-1.78c-0.02,0.52,0.02,1.06,0.14,1.58H79.386
		L79.386,75.05z M76.186,70.59c0,0.72,0.02,1.32-0.4,1.96c-0.34,0.52-0.88,0.84-1.48,0.84c-0.82,0-1.3-0.54-1.3-1.34
		c0-1.48,2.06-1.74,3.18-1.86V70.59L76.186,70.59z M81.717,63.621l2.227-1.189v4.514h-2.426v1.444h6.47v-1.444h-2.215v-6.553h-1.352
		c-0.594,0.885-1.702,1.293-2.704,1.597V63.621L81.717,63.621z M98.465,75.05V61.33h-2.94v4.64c-0.64-0.94-1.4-1.28-2.54-1.28
		c-2.96,0-3.72,2.98-3.72,5.4c0,2.36,0.8,5.16,3.66,5.16c1.3,0,2.14-0.7,2.7-1.78h0.04v1.58H98.465L98.465,75.05z M95.525,70.81
		c0,0.5-0.02,1.04-0.26,1.5c-0.24,0.46-0.74,0.82-1.28,0.82c-1.46,0-1.62-1.86-1.62-2.96c0-1.22,0.06-3.42,1.74-3.42
		c1.34,0,1.42,1.68,1.42,2.66V70.81L95.525,70.81z M152.762,69.33c0-1.08,0.2-2.62,1.62-2.62c1.62,0,1.62,2.12,1.62,3.26
		c0,1.1,0,3.22-1.66,3.22c-0.54,0-0.96-0.26-1.24-0.7c-0.32-0.5-0.34-1.14-0.34-1.7V69.33L152.762,69.33z M149.782,75.05h1.6
		c0.18-0.54,0.3-1.12,0.66-1.56c0.74,1.22,1.44,1.76,2.9,1.76c3.06,0,4.12-2.62,4.12-5.28c0-2.4-0.88-5.28-3.78-5.28
		c-1.14,0-1.98,0.48-2.48,1.48h-0.08v-4.84h-2.94V75.05L149.782,75.05z M170.662,70.47c0.02-1.38-0.2-2.82-1.04-3.98
		c-0.84-1.16-2.3-1.8-3.72-1.8c-3.16,0-4.94,2.42-4.94,5.42c0,3.02,1.98,5.14,5.02,5.14c3.44,0,4.62-3,4.62-3.5l-2.72-0.2
		c0,0.94-0.9,1.6-1.8,1.6c-1.28,0-1.96-0.98-1.96-2.18l0.02-0.5H170.662L170.662,70.47z M164.122,68.73c0.1-1.16,0.6-2.12,1.9-2.12
		c1.28,0,1.64,1.02,1.7,2.12H164.122L164.122,68.73z M174.021,67.21v4.48c0,1,0,2.22,0.82,2.9c0.66,0.54,1.78,0.66,2.62,0.66
		c0.54,0,1.08-0.1,1.64-0.18l0.2-0.04v-2.22l-0.92,0.04c-1.42,0.06-1.42-0.42-1.42-1.6v-4.04h2.18v-2.34h-2.18v-3.18l-2.56,0.2
		l-0.26,2.98h-1.78v2.34H174.021L174.021,67.21z M187.46,66.793h-3.834l0.256-0.151c0.781-0.479,1.574-0.968,2.262-1.563
		c0.745-0.642,1.2-1.306,1.2-2.321c0-0.758-0.327-1.411-0.921-1.877c-0.594-0.478-1.223-0.605-1.981-0.605
		c-1.749,0-2.787,0.943-3.125,2.634l1.656,0.373c0.081-0.816,0.454-1.54,1.376-1.54c0.606,0,1.084,0.432,1.084,1.05
		c0,0.782-0.606,1.306-1.143,1.785l-2.378,1.819l-0.595,0.443v1.549h6.003L187.46,66.793L187.46,66.793z M203.1,64.89h-2.32
		l-1.7,6.24h-0.04l-1.46-6.24h-2.7l-1.54,6.22h-0.04l-1.62-6.22h-3.14l3.14,10.16h2.52l1.58-6.52h0.04l1.58,6.52h2.64L203.1,64.89
		L203.1,64.89z M214.04,70.47c0.02-1.38-0.2-2.82-1.04-3.98c-0.84-1.16-2.3-1.8-3.72-1.8c-3.16,0-4.94,2.42-4.94,5.42
		c0,3.02,1.98,5.14,5.02,5.14c3.44,0,4.62-3,4.62-3.5l-2.72-0.2c0,0.94-0.9,1.6-1.8,1.6c-1.28,0-1.96-0.98-1.96-2.18l0.02-0.5
		H214.04L214.04,70.47z M207.5,68.73c0.1-1.16,0.6-2.12,1.9-2.12c1.28,0,1.64,1.02,1.7,2.12H207.5L207.5,68.73z M225.84,70.47
		c0.02-1.38-0.2-2.82-1.04-3.98s-2.3-1.8-3.72-1.8c-3.16,0-4.94,2.42-4.94,5.42c0,3.02,1.98,5.14,5.02,5.14c3.44,0,4.62-3,4.62-3.5
		l-2.72-0.2c0,0.94-0.9,1.6-1.8,1.6c-1.28,0-1.96-0.98-1.96-2.18l0.02-0.5H225.84L225.84,70.47z M219.3,68.73
		c0.1-1.16,0.6-2.12,1.9-2.12c1.28,0,1.64,1.02,1.7,2.12H219.3L219.3,68.73z M228.44,64.89v10.16h2.94v-5.46
		c0-0.64,0.04-1.22,0.34-1.8c0.24-0.46,0.72-0.76,1.24-0.76c1.48,0,1.34,1.52,1.34,2.56v5.46h2.94v-6.28c0-0.92,0-2.2-0.56-2.96
		c-0.6-0.82-1.54-1.12-2.5-1.12c-1.48,0-2.32,0.62-2.92,1.92h-0.04v-1.72H228.44L228.44,64.89z M289.196,67.21v4.48
		c0,1,0,2.22,0.82,2.9c0.66,0.54,1.78,0.66,2.62,0.66c0.54,0,1.08-0.1,1.64-0.18l0.2-0.04v-2.22l-0.92,0.04
		c-1.42,0.06-1.42-0.42-1.42-1.6v-4.04h2.18v-2.34h-2.18v-3.18l-2.56,0.2l-0.261,2.98h-1.779v2.34H289.196L289.196,67.21z
		 M302.53,60.392h-5.596l-0.14,1.654h4.057c-0.863,0.805-1.48,1.854-1.959,2.928c-0.478,1.084-0.769,2.239-0.746,3.416h2.146
		l-0.023-0.593c0-0.98,0.269-2.426,0.664-3.336c0.408-0.944,0.921-1.877,1.598-2.647V60.392L302.53,60.392z M313.375,68.59
		c0-0.98,0.06-2-0.561-2.8c-0.6-0.78-1.6-1.1-2.54-1.1c-1.1,0-2.26,0.58-2.64,1.6h-0.04v-4.96h-2.939v13.72h2.939v-5.48
		c0-0.6,0-1.24,0.26-1.78c0.24-0.5,0.86-0.76,1.4-0.76c1.28,0,1.18,1.66,1.18,2.54v5.48h2.94V68.59L313.375,68.59z M317.771,63.564
		v1.397h0.373c0.351,0,0.945-0.035,1.271,0.082c0.408,0.152,0.606,0.548,0.606,0.969c0,0.711-0.595,1.062-1.235,1.062
		c-0.793,0-1.307-0.478-1.436-1.249l-1.702,0.245c0.117,0.747,0.49,1.365,1.085,1.819c0.629,0.489,1.317,0.618,2.099,0.618
		c0.77,0,1.516-0.128,2.145-0.583c0.606-0.419,0.944-1.083,0.944-1.819c0-1.027-0.653-1.691-1.608-1.889v-0.023
		c0.805-0.233,1.375-0.862,1.375-1.738c0-1.562-1.503-2.179-2.855-2.179c-1.388,0-2.612,0.733-2.938,2.133l1.656,0.269
		c0.14-0.619,0.536-1.039,1.201-1.039c0.279,0,0.57,0.07,0.781,0.269c0.186,0.175,0.325,0.432,0.325,0.7
		c0,0.303-0.163,0.606-0.407,0.782c-0.257,0.175-0.664,0.175-0.968,0.175H317.771L317.771,63.564z M333.193,70.47
		c0.021-1.38-0.199-2.82-1.04-3.98c-0.84-1.16-2.3-1.8-3.72-1.8c-3.16,0-4.939,2.42-4.939,5.42c0,3.02,1.979,5.14,5.02,5.14
		c3.44,0,4.62-3,4.62-3.5l-2.72-0.2c0,0.94-0.9,1.6-1.8,1.6c-1.28,0-1.961-0.98-1.961-2.18l0.021-0.5H333.193L333.193,70.47z
		 M326.653,68.73c0.101-1.16,0.601-2.12,1.9-2.12c1.28,0,1.64,1.02,1.7,2.12H326.653L326.653,68.73z M336.462,65.196l2.191-3.371
		v3.371H336.462L336.462,65.196z M340.413,65.196v-4.804h-2.133l-3.229,4.804v1.363h3.498v1.831h1.864v-1.831h1.119v-1.363H340.413
		L340.413,65.196z M351.312,67.35c-0.7-1.9-2-2.66-4-2.66c-2.16,0-4.34,0.9-4.34,3.4c0,1.28,0.8,2.32,2,2.74
		c0.64,0.22,2.32,0.52,3.021,0.6c0.539,0.06,1.14,0.18,1.14,0.86c0,0.76-1.22,0.96-1.78,0.96c-0.939,0-2.04-0.32-2.24-1.36
		l-2.539,0.36c0.539,2.28,2.52,3,4.64,3c1.12,0,2.24-0.2,3.16-0.84c0.859-0.62,1.359-1.56,1.359-2.62c0-4.58-6.1-2.42-6.1-4.32
		c0-0.74,0.92-0.9,1.52-0.9c0.96,0,1.721,0.4,1.98,1.36L351.312,67.35L351.312,67.35z M359.844,62.409
		c-0.292-1.376-1.375-2.133-2.763-2.133c-1.144,0-1.972,0.396-2.601,1.362c-0.489,0.759-0.711,1.891-0.711,2.787
		c0,2.123,0.886,4.081,3.288,4.081c0.793,0,1.516-0.222,2.086-0.769c0.501-0.5,0.816-1.212,0.816-1.913
		c0-1.446-1.153-2.459-2.553-2.459c-0.688,0-1.435,0.279-1.75,0.92h-0.023v-0.268c0-0.956,0.199-2.402,1.447-2.402
		c0.699,0,1.05,0.606,1.154,1.225L359.844,62.409L359.844,62.409z M356.929,67.178c-0.747,0-1.213-0.56-1.213-1.283
		c0-0.665,0.536-1.237,1.213-1.237c0.689,0,1.19,0.525,1.19,1.202C358.119,66.583,357.698,67.178,356.929,67.178L356.929,67.178z
		 M371.151,70.47c0.021-1.38-0.199-2.82-1.04-3.98c-0.84-1.16-2.3-1.8-3.72-1.8c-3.16,0-4.939,2.42-4.939,5.42
		c0,3.02,1.979,5.14,5.02,5.14c3.44,0,4.62-3,4.62-3.5l-2.72-0.2c0,0.94-0.9,1.6-1.801,1.6c-1.279,0-1.96-0.98-1.96-2.18l0.021-0.5
		H371.151L371.151,70.47z M364.611,68.73c0.101-1.16,0.601-2.12,1.9-2.12c1.28,0,1.64,1.02,1.7,2.12H364.611L364.611,68.73z
		 M422.049,75.05h2.939V61.33h-2.939V75.05L422.049,75.05z M431.188,64.89h-2.939v10.16h2.939V64.89L431.188,64.89z M431.188,61.13
		h-2.939v2.84h2.939V61.13L431.188,61.13z M439.516,62.035l0.198-1.643h-5.036l-0.315,4.535l1.527,0.256
		c0.209-0.385,0.711-0.618,1.131-0.618c0.725,0,1.284,0.537,1.284,1.26c0,0.723-0.572,1.202-1.284,1.202
		c-0.688,0-1.201-0.362-1.341-1.05l-1.748,0.257c0.351,1.574,1.62,2.273,3.147,2.273c0.841,0,1.68-0.198,2.297-0.792
		c0.536-0.524,0.804-1.259,0.804-2.005s-0.209-1.353-0.745-1.877c-0.501-0.466-1.13-0.711-1.818-0.711
		c-0.665,0-1.261,0.187-1.727,0.688l0.128-1.773H439.516L439.516,62.035z M441.927,64.89v10.16h2.94v-5.46
		c0-0.64,0.04-1.22,0.34-1.8c0.239-0.46,0.72-0.76,1.239-0.76c1.48,0,1.341,1.52,1.341,2.56v5.46h2.939v-6.28
		c0-0.92,0-2.2-0.56-2.96c-0.601-0.82-1.54-1.12-2.5-1.12c-1.48,0-2.32,0.62-2.92,1.92h-0.04v-1.72H441.927L441.927,64.89z
		 M462.927,70.47c0.02-1.38-0.2-2.82-1.04-3.98s-2.3-1.8-3.72-1.8c-3.16,0-4.94,2.42-4.94,5.42c0,3.02,1.98,5.14,5.021,5.14
		c3.439,0,4.62-3,4.62-3.5l-2.721-0.2c0,0.94-0.899,1.6-1.8,1.6c-1.28,0-1.96-0.98-1.96-2.18l0.021-0.5H462.927L462.927,70.47z
		 M456.387,68.73c0.1-1.16,0.6-2.12,1.9-2.12c1.279,0,1.64,1.02,1.699,2.12H456.387L456.387,68.73z M473.467,67.35
		c-0.7-1.9-2-2.66-4-2.66c-2.16,0-4.34,0.9-4.34,3.4c0,1.28,0.8,2.32,2,2.74c0.64,0.22,2.319,0.52,3.02,0.6
		c0.54,0.06,1.141,0.18,1.141,0.86c0,0.76-1.221,0.96-1.78,0.96c-0.94,0-2.04-0.32-2.24-1.36l-2.54,0.36c0.54,2.28,2.521,3,4.641,3
		c1.119,0,2.239-0.2,3.159-0.84c0.86-0.62,1.36-1.56,1.36-2.62c0-4.58-6.1-2.42-6.1-4.32c0-0.74,0.92-0.9,1.52-0.9
		c0.96,0,1.72,0.4,1.98,1.36L473.467,67.35L473.467,67.35z"/>
</g>
</svg>
